<?xml version="1.0" encoding="utf-8"?>
<!-- Generator: Adobe Illustrator 26.0.2, SVG Export Plug-In . SVG Version: 6.00 Build 0)  -->
<svg version="1.1" id="Layer_1" xmlns="http://www.w3.org/2000/svg" xmlns:xlink="http://www.w3.org/1999/xlink" x="0px" y="0px"
	 viewBox="0 0 24 24" enable-background="new 0 0 24 24" xml:space="preserve">
<path d="M23.975,11.852l-1.896-5.519c-0.005-0.014-0.016-0.023-0.022-0.036c-0.007-0.015-0.007-0.032-0.016-0.046l-0.001-0.001l0,0
	c-0.013-0.022-0.033-0.038-0.047-0.06c-0.005-0.006-0.008-0.011-0.013-0.017c-0.241-0.382-0.565-0.707-0.958-0.931l-7.631-4.371
	c-0.426-0.243-0.903-0.365-1.381-0.367C12.007,0.502,12.004,0.5,12,0.5c-0.004,0-0.007,0.002-0.011,0.002
	c-0.478,0.002-0.955,0.123-1.381,0.368L2.976,5.24C2.581,5.467,2.256,5.793,2.016,6.174C2.014,6.176,2.012,6.18,2.009,6.182
	C1.994,6.207,1.971,6.225,1.957,6.25C1.948,6.266,1.947,6.284,1.94,6.3c-0.005,0.012-0.015,0.02-0.019,0.033l-1.896,5.519
	c-0.072,0.208,0.015,0.437,0.207,0.546l1.352,0.774v3.198c0,0.983,0.533,1.899,1.392,2.391l7.632,4.369
	C11.037,23.377,11.518,23.5,12,23.5c0.482,0,0.963-0.123,1.392-0.369l7.631-4.369c0.859-0.491,1.392-1.408,1.392-2.391v-3.197
	l1.353-0.775C23.96,12.289,24.047,12.06,23.975,11.852z M20.56,6.037c0.146,0.083,0.277,0.187,0.394,0.305l-6.601,3.78l-0.961-0.55
	c-0.29-0.166-0.607-0.255-0.928-0.309V1.48c0.161,0.041,0.317,0.102,0.464,0.186L20.56,6.037z M12,11.469l-1.426-0.816l0.498-0.285
	c0.572-0.327,1.283-0.327,1.856,0l0.498,0.285L12,11.469z M3.44,6.036l7.632-4.369c0.147-0.084,0.303-0.145,0.464-0.186v7.782
	c-0.322,0.054-0.638,0.143-0.928,0.308l-0.962,0.551l-6.6-3.779C3.162,6.225,3.294,6.121,3.44,6.036z M2.616,7.159l8.822,5.051
	l-1.591,4.633l-8.821-5.051L2.616,7.159z M3.44,17.965c-0.573-0.329-0.928-0.94-0.928-1.595v-2.667l7.36,4.215
	c0.072,0.041,0.151,0.062,0.232,0.062c0.055,0,0.111-0.01,0.163-0.03c0.13-0.049,0.231-0.152,0.276-0.282l0.993-2.891v7.743
	c-0.161-0.041-0.317-0.102-0.464-0.186L3.44,17.965z M21.487,16.371c0,0.655-0.356,1.266-0.928,1.595l-7.631,4.369
	c-0.147,0.084-0.304,0.145-0.464,0.186v-7.743l0.993,2.891c0.044,0.13,0.146,0.234,0.276,0.282c0.053,0.02,0.108,0.03,0.163,0.03
	c0.081,0,0.16-0.021,0.232-0.062l7.36-4.214V16.371z M14.152,16.842l-1.591-4.633l2.02-1.157h0l6.802-3.895l1.591,4.633
	L14.152,16.842z"/>
</svg>
