<?xml version="1.0" encoding="utf-8"?>
<!-- Generator: Adobe Illustrator 26.0.2, SVG Export Plug-In . SVG Version: 6.00 Build 0)  -->
<svg version="1.1" id="Layer_1" xmlns="http://www.w3.org/2000/svg" xmlns:xlink="http://www.w3.org/1999/xlink" x="0px" y="0px"
	 viewBox="0 0 24 24" enable-background="new 0 0 24 24" xml:space="preserve">
<path d="M20.317,4.367c-1.53-0.702-3.17-1.219-4.885-1.516c-0.031-0.006-0.062,0.009-0.078,0.037
	c-0.211,0.375-0.445,0.865-0.608,1.25c-1.845-0.276-3.68-0.276-5.487,0c-0.164-0.393-0.406-0.875-0.618-1.25
	C8.625,2.861,8.593,2.846,8.562,2.851C6.848,3.147,5.208,3.664,3.677,4.367C3.664,4.373,3.652,4.382,3.645,4.395
	C0.533,9.045-0.319,13.58,0.099,18.06c0.002,0.022,0.014,0.043,0.031,0.056c2.053,1.508,4.041,2.424,5.993,3.031
	c0.031,0.01,0.064-0.002,0.084-0.028c0.462-0.631,0.873-1.296,1.226-1.995c0.021-0.041,0.001-0.09-0.042-0.106
	c-0.653-0.248-1.274-0.55-1.872-0.893c-0.047-0.028-0.051-0.095-0.008-0.128c0.126-0.094,0.252-0.192,0.372-0.291
	c0.022-0.018,0.052-0.022,0.078-0.011c3.928,1.794,8.18,1.794,12.061,0c0.026-0.012,0.056-0.009,0.079,0.01
	c0.12,0.099,0.246,0.198,0.373,0.292c0.043,0.032,0.041,0.1-0.007,0.128c-0.598,0.35-1.219,0.645-1.873,0.892
	c-0.042,0.016-0.062,0.066-0.041,0.107c0.36,0.698,0.772,1.363,1.225,1.994c0.019,0.027,0.053,0.038,0.084,0.029
	c1.961-0.607,3.95-1.522,6.002-3.031c0.018-0.013,0.029-0.033,0.031-0.055c0.5-5.179-0.838-9.677-3.549-13.665
	C20.342,4.382,20.33,4.373,20.317,4.367z M8.02,15.332c-1.182,0-2.157-1.086-2.157-2.42s0.955-2.42,2.157-2.42
	c1.211,0,2.176,1.096,2.157,2.42C10.177,14.246,9.221,15.332,8.02,15.332z M15.995,15.332c-1.182,0-2.157-1.086-2.157-2.42
	s0.955-2.42,2.157-2.42c1.211,0,2.176,1.096,2.157,2.42C18.152,14.246,17.206,15.332,15.995,15.332z"/>
</svg>
