<?xml version="1.0" encoding="utf-8"?>
<!-- Generator: Adobe Illustrator 26.0.2, SVG Export Plug-In . SVG Version: 6.00 Build 0)  -->
<svg version="1.1" id="Layer_1" xmlns="http://www.w3.org/2000/svg" xmlns:xlink="http://www.w3.org/1999/xlink" x="0px" y="0px"
	 viewBox="0 0 24 24" enable-background="new 0 0 24 24" xml:space="preserve">
<path d="M22.119,1.883C21.227,0.991,20.041,0.5,18.779,0.5c-1.261,0-2.447,0.491-3.339,1.383l-1.071,1.071
	c-0.001,0.001-0.002,0.002-0.004,0.004L2.004,15.318c-0.063,0.062-0.1,0.144-0.123,0.233c-0.003,0.011-0.014,0.019-0.016,0.031
	l-1.357,7.328c-0.03,0.162,0.022,0.328,0.138,0.444C0.741,23.448,0.869,23.5,1,23.5c0.03,0,0.061-0.003,0.091-0.009l7.329-1.356
	c0.011-0.002,0.018-0.013,0.029-0.015c0.089-0.023,0.171-0.06,0.234-0.123L22.119,8.562C23.96,6.72,23.96,3.725,22.119,1.883z
	 M3.463,15.273L14.919,3.819c2.859,0.103,5.162,2.405,5.264,5.265L8.727,20.538C8.262,17.855,6.145,15.738,3.463,15.273z
	 M2.769,16.193c2.688,0.202,4.837,2.35,5.039,5.038l-6.183,1.145L2.769,16.193z M21.091,8.175c-0.464-2.682-2.582-4.8-5.265-5.265
	l0.32-0.32c1.406-1.407,3.858-1.406,5.265,0c1.451,1.451,1.451,3.813,0,5.265L21.091,8.175z"/>
</svg>
