<?xml version="1.0" encoding="utf-8"?>
<!-- Generator: Adobe Illustrator 26.0.2, SVG Export Plug-In . SVG Version: 6.00 Build 0)  -->
<svg version="1.1" id="Layer_1" xmlns="http://www.w3.org/2000/svg" xmlns:xlink="http://www.w3.org/1999/xlink" x="0px" y="0px"
	 viewBox="0 0 24 24" enable-background="new 0 0 24 24" xml:space="preserve">
<path d="M22.312,4.5H1.688C0.757,4.5,0,5.272,0,6.222v11.556C0,18.727,0.758,19.5,1.688,19.5h20.624
	c0.931,0,1.688-0.772,1.688-1.722V6.222C24,5.272,23.242,4.5,22.312,4.5z M21.736,5.605l-9.341,6.127
	c-0.24,0.155-0.55,0.155-0.787,0.002L2.263,5.606h19.473V5.605z M23.04,17.778c0,0.409-0.327,0.743-0.728,0.743H1.688
	c-0.402,0-0.728-0.334-0.728-0.743V6.222c0-0.138,0.047-0.259,0.111-0.37l10.014,6.697c0.277,0.183,0.596,0.274,0.915,0.274
	c0.32,0,0.639-0.092,0.92-0.276l10.01-6.695c0.064,0.111,0.111,0.232,0.111,0.37v11.556H23.04z"/>
</svg>
