<?xml version="1.0" encoding="utf-8"?>
<!-- Generator: Adobe Illustrator 26.0.2, SVG Export Plug-In . SVG Version: 6.00 Build 0)  -->
<svg version="1.1" id="Layer_1" xmlns="http://www.w3.org/2000/svg" xmlns:xlink="http://www.w3.org/1999/xlink" x="0px" y="0px"
	 viewBox="0 0 24 24" enable-background="new 0 0 24 24" xml:space="preserve">
<path d="M12,2.163c3.205,0,3.583,0.013,4.849,0.071c1.17,0.054,1.806,0.248,2.228,0.414c0.56,0.217,0.96,0.477,1.379,0.898
	c0.419,0.419,0.68,0.82,0.898,1.379c0.164,0.424,0.36,1.059,0.414,2.228c0.058,1.265,0.071,1.645,0.071,4.849
	s-0.013,3.583-0.071,4.849c-0.054,1.17-0.248,1.806-0.414,2.228c-0.217,0.56-0.477,0.96-0.898,1.379
	c-0.419,0.419-0.82,0.68-1.379,0.898c-0.424,0.164-1.059,0.36-2.228,0.414c-1.265,0.058-1.645,0.071-4.849,0.071
	s-3.584-0.013-4.849-0.071c-1.17-0.054-1.806-0.248-2.228-0.414c-0.56-0.217-0.96-0.477-1.379-0.898
	c-0.419-0.419-0.68-0.82-0.898-1.379c-0.164-0.424-0.36-1.059-0.414-2.228C2.174,15.583,2.163,15.205,2.163,12
	s0.013-3.583,0.071-4.849c0.054-1.17,0.248-1.806,0.414-2.228c0.217-0.56,0.477-0.96,0.898-1.379c0.419-0.419,0.82-0.68,1.379-0.898
	c0.424-0.164,1.059-0.36,2.228-0.414C8.417,2.174,8.795,2.163,12,2.163 M12,0C8.742,0,8.332,0.014,7.052,0.072
	C5.774,0.13,4.902,0.333,4.14,0.63C3.351,0.936,2.682,1.347,2.014,2.014C1.346,2.682,0.937,3.351,0.63,4.14
	c-0.296,0.764-0.5,1.636-0.558,2.912C0.014,8.332,0,8.742,0,12s0.014,3.668,0.072,4.948c0.058,1.278,0.261,2.15,0.558,2.912
	c0.306,0.789,0.717,1.458,1.384,2.126c0.668,0.668,1.337,1.077,2.126,1.384c0.764,0.296,1.636,0.5,2.912,0.558
	C8.332,23.986,8.742,24,12,24s3.668-0.014,4.948-0.072c1.278-0.058,2.15-0.261,2.912-0.558c0.789-0.306,1.458-0.717,2.126-1.384
	c0.668-0.668,1.077-1.337,1.384-2.126c0.296-0.764,0.5-1.636,0.558-2.912C23.986,15.668,24,15.258,24,12s-0.014-3.668-0.072-4.948
	c-0.058-1.278-0.261-2.15-0.558-2.912c-0.306-0.789-0.717-1.458-1.384-2.126c-0.668-0.668-1.337-1.077-2.126-1.384
	c-0.764-0.296-1.636-0.5-2.912-0.558C15.668,0.014,15.258,0,12,0L12,0z M12,5.838c-3.404,0-6.162,2.759-6.162,6.162
	S8.597,18.162,12,18.162s6.162-2.759,6.162-6.162S15.404,5.838,12,5.838z M12,16c-2.209,0-4-1.792-4-4s1.792-4,4-4s4,1.792,4,4
	S14.209,16,12,16z M18.405,4.155c-0.795,0-1.44,0.645-1.44,1.44s0.645,1.44,1.44,1.44s1.44-0.645,1.44-1.44
	S19.201,4.155,18.405,4.155z"/>
</svg>
