<?xml version="1.0" encoding="utf-8"?>
<!-- Generator: Adobe Illustrator 26.0.2, SVG Export Plug-In . SVG Version: 6.00 Build 0)  -->
<svg version="1.1" id="Layer_1" xmlns="http://www.w3.org/2000/svg" xmlns:xlink="http://www.w3.org/1999/xlink" x="0px" y="0px"
	 viewBox="0 0 24 24" enable-background="new 0 0 24 24" xml:space="preserve">
<path d="M19.969,0H4.031C1.814,0,0,1.814,0,4.031v15.938C0,22.186,1.814,24,4.031,24h15.938C22.186,24,24,22.186,24,19.969V4.031
	C24,1.814,22.186,0,19.969,0z M9,19.5H6V9h3V19.5z M7.5,7.5C6.671,7.5,6,6.829,6,6s0.671-1.5,1.5-1.5S9,5.171,9,6S8.329,7.5,7.5,7.5
	z M19.5,19.5h-3v-6c0-0.829-0.671-1.5-1.5-1.5s-1.5,0.671-1.5,1.5v6h-3V9h3v1.862C14.119,10.012,15.064,9,16.125,9
	c1.864,0,3.375,1.679,3.375,3.75V19.5z"/>
</svg>
