<?xml version="1.0" encoding="utf-8"?>
<!-- Generator: Adobe Illustrator 26.0.2, SVG Export Plug-In . SVG Version: 6.00 Build 0)  -->
<svg version="1.1" id="Layer_1" xmlns="http://www.w3.org/2000/svg" xmlns:xlink="http://www.w3.org/1999/xlink" x="0px" y="0px"
	 viewBox="0 0 24 24" enable-background="new 0 0 24 24" xml:space="preserve">
<path d="M12.928,14.36c0.291,1.413-0.139,2.86-1.151,3.872L7.749,22.26c-0.799,0.8-1.866,1.24-3.004,1.24s-2.204-0.44-3.004-1.24
	c-1.656-1.656-1.656-4.351,0-6.008l4.028-4.028c0.996-0.996,2.421-1.43,3.815-1.163c0.271,0.053,0.449,0.314,0.397,0.586
	c-0.052,0.271-0.312,0.447-0.585,0.396c-1.068-0.205-2.158,0.127-2.919,0.888l-4.028,4.028c-1.266,1.267-1.266,3.327,0,4.594
	c1.222,1.222,3.373,1.22,4.593,0l4.028-4.028c0.774-0.773,1.102-1.881,0.879-2.962c-0.056-0.27,0.118-0.535,0.389-0.591
	C12.607,13.91,12.873,14.089,12.928,14.36z M22.26,1.74c-0.799-0.8-1.866-1.24-3.003-1.24c-1.138,0-2.204,0.44-3.004,1.24
	l-4.028,4.028c-1.013,1.013-1.443,2.46-1.151,3.872c0.056,0.27,0.322,0.447,0.591,0.388c0.27-0.056,0.444-0.32,0.389-0.591
	c-0.223-1.081,0.105-2.188,0.879-2.962l4.028-4.028c1.221-1.22,3.372-1.222,4.593,0c1.266,1.267,1.266,3.327,0,4.594l-4.028,4.028
	c-0.761,0.762-1.85,1.094-2.919,0.888c-0.268-0.05-0.533,0.126-0.585,0.396c-0.052,0.271,0.125,0.533,0.397,0.586
	c0.27,0.052,0.543,0.077,0.813,0.077c1.118,0,2.2-0.437,3.002-1.24l4.028-4.028c0.8-0.8,1.24-1.866,1.24-3.004
	S23.06,2.54,22.26,1.74z M7.981,16.02c0.098,0.098,0.226,0.146,0.353,0.146s0.256-0.049,0.353-0.146l7.333-7.333
	c0.195-0.195,0.195-0.512,0-0.707c-0.195-0.195-0.512-0.195-0.707,0l-7.333,7.333C7.786,15.508,7.786,15.825,7.981,16.02z"/>
</svg>
