<?xml version="1.0" encoding="utf-8"?>
<!-- Generator: Adobe Illustrator 26.0.2, SVG Export Plug-In . SVG Version: 6.00 Build 0)  -->
<svg version="1.1" id="Layer_1" xmlns="http://www.w3.org/2000/svg" xmlns:xlink="http://www.w3.org/1999/xlink" x="0px" y="0px"
	 viewBox="0 0 24 24" enable-background="new 0 0 24 24" xml:space="preserve">
<path d="M23.898,5.803l-7.482,12.068l-5.231-8.436l4.686-7.558c0.05-0.08,0.142-0.126,0.234-0.126c0.003,0,0.005,0.001,0.007,0.001
	c0.038,0.001,0.075,0.009,0.11,0.026l7.603,3.773C23.919,5.596,23.953,5.713,23.898,5.803z M8.706,6.776L16,18.539L8.706,14.92
	V6.776z M16.638,18.851L24,6.976v14.791c0,0.406-0.299,0.589-0.665,0.408L16.638,18.851z M7.901,5.587C7.961,5.617,8,5.678,8,5.745
	v16.027c0,0.299-0.163,0.478-0.395,0.478c-0.083,0-0.174-0.023-0.269-0.07l-6.893-3.42C0.199,18.639,0,18.319,0,18.048V2.158
	C0,2.059,0.027,1.98,0.072,1.926C0.119,1.87,0.185,1.84,0.263,1.84c0.055,0,0.116,0.015,0.18,0.047l0.443,0.22L7.901,5.587z"/>
</svg>
