<?xml version="1.0" encoding="utf-8"?>
<!-- Generator: Adobe Illustrator 26.0.2, SVG Export Plug-In . SVG Version: 6.00 Build 0)  -->
<svg version="1.1" id="Layer_1" xmlns="http://www.w3.org/2000/svg" xmlns:xlink="http://www.w3.org/1999/xlink" x="0px" y="0px"
	 viewBox="0 0 24 24" enable-background="new 0 0 24 24" xml:space="preserve">
<path d="M12,0C5.372,0,0,5.372,0,12s5.372,12,12,12s12-5.372,12-12S18.628,0,12,0z M13.163,16.034
	c-1.091-0.085-1.548-0.625-2.402-1.144c-0.47,2.465-1.044,4.828-2.745,6.063c-0.524-3.727,0.771-6.524,1.373-9.495
	C8.364,9.73,9.513,6.253,11.678,7.11c2.663,1.054-2.306,6.423,1.03,7.093c3.483,0.7,4.905-6.043,2.745-8.236
	c-3.12-3.166-9.083-0.073-8.351,4.462c0.179,1.108,1.324,1.444,0.458,2.974c-1.997-0.442-2.593-2.019-2.517-4.118
	c0.124-3.438,3.089-5.845,6.063-6.177c3.762-0.421,7.292,1.38,7.779,4.919C19.433,12.019,17.185,16.345,13.163,16.034z"/>
</svg>
