<?xml version="1.0" encoding="utf-8"?>
<!-- Generator: Adobe Illustrator 26.0.2, SVG Export Plug-In . SVG Version: 6.00 Build 0)  -->
<svg version="1.1" id="Layer_1" xmlns="http://www.w3.org/2000/svg" xmlns:xlink="http://www.w3.org/1999/xlink" x="0px" y="0px"
	 viewBox="0 0 24 24" enable-background="new 0 0 24 24" xml:space="preserve">
<path d="M12,11c2.895,0,5.25-2.356,5.25-5.25S14.895,0.5,12,0.5S6.75,2.856,6.75,5.75S9.105,11,12,11z M12,1.455
	c2.369,0,4.295,1.927,4.295,4.295S14.369,10.045,12,10.045S7.705,8.119,7.705,5.75S9.631,1.455,12,1.455z M23,23.5h-1.044
	l-0.013-0.113c-0.69-5.807-5.057-10.356-9.943-10.356c-4.887,0-9.253,4.549-9.942,10.356L2.044,23.5H1l0.016-0.142
	c0.348-3.092,1.662-5.957,3.697-8.069C6.758,13.168,9.346,12,12.001,12c2.654,0,5.242,1.168,7.286,3.289
	c2.035,2.112,3.349,4.978,3.697,8.069L23,23.5z"/>
</svg>
