<?xml version="1.0" encoding="utf-8"?>
<!-- Generator: Adobe Illustrator 26.0.2, SVG Export Plug-In . SVG Version: 6.00 Build 0)  -->
<svg version="1.1" id="Layer_1" xmlns="http://www.w3.org/2000/svg" xmlns:xlink="http://www.w3.org/1999/xlink" x="0px" y="0px"
	 viewBox="0 0 24 24" enable-background="new 0 0 24 24" xml:space="preserve">
<path d="M20.906,11.302c-0.424,0-0.828,0.083-1.197,0.231c-0.246-2.681-2.585-4.783-5.438-4.783c-0.699,0-1.375,0.132-1.977,0.356
	C12.061,7.192,12,7.282,12,7.455v9.438c0,0.182,0.146,0.333,0.331,0.352c0.008,0,8.52,0.004,8.575,0.004
	c1.709,0,3.094-1.332,3.094-2.974C24.001,12.634,22.615,11.302,20.906,11.302z M9.375,17.25h0.75l0.375-5.255l-0.375-5.244h-0.75
	L9,11.995L9.375,17.25z M7.125,17.25h-0.75L6,13.436l0.375-3.686h0.75L7.5,13.5L7.125,17.25z M3.375,17.25h0.75l0.375-3l-0.375-3
	h-0.75L3,14.25L3.375,17.25z M0.375,15.75h0.75l0.375-1.5l-0.375-1.5h-0.75L0,14.25L0.375,15.75z"/>
</svg>
