<?xml version="1.0" encoding="utf-8"?>
<!-- Generator: Adobe Illustrator 26.0.2, SVG Export Plug-In . SVG Version: 6.00 Build 0)  -->
<svg version="1.1" id="Layer_1" xmlns="http://www.w3.org/2000/svg" xmlns:xlink="http://www.w3.org/1999/xlink" x="0px" y="0px"
	 viewBox="0 0 24 24" enable-background="new 0 0 24 24" xml:space="preserve">
<path d="M21.541,6.981c0.01,0.216,0.014,0.434,0.014,0.653C21.555,14.306,16.603,22,7.547,22C4.767,22,2.179,21.164,0,19.732
	c0.385,0.047,0.777,0.071,1.175,0.071c2.306,0,4.43-0.807,6.114-2.161c-2.155-0.041-3.972-1.501-4.599-3.506
	c0.301,0.059,0.609,0.09,0.927,0.09c0.449,0,0.884-0.062,1.297-0.176c-2.252-0.465-3.949-2.505-3.949-4.952
	c0-0.021,0-0.043,0.001-0.063C1.631,9.413,2.39,9.64,3.197,9.666C1.876,8.76,1.006,7.215,1.006,5.463
	c0-0.925,0.243-1.792,0.667-2.539C4.101,5.978,7.728,7.989,11.82,8.199c-0.083-0.369-0.127-0.754-0.127-1.151
	C11.693,4.26,13.898,2,16.617,2c1.416,0,2.695,0.613,3.594,1.594c1.121-0.226,2.175-0.647,3.127-1.225
	c-0.368,1.179-1.149,2.168-2.166,2.793C22.167,5.04,23.117,4.768,24,4.367C23.339,5.38,22.504,6.268,21.541,6.981z"/>
</svg>
