<?xml version="1.0" encoding="utf-8"?>
<!-- Generator: Adobe Illustrator 26.0.2, SVG Export Plug-In . SVG Version: 6.00 Build 0)  -->
<svg version="1.1" id="Layer_1" xmlns="http://www.w3.org/2000/svg" xmlns:xlink="http://www.w3.org/1999/xlink" x="0px" y="0px"
	 viewBox="0 0 24 24" enable-background="new 0 0 24 24" xml:space="preserve">
<path d="M5.304,6.099c-0.195-0.195-0.195-0.512,0-0.707c0.195-0.195,0.512-0.195,0.707,0l3.333,3.333
	c0.098,0.098,0.146,0.226,0.146,0.354S9.442,9.335,9.344,9.433c-0.195,0.195-0.512,0.195-0.707,0L5.304,6.099z M15.35,14.673
	c-0.195-0.195-0.512-0.195-0.707,0c-0.195,0.195-0.195,0.512,0,0.707l3.333,3.333c0.195,0.195,0.512,0.195,0.707,0
	c0.098-0.098,0.146-0.226,0.146-0.354c0-0.128-0.049-0.256-0.146-0.354L15.35,14.673z M20.845,14.826l-4.553-1.22
	c-0.267-0.072-0.541,0.087-0.612,0.354c-0.071,0.267,0.087,0.541,0.353,0.612l4.553,1.22c0.267,0.072,0.541-0.087,0.612-0.354
	c0.036-0.133,0.014-0.269-0.05-0.379C21.085,14.948,20.978,14.862,20.845,14.826z M3.155,9.357l4.553,1.22
	c0.267,0.072,0.541-0.087,0.612-0.354c0.036-0.133,0.014-0.269-0.05-0.379C8.206,9.733,8.1,9.647,7.967,9.611l-4.553-1.22
	C3.147,8.319,2.873,8.478,2.801,8.744C2.73,9.011,2.888,9.285,3.155,9.357z M9.461,8.042c0.071,0.267,0.345,0.425,0.612,0.354
	c0.133-0.036,0.24-0.122,0.304-0.233c0.064-0.111,0.086-0.246,0.05-0.379L9.207,3.23C9.135,2.963,8.861,2.805,8.595,2.876
	C8.328,2.948,8.17,3.222,8.241,3.489L9.461,8.042z M14.539,16.022c-0.071-0.267-0.345-0.425-0.612-0.353
	c-0.267,0.072-0.425,0.346-0.353,0.612l1.22,4.553c0.071,0.267,0.345,0.425,0.612,0.354c0.133-0.036,0.24-0.122,0.304-0.233
	c0.064-0.111,0.086-0.246,0.05-0.379L14.539,16.022z M11.338,14.972c-0.27,0.056-0.444,0.32-0.389,0.591
	c0.224,1.081-0.105,2.188-0.879,2.962l-3.028,3.028c-1.22,1.22-3.371,1.222-4.593,0c-1.266-1.267-1.266-3.327,0-4.594l3.029-3.028
	c0.761-0.761,1.851-1.093,2.919-0.888c0.273,0.051,0.533-0.125,0.585-0.396c0.052-0.271-0.125-0.533-0.397-0.586
	c-1.393-0.267-2.819,0.167-3.815,1.163l-3.029,3.028c-1.656,1.656-1.656,4.351,0,6.008c0.799,0.8,1.866,1.24,3.004,1.24
	s2.204-0.44,3.004-1.24l3.028-3.028c1.013-1.012,1.443-2.459,1.151-3.872C11.873,15.089,11.607,14.91,11.338,14.972z M22.26,1.74
	c-0.799-0.8-1.866-1.24-3.003-1.24c-1.138,0-2.204,0.44-3.004,1.24l-3.029,3.028c-1.013,1.013-1.443,2.46-1.151,3.872
	c0.056,0.27,0.322,0.447,0.591,0.388c0.27-0.056,0.444-0.32,0.389-0.591c-0.223-1.081,0.105-2.188,0.879-2.962l3.029-3.028
	c1.221-1.22,3.372-1.222,4.593,0c1.266,1.267,1.266,3.327,0,4.594l-3.028,3.028c-0.761,0.762-1.85,1.094-2.919,0.888
	c-0.268-0.05-0.533,0.126-0.585,0.396c-0.052,0.271,0.125,0.533,0.397,0.586c0.27,0.052,0.543,0.077,0.813,0.077
	c1.118,0,2.2-0.437,3.002-1.24l3.028-3.028c0.8-0.8,1.24-1.866,1.24-3.004S23.06,2.54,22.26,1.74z"/>
</svg>
