<?xml version="1.0" encoding="utf-8"?>
<!-- Generator: Adobe Illustrator 26.0.2, SVG Export Plug-In . SVG Version: 6.00 Build 0)  -->
<svg version="1.1" id="Layer_1" xmlns="http://www.w3.org/2000/svg" xmlns:xlink="http://www.w3.org/1999/xlink" x="0px" y="0px"
	 viewBox="0 0 24 24" enable-background="new 0 0 24 24" xml:space="preserve">
<path d="M21.2,3.5H2.8c-1.268,0-2.3,1.025-2.3,2.285v12.43c0,1.26,1.032,2.285,2.3,2.285h18.4c1.268,0,2.3-1.025,2.3-2.285V5.785
	C23.5,4.525,22.468,3.5,21.2,3.5z M1.42,14.712h21.16V16.6H1.42V14.712z M2.8,4.414h18.4c0.761,0,1.38,0.615,1.38,1.371v8.013H1.42
	V5.785C1.42,5.029,2.039,4.414,2.8,4.414z M21.2,19.586H2.8c-0.761,0-1.38-0.615-1.38-1.371v-0.701h21.16v0.701
	C22.58,18.971,21.961,19.586,21.2,19.586z"/>
</svg>
