<?xml version="1.0" encoding="utf-8"?>
<!-- Generator: Adobe Illustrator 26.0.2, SVG Export Plug-In . SVG Version: 6.00 Build 0)  -->
<svg version="1.1" id="Layer_1" xmlns="http://www.w3.org/2000/svg" xmlns:xlink="http://www.w3.org/1999/xlink" x="0px" y="0px"
	 viewBox="0 0 24 24" enable-background="new 0 0 24 24" xml:space="preserve">
<path d="M12.73,0.037l-0.113-0.013C12.537,0.014,12.438,0,12.333,0h-0.005c-0.05,0.006-0.077,0.01-0.099,0.01L12,0
	C5.383,0,0,5.383,0,12s5.383,12,12.002,12l0.225-0.011l0.083,0.009c0.117-0.001,0.219-0.01,0.3-0.02l0.104-0.013
	C19.043,23.583,24,18.327,24,12C24,5.674,19.05,0.419,12.73,0.037z M16.046,21.699c0.909-1.266,1.621-2.963,2.057-4.909l0.051-0.225
	l0.229,0.026c1.581,0.183,2.541,0.394,2.973,0.504l0.33,0.084l-0.169,0.293c-1.181,2.043-3.013,3.681-5.16,4.613l-0.852,0.37
	L16.046,21.699z M21.688,7.507c-0.251,0.078-1.22,0.35-3.172,0.582l-0.238,0.028l-0.045-0.235c-0.421-2.244-1.178-4.174-2.187-5.579
	l-0.543-0.755l0.852,0.37c2.38,1.032,4.329,2.889,5.487,5.23l0.133,0.27L21.688,7.507z M18.372,15.303
	c0.16-1.093,0.24-2.205,0.24-3.302c0-0.869-0.051-1.754-0.15-2.63l-0.029-0.254l0.252-0.03c1.559-0.186,3.125-0.496,3.699-0.656
	c0.047,0.136,0.091,0.273,0.132,0.409l0.013,0.039c0.303,1.015,0.457,2.065,0.457,3.121c0,1.378-0.262,2.736-0.779,4.038
	l-0.086,0.218l-0.224-0.065c-0.363-0.106-1.413-0.375-3.304-0.597l-0.263-0.031L18.372,15.303z M17.16,9.24l0.245-0.021l0.03,0.245
	c0.108,0.868,0.163,1.721,0.163,2.537c0,1.087-0.087,2.173-0.257,3.229l-0.037,0.234l-0.235-0.019
	c-1.313-0.105-2.771-0.166-4.333-0.182l-0.253-0.003V9.431l0.253-0.002C14.335,9.413,15.823,9.35,17.16,9.24z M12.483,8.42V1.045
	l0.327,0.096c1.945,0.566,3.621,3.168,4.376,6.792l0.059,0.285l-0.29,0.023c-1.266,0.101-2.684,0.16-4.214,0.177L12.483,8.42z
	 M17.098,16.464l-0.074,0.296c-0.824,3.291-2.399,5.573-4.213,6.101l-0.327,0.096v-6.683l0.258,0.002
	c1.46,0.015,2.824,0.07,4.054,0.165L17.098,16.464z M5.5,9.394C5.378,10.267,5.316,11.144,5.316,12c0,1.078,0.099,2.18,0.294,3.275
	l0.049,0.271l-0.273,0.029C3.61,15.768,2.54,15.991,2.06,16.108l-0.218,0.054l-0.081-0.21c-0.496-1.28-0.747-2.61-0.747-3.953
	c0-1.123,0.172-2.235,0.51-3.305l0.074-0.235l0.237,0.065C2.04,8.579,3.166,8.868,5.274,9.102l0.262,0.029L5.5,9.394z M11.469,1.059
	v7.36L11.21,8.417C9.703,8.401,8.283,8.343,6.989,8.243L6.696,8.221l0.062-0.287c0.766-3.56,2.443-6.153,4.377-6.768L11.469,1.059z
	 M11.469,16.273v6.669l-0.334-0.107c-1.803-0.573-3.377-2.846-4.211-6.077L6.847,16.46l0.306-0.023
	c1.237-0.091,2.602-0.146,4.055-0.161L11.469,16.273z M6.869,15.441l-0.233,0.018l-0.039-0.231
	c-0.176-1.056-0.265-2.142-0.265-3.226c0-0.819,0.057-1.671,0.168-2.533l0.031-0.242l0.243,0.019
	c1.357,0.106,2.851,0.168,4.442,0.183l0.254,0.002v5.828l-0.254,0.004C9.66,15.278,8.197,15.338,6.869,15.441z M8.243,1.688
	l0.93-0.339L8.525,2.098C7.279,3.536,6.304,5.6,5.778,7.909L5.727,8.131L5.501,8.107C3.705,7.912,2.656,7.684,2.288,7.595
	l-0.31-0.074l0.139-0.287C3.371,4.643,5.547,2.674,8.243,1.688z M2.613,17.023c0.58-0.123,1.579-0.301,3.046-0.454l0.216-0.023
	l0.057,0.211c0.554,2.049,1.45,3.829,2.592,5.147l0.648,0.75l-0.93-0.34c-2.452-0.897-4.512-2.641-5.799-4.911L2.27,17.098
	L2.613,17.023z"/>
</svg>
