<svg xmlns="http://www.w3.org/2000/svg" viewBox="0 0 120 33" style="enable-background:new 0 0 120 33" xml:space="preserve">
  <path d="m45.03 4.1-.752-.15 1.747-.583 1.329.567-2.324.166zm-.866-.233 1.726-.575-1.877-1.087.151 1.662zm.143-3.316L44 2.019 46.539.387l-2.232.164zM16.676 12.27l-3.273 2.006v9.636l-2.136.207v.345h7.063v-.345l-1.654-.207V12.27zm16.139-3.691h-2.116v.345h2.116v-.345zM0 .689l2.722.207v23.016L0 24.119v.345h9.13v-.345l-2.722-.207V.896L9.13.689V.345H0v.344zm101.257 7.89h-4.703v.345h4.703v-.345zM76.662.533l-.83-.154-2.313.17 1.437.552 1.706-.568zm5.766 8.046H80.31v.345h2.118v-.345zm-5.804-4.651.307-1.603-2.655 1.77 2.348-.167zm.297-1.749L76.768.618l-1.672.557 1.825 1.004zM47.408 8.062h-.345L41.86 9.371l.069.345 2.205-.517v14.712l-2.136.207v.345h7.58v-.345l-2.171-.207V8.062zm38.534.862h4.153v-.345h-4.153v.345zm4.669 0h2.429v-.345h-2.429v.345zm-4.788-1.792c0-1.952.155-3.611.157-3.624.22-1.363.967-2.64 1.391-3.262L84.1 3.549c-1.206 1.206-1.55 2.412-1.55 4.651v15.711l-2.24.207v.345h9.13v-.345l-3.618-.207V7.132zm-59.018 5.789c0-2.584-.241-3.342-1.068-4.135-.482-.482-1.275-.896-2.825-.896l-6.236 3.859V8.062h-.345l-5.203 1.309.069.345 2.205-.517v4.942l3.273-2.006v-.007l1.275-.758c1.378-.827 2.171-1.378 3.445-1.378 1.344 0 2.067.655 2.067 2.756v11.163l-1.619.207v.345h7.442v-.345l-2.481-.207v-10.99zm71.662 9.992c-1.275 0-2.033-.724-2.033-2.308V4.066l-3.273 1.895v14.712c0 2.515.689 4.307 3.687 4.307l4.823-2.619-.138-.31c-1.068.551-1.861.862-3.066.862zm16.537-14.506v.345l2.343.207-4.789 13.541-4.927-13.541 1.964-.207v-.345h-7.511v.345l1.792.207 5.616 15.298 2.894-1.309-3.618 6.374h-.017v3.125l4.221-9.293 5.03-14.196L120 8.752v-.345h-4.996zm-78.675.517h4.154v-.345h-4.154v.345zm-.118-1.792c0-2.036 0-2.918.187-3.683.24-1.39 1.017-2.682 1.426-3.268l-3.335 3.368c-1.206 1.206-1.55 2.412-1.55 4.651v15.711l-2.24.207v.345h9.13v-.345l-3.618-.207V7.132zm40.378.93h-.345l-5.203 1.309.069.345 2.205-.517v14.712l-2.136.207v.345h7.58v-.345l-2.171-.207V8.062zm-19.741 4.211-3.273 2.006v9.632l-2.136.207v.345h7.063v-.345l-1.654-.207V12.273zm10.129.648c0-2.584-.241-3.342-1.068-4.135-.482-.482-1.275-.896-2.825-.896l-6.236 3.859V8.062h-.345L51.3 9.372l.069.345 2.205-.517v4.945l3.273-2.006v-.01l1.275-.758c1.378-.827 2.171-1.378 3.445-1.378 1.344 0 2.067.655 2.067 2.756v11.163l-1.619.207v.345h7.442v-.345l-2.481-.207V12.921z"/>
  <path d="m47.58.551.172 1.757-.126.657-.17.887-1.403-.598-1.813-1.05-.167-.097.154-.099 2.51-1.614.425.079.418.078zM38.528 0h-.43c-.215.267-.936 1.299-1.353 2.553l-.007.031H41.689V0h-3.161zm36.401 1.215L73.467.653l-.289 1.38.172 1.895.706.141.04.008.092-.061 2.637-1.758-.505-.278-1.391-.765zm32.364 28.106h-2.35v3.238h3.692V29.32h-1.342zM88.129 0h-.439c-.212.264-.919 1.276-1.339 2.511l-.025.073H91.3V0H88.129z" style="fill:#ff0096"/>
</svg>