<?xml version="1.0" encoding="utf-8"?>
<!-- Generator: Adobe Illustrator 26.0.2, SVG Export Plug-In . SVG Version: 6.00 Build 0)  -->
<svg version="1.1" id="Layer_1" xmlns="http://www.w3.org/2000/svg" xmlns:xlink="http://www.w3.org/1999/xlink" x="0px" y="0px"
	 viewBox="0 0 16 16" enable-background="new 0 0 16 16" xml:space="preserve">
<path d="M15.5,8.47c0,1.535-1.25,2.783-2.786,2.783h-2.303c-0.237,0-0.43-0.193-0.43-0.43c0-0.237,0.193-0.429,0.43-0.429h2.303
	c1.062,0,1.925-0.863,1.925-1.924c0-1.059-0.864-1.921-1.925-1.921h-0.43V6.12c0-2.35-1.922-4.261-4.284-4.261
	c-1.547,0-2.978,0.828-3.736,2.162l-0.1,0.176l-0.2,0.035c-1.509,0.26-2.603,1.548-2.603,3.063c0,1.708,1.393,3.098,3.105,3.098
	h1.124c0.237,0,0.43,0.192,0.43,0.429c0,0.237-0.193,0.43-0.43,0.43H4.466c-2.187,0-3.966-1.775-3.966-3.957
	c0-1.877,1.279-3.461,3.118-3.871C4.549,1.928,6.223,1,8,1c2.689,0,4.922,2.066,5.129,4.721C14.488,5.923,15.5,7.088,15.5,8.47z
	 M9.624,12.342L8.43,13.534V6.126c0-0.237-0.193-0.429-0.43-0.429c-0.237,0-0.43,0.192-0.43,0.429v7.407l-1.194-1.192
	c-0.163-0.163-0.447-0.162-0.609,0c-0.081,0.081-0.126,0.189-0.126,0.304s0.045,0.223,0.126,0.304l1.928,1.925
	c0.04,0.04,0.087,0.071,0.141,0.094C7.889,14.989,7.944,15,8,15c0.056,0,0.111-0.011,0.165-0.033c0.053-0.022,0.1-0.053,0.14-0.093
	l1.928-1.925c0.081-0.081,0.126-0.189,0.126-0.304s-0.045-0.223-0.126-0.304C10.07,12.18,9.787,12.179,9.624,12.342z"/>
</svg>
