<?xml version="1.0" encoding="utf-8"?>
<!-- Generator: Adobe Illustrator 26.0.2, SVG Export Plug-In . SVG Version: 6.00 Build 0)  -->
<svg version="1.1" id="Layer_1" xmlns="http://www.w3.org/2000/svg" xmlns:xlink="http://www.w3.org/1999/xlink" x="0px" y="0px"
	 viewBox="0 0 16 16" style="enable-background:new 0 0 16 16;" xml:space="preserve">
<path d="M8.716,9.489c0.195,0.948-0.094,1.918-0.772,2.595L5.36,14.669C4.824,15.205,4.109,15.5,3.346,15.5
	c-0.763,0-1.478-0.295-2.014-0.831c-1.11-1.111-1.11-2.917,0-4.028l2.584-2.584C4.583,7.39,5.539,7.096,6.474,7.277
	c0.24,0.046,0.398,0.279,0.352,0.519C6.78,8.035,6.547,8.189,6.307,8.149C5.659,8.023,5.003,8.225,4.544,8.684L1.96,11.268
	c-0.764,0.765-0.764,2.009,0,2.773c0.739,0.738,2.034,0.739,2.773,0l2.584-2.584c0.467-0.467,0.665-1.135,0.53-1.788
	C7.823,9.553,7.845,9.434,7.911,9.335c0.065-0.099,0.164-0.166,0.28-0.19C8.304,9.12,8.42,9.14,8.52,9.203
	C8.62,9.267,8.692,9.372,8.716,9.489z M14.669,1.331C14.133,0.795,13.418,0.5,12.655,0.5s-1.478,0.295-2.014,0.831L8.058,3.916
	C7.379,4.594,7.09,5.564,7.285,6.511c0.024,0.118,0.093,0.219,0.194,0.284c0.1,0.065,0.218,0.085,0.33,0.061
	c0.116-0.024,0.216-0.092,0.281-0.191c0.065-0.099,0.088-0.218,0.064-0.334C8.02,5.678,8.218,5.01,8.685,4.543l2.584-2.584
	c0.351-0.35,0.856-0.551,1.386-0.551c0,0,0,0,0.001,0c0.53,0,1.035,0.201,1.385,0.551c0.37,0.37,0.573,0.862,0.573,1.386
	c0,0.524-0.204,1.017-0.573,1.387l-2.584,2.584c-0.459,0.46-1.119,0.662-1.763,0.536c-0.24-0.042-0.472,0.113-0.519,0.353
	C9.13,8.444,9.288,8.677,9.528,8.723c0.18,0.035,0.363,0.052,0.545,0.052c0.762,0,1.477-0.295,2.012-0.831l2.584-2.584
	C15.205,4.823,15.5,4.108,15.5,3.345C15.5,2.583,15.205,1.868,14.669,1.331z M5.205,10.352c0,0.118,0.046,0.23,0.13,0.313
	c0.084,0.085,0.195,0.131,0.314,0.131c0.118,0,0.23-0.046,0.314-0.13l4.704-4.704c0.173-0.173,0.173-0.454,0-0.627
	c-0.084-0.084-0.195-0.13-0.314-0.13c0,0,0,0,0,0c-0.119,0-0.23,0.047-0.313,0.13l-4.704,4.704
	C5.251,10.122,5.205,10.233,5.205,10.352z"/>
</svg>
