<?xml version="1.0" encoding="utf-8"?>
<!-- Generator: Adobe Illustrator 26.0.2, SVG Export Plug-In . SVG Version: 6.00 Build 0)  -->
<svg version="1.1" id="Layer_1" xmlns="http://www.w3.org/2000/svg" xmlns:xlink="http://www.w3.org/1999/xlink" x="0px" y="0px"
	 viewBox="0 0 16 16" enable-background="new 0 0 16 16" xml:space="preserve">
<path d="M10.053,13.718c-0.081-0.088-0.123-0.2-0.118-0.318l0.36-8.753c0.01-0.245,0.236-0.429,0.484-0.433
	c0.128,0.005,0.245,0.058,0.331,0.15c0.081,0.088,0.123,0.201,0.119,0.318l-0.36,8.754c-0.01,0.243-0.215,0.433-0.467,0.433
	C10.256,13.864,10.139,13.811,10.053,13.718z M8,13.869c0.258,0,0.467-0.202,0.467-0.451V4.665c0-0.249-0.209-0.451-0.467-0.451
	S7.533,4.416,7.533,4.665v8.753C7.533,13.667,7.742,13.869,8,13.869z M5.615,13.869C5.615,13.869,5.615,13.869,5.615,13.869
	c0.129-0.005,0.246-0.058,0.332-0.15c0.081-0.088,0.123-0.2,0.118-0.318l-0.36-8.753C5.7,4.528,5.65,4.418,5.563,4.337
	C5.471,4.252,5.343,4.209,5.221,4.214c-0.128,0.005-0.245,0.058-0.33,0.15C4.809,4.451,4.767,4.565,4.772,4.683l0.36,8.753
	C5.142,13.678,5.346,13.869,5.615,13.869z M15.25,2.608c0,0.249-0.209,0.451-0.467,0.451h-0.66l-0.935,11.374
	C13.031,15.346,12.237,16,11.298,16H4.702c-0.938,0-1.731-0.643-1.885-1.528L1.877,3.059h-0.66c-0.258,0-0.467-0.202-0.467-0.451
	c0-0.249,0.209-0.451,0.467-0.451h4.055V1.829C5.272,0.82,6.129,0,7.183,0h1.634c1.054,0,1.911,0.82,1.911,1.829v0.328h4.055
	C15.041,2.157,15.25,2.359,15.25,2.608z M9.794,2.157V1.829c0-0.511-0.438-0.926-0.977-0.926H7.183
	c-0.539,0-0.977,0.415-0.977,0.926v0.328H9.794z M2.814,3.059l0.929,11.302c0.074,0.415,0.487,0.736,0.96,0.736h6.596
	c0.479,0,0.883-0.324,0.964-0.77l0.924-11.268H2.814z"/>
</svg>
