<?xml version="1.0" encoding="utf-8"?>
<!-- Generator: Adobe Illustrator 26.0.2, SVG Export Plug-In . SVG Version: 6.00 Build 0)  -->
<svg version="1.1" id="Layer_1" xmlns="http://www.w3.org/2000/svg" xmlns:xlink="http://www.w3.org/1999/xlink" x="0px" y="0px"
	 viewBox="0 0 16 16" style="enable-background:new 0 0 16 16;" xml:space="preserve">
<path d="M6.371,5.461L5.589,2.54C5.543,2.369,5.644,2.193,5.816,2.147c0.171-0.046,0.347,0.056,0.393,0.227l0.782,2.921
	C7.014,5.381,7,5.467,6.959,5.538C6.918,5.609,6.849,5.665,6.764,5.688C6.593,5.734,6.417,5.632,6.371,5.461z M9.236,10.354
	c-0.171,0.046-0.273,0.222-0.227,0.393l0.782,2.921c0.046,0.171,0.222,0.273,0.393,0.227c0.086-0.023,0.154-0.078,0.195-0.149
	s0.055-0.158,0.032-0.243L9.629,10.58C9.583,10.409,9.407,10.308,9.236,10.354z M5.843,6.353c0.125,0.125,0.328,0.125,0.453,0
	C6.359,6.291,6.39,6.208,6.39,6.126c0-0.082-0.031-0.164-0.094-0.227L4.159,3.761c-0.125-0.125-0.328-0.125-0.454,0
	c-0.125,0.125-0.125,0.328,0,0.454L5.843,6.353z M2.326,6.304l2.921,0.783C5.418,7.133,5.594,7.032,5.639,6.86
	c0.023-0.086,0.009-0.172-0.032-0.243C5.566,6.546,5.498,6.491,5.413,6.468l-2.92-0.783C2.321,5.639,2.145,5.74,2.099,5.912
	C2.054,6.083,2.155,6.258,2.326,6.304z M13.674,9.813L10.753,9.03c-0.171-0.046-0.347,0.056-0.393,0.227
	c-0.046,0.171,0.056,0.347,0.227,0.393l2.921,0.783c0.171,0.046,0.347-0.056,0.393-0.227c0.023-0.086,0.009-0.172-0.032-0.243
	C13.828,9.891,13.759,9.836,13.674,9.813z M10.149,9.715c-0.125-0.125-0.328-0.125-0.453,0c-0.125,0.125-0.125,0.328,0,0.454
	l2.138,2.138c0.125,0.125,0.328,0.125,0.453,0c0.063-0.063,0.094-0.145,0.094-0.227s-0.031-0.164-0.094-0.227L10.149,9.715z
	 M7.879,9.845C7.779,9.781,7.661,9.76,7.549,9.787c-0.239,0.049-0.393,0.284-0.344,0.524c0.135,0.653-0.063,1.321-0.53,1.788
	l-1.942,1.942c-0.739,0.739-2.034,0.738-2.773,0c-0.764-0.764-0.764-2.008,0-2.773l1.943-1.943c0.459-0.459,1.116-0.659,1.764-0.535
	c0.237,0.043,0.472-0.113,0.518-0.353c0.046-0.24-0.112-0.473-0.352-0.519c-0.937-0.181-1.89,0.112-2.557,0.779l-1.943,1.943
	c-1.11,1.11-1.11,2.917,0,4.028C1.868,15.205,2.584,15.5,3.346,15.5c0.763,0,1.478-0.295,2.014-0.831l1.943-1.943
	c0.679-0.678,0.967-1.649,0.772-2.595C8.05,10.013,7.979,9.909,7.879,9.845z M14.669,1.331C14.133,0.795,13.418,0.5,12.655,0.5
	s-1.478,0.295-2.014,0.831L8.699,3.274C8.02,3.953,7.732,4.924,7.927,5.869C7.951,5.987,8.02,6.088,8.121,6.153
	c0.099,0.064,0.216,0.085,0.33,0.061c0.24-0.049,0.394-0.284,0.345-0.524C8.661,5.037,8.86,4.368,9.327,3.901l1.943-1.942
	c0.351-0.35,0.856-0.551,1.386-0.551c0,0,0,0,0.001,0c0.53,0,1.035,0.201,1.385,0.551c0.37,0.37,0.573,0.862,0.573,1.386
	c0,0.524-0.204,1.017-0.573,1.387l-1.942,1.943c-0.46,0.46-1.12,0.661-1.764,0.535C10.1,7.165,9.864,7.323,9.817,7.562
	c-0.046,0.24,0.112,0.473,0.352,0.519c0.179,0.035,0.362,0.052,0.545,0.052c0.761,0,1.476-0.295,2.012-0.832l1.942-1.943
	C15.205,4.823,15.5,4.108,15.5,3.345C15.5,2.583,15.205,1.868,14.669,1.331z"/>
</svg>
