<?xml version="1.0" encoding="utf-8"?>
<!-- Generator: Adobe Illustrator 26.0.2, SVG Export Plug-In . SVG Version: 6.00 Build 0)  -->
<svg version="1.1" id="Layer_1" xmlns="http://www.w3.org/2000/svg" xmlns:xlink="http://www.w3.org/1999/xlink" x="0px" y="0px"
	 viewBox="0 0 16 16" enable-background="new 0 0 16 16" xml:space="preserve">
<path d="M14.302,2H1.699C0.762,2,0,2.764,0,3.704v8.592C0,13.236,0.762,14,1.699,14h12.603
	C15.238,14,16,13.236,16,12.296V3.704C16,2.764,15.238,2,14.302,2z M15.124,11.936v0.36c0,0.454-0.369,0.823-0.822,0.823H1.699
	c-0.453,0-0.822-0.369-0.822-0.823v-0.36H15.124z M15.124,9.999v1.057H0.876V9.999H15.124z M15.124,3.704v5.414H0.876V3.704
	c0-0.454,0.369-0.823,0.822-0.823h12.603C14.755,2.881,15.124,3.25,15.124,3.704z"/>
</svg>
