<?xml version="1.0" standalone="no"?>
<!DOCTYPE svg PUBLIC "-//W3C//DTD SVG 20010904//EN"
 "http://www.w3.org/TR/2001/REC-SVG-20010904/DTD/svg10.dtd">
<svg version="1.0" xmlns="http://www.w3.org/2000/svg"
 width="480.000000pt" height="480.000000pt" viewBox="0 0 480.000000 480.000000"
 preserveAspectRatio="xMidYMid meet">
<metadata>
Created by potrace 1.14, written by Peter Selinger 2001-2017
</metadata>
<g transform="translate(0.000000,480.000000) scale(0.100000,-0.100000)"
fill="#000000" stroke="none">
<path d="M1780 4147 c-12 -51 -46 -193 -76 -317 -31 -124 -57 -234 -60 -245
-2 -11 -10 -47 -18 -80 -30 -119 -148 -612 -166 -686 l-17 -75 127 -32 c70
-18 136 -34 146 -36 10 -3 81 -21 157 -41 76 -20 146 -38 155 -40 45 -9 80
-30 115 -67 20 -23 37 -44 37 -47 1 -35 25 -28 216 65 109 53 240 116 289 139
98 46 333 159 795 382 85 42 205 99 265 128 61 29 178 85 260 125 83 39 230
111 328 158 l178 86 -1113 278 c-612 153 -1122 279 -1133 282 -30 6 -438 107
-452 111 -7 2 -19 -29 -33 -88z"/>
<path d="M1444 2629 c-16 -18 -15 -21 22 -62 68 -75 211 -231 241 -263 69 -75
213 -231 230 -250 20 -24 175 -193 213 -234 40 -44 101 -110 170 -185 35 -38
109 -119 164 -179 56 -60 109 -118 119 -130 10 -11 60 -66 110 -120 51 -55
119 -130 152 -166 58 -64 79 -86 203 -222 34 -37 62 -65 62 -62 0 4 -87 314
-135 479 -18 63 -227 807 -265 940 -83 299 -106 375 -112 375 -4 0 -67 -29
-140 -64 -182 -87 -372 -178 -380 -183 -4 -2 -1 9 7 24 25 47 -2 140 -47 164
-13 7 -38 16 -58 21 -19 5 -42 10 -50 13 -141 37 -381 97 -400 101 -14 3 -34
8 -45 11 -36 12 -44 11 -61 -8z"/>
<path d="M1585 2149 c-49 -28 -133 -73 -185 -101 -52 -28 -99 -54 -105 -58 -5
-4 -89 -50 -185 -102 -96 -53 -195 -107 -220 -120 -25 -14 -166 -92 -315 -173
-148 -81 -272 -150 -275 -152 -2 -2 1 -12 6 -21 9 -14 107 -48 269 -92 17 -4
154 -45 305 -90 151 -45 289 -85 305 -90 17 -4 107 -30 200 -58 378 -112 772
-228 975 -287 469 -138 766 -226 793 -235 15 -5 27 -8 27 -6 0 4 -29 37 -78
91 -68 74 -247 269 -262 285 -16 18 -192 210 -225 246 -11 12 -57 62 -101 110
-45 49 -92 101 -105 115 -25 27 -207 224 -224 243 -5 6 -55 60 -110 121 -55
60 -107 116 -115 125 -74 80 -205 223 -235 258 -21 23 -40 42 -44 42 -3 -1
-46 -24 -96 -51z"/>
</g>
</svg>
