<?xml version="1.0" encoding="utf-8"?>
<!-- Generator: Adobe Illustrator 26.0.2, SVG Export Plug-In . SVG Version: 6.00 Build 0)  -->
<svg version="1.1" id="Layer_1" xmlns="http://www.w3.org/2000/svg" xmlns:xlink="http://www.w3.org/1999/xlink" x="0px" y="0px"
	 viewBox="0 0 32 32" enable-background="new 0 0 32 32" xml:space="preserve">
<path d="M24.517,7.653c0,0.386-0.31,0.698-0.692,0.698H7.715c-0.383,0-0.692-0.312-0.692-0.698c0-0.386,0.31-0.698,0.692-0.698
	h16.109C24.207,6.956,24.517,7.268,24.517,7.653z M20.717,11.129H7.715c-0.383,0-0.692,0.312-0.692,0.698
	c0,0.386,0.31,0.698,0.692,0.698h13.002c0.383,0,0.692-0.312,0.692-0.698C21.41,11.441,21.1,11.129,20.717,11.129z M7.715,16.698
	h7.754c0.383,0,0.692-0.312,0.692-0.698c0-0.386-0.31-0.698-0.692-0.698H7.715c-0.383,0-0.692,0.312-0.692,0.698
	C7.023,16.386,7.333,16.698,7.715,16.698z M18.575,19.476H7.715c-0.383,0-0.692,0.312-0.692,0.698c0,0.386,0.31,0.698,0.692,0.698
	h10.86c0.383,0,0.692-0.312,0.692-0.698C19.268,19.788,18.958,19.476,18.575,19.476z M13.263,23.649H7.715
	c-0.383,0-0.692,0.312-0.692,0.698c0,0.386,0.31,0.698,0.692,0.698h5.547c0.383,0,0.692-0.312,0.692-0.698
	C13.955,23.961,13.645,23.649,13.263,23.649z M30.5,3.48v25.04c0,1.918-1.55,3.48-3.455,3.48H4.954C3.049,32,1.5,30.439,1.5,28.52
	V3.48C1.5,1.561,3.049,0,4.954,0h22.092C28.95,0,30.5,1.561,30.5,3.48z M29.115,3.48c0-1.15-0.928-2.085-2.07-2.085H4.954
	c-1.141,0-2.069,0.935-2.069,2.085v25.04c0,1.15,0.928,2.085,2.069,2.085h22.092c1.141,0,2.07-0.935,2.07-2.085V3.48z"/>
</svg>
