<?xml version="1.0" encoding="utf-8"?>
<!-- Generator: Adobe Illustrator 26.0.2, SVG Export Plug-In . SVG Version: 6.00 Build 0)  -->
<svg version="1.1" id="Layer_1" xmlns="http://www.w3.org/2000/svg" xmlns:xlink="http://www.w3.org/1999/xlink" x="0px" y="0px"
	 viewBox="0 0 32 32" enable-background="new 0 0 32 32" xml:space="preserve">
<path d="M24.766,24.313c0.001,0.385-0.308,0.697-0.69,0.698L7.999,25.048c-0.382,0.001-0.692-0.31-0.693-0.695
	c-0.001-0.385,0.307-0.697,0.689-0.698l16.077-0.037C24.455,23.617,24.765,23.928,24.766,24.313z M30.5,28.467
	c0.004,1.915-1.538,3.478-3.439,3.482L5.012,32c-1.901,0.004-3.451-1.551-3.456-3.466l-0.057-25C1.496,1.618,3.039,0.055,4.94,0.051
	L26.988,0c1.901-0.004,3.451,1.551,3.455,3.466L30.5,28.467z M29.118,28.47l-0.057-25c-0.003-1.148-0.931-2.079-2.07-2.077
	L4.943,1.444C3.804,1.447,2.88,2.382,2.882,3.53l0.057,25c0.003,1.148,0.931,2.079,2.07,2.077l22.048-0.051
	C28.196,30.553,29.12,29.618,29.118,28.47z M7.99,20.882l16.077-0.037c0.382-0.001,0.69-0.313,0.69-0.698
	c-0.001-0.385-0.311-0.696-0.693-0.695L7.987,19.489c-0.382,0.001-0.69,0.313-0.689,0.698C7.298,20.572,7.608,20.883,7.99,20.882z"
	/>
</svg>
