<?xml version="1.0" encoding="utf-8"?>
<!-- Generator: Adobe Illustrator 26.0.2, SVG Export Plug-In . SVG Version: 6.00 Build 0)  -->
<svg version="1.1" id="Layer_1" xmlns="http://www.w3.org/2000/svg" xmlns:xlink="http://www.w3.org/1999/xlink" x="0px" y="0px"
	 viewBox="0 0 32 32" enable-background="new 0 0 32 32" xml:space="preserve">
<path d="M24.977,7.653c0,0.386-0.31,0.698-0.692,0.698H8.176c-0.383,0-0.692-0.312-0.692-0.698c0-0.386,0.31-0.698,0.692-0.698
	h16.109C24.667,6.956,24.977,7.268,24.977,7.653z M24.285,11.129H11.283c-0.383,0-0.692,0.312-0.692,0.698
	c0,0.386,0.31,0.698,0.692,0.698h13.002c0.383,0,0.692-0.312,0.692-0.698C24.977,11.441,24.667,11.129,24.285,11.129z
	 M24.285,15.302h-7.754c-0.383,0-0.692,0.312-0.692,0.698c0,0.386,0.31,0.698,0.692,0.698h7.754c0.383,0,0.692-0.312,0.692-0.698
	C24.977,15.614,24.667,15.302,24.285,15.302z M24.285,19.476h-10.86c-0.383,0-0.692,0.312-0.692,0.698
	c0,0.386,0.31,0.698,0.692,0.698h10.86c0.383,0,0.692-0.312,0.692-0.698C24.977,19.788,24.667,19.476,24.285,19.476z M24.285,23.649
	h-5.547c-0.383,0-0.692,0.312-0.692,0.698c0,0.386,0.31,0.698,0.692,0.698h5.547c0.383,0,0.692-0.312,0.692-0.698
	C24.977,23.961,24.667,23.649,24.285,23.649z M30.5,3.48v25.04c0,1.918-1.549,3.48-3.454,3.48H4.955C3.05,32,1.5,30.439,1.5,28.52
	V3.48C1.5,1.561,3.05,0,4.955,0h22.092C28.951,0,30.5,1.561,30.5,3.48z M29.115,3.48c0-1.15-0.928-2.085-2.069-2.085H4.955
	c-1.141,0-2.07,0.935-2.07,2.085v25.04c0,1.15,0.928,2.085,2.07,2.085h22.092c1.141,0,2.069-0.935,2.069-2.085V3.48z"/>
</svg>
