<?xml version="1.0" encoding="utf-8"?>
<!-- Generator: Adobe Illustrator 26.0.2, SVG Export Plug-In . SVG Version: 6.00 Build 0)  -->
<svg version="1.1" id="Layer_1" xmlns="http://www.w3.org/2000/svg" xmlns:xlink="http://www.w3.org/1999/xlink" x="0px" y="0px"
	 viewBox="0 0 32 32" enable-background="new 0 0 32 32" xml:space="preserve">
<path d="M22.5,16c0,0.355-0.279,0.643-0.624,0.643H10.124C9.779,16.643,9.5,16.355,9.5,16s0.279-0.643,0.624-0.643h11.751
	C22.221,15.357,22.5,15.645,22.5,16z M10.124,12.786h11.751c0.345,0,0.624-0.288,0.624-0.643c0-0.355-0.279-0.643-0.624-0.643
	H10.124c-0.345,0-0.624,0.288-0.624,0.643C9.5,12.498,9.779,12.786,10.124,12.786z M21.876,19.214H10.124
	c-0.345,0-0.624,0.288-0.624,0.643S9.779,20.5,10.124,20.5h11.751c0.345,0,0.624-0.288,0.624-0.643S22.221,19.214,21.876,19.214z"/>
</svg>
