<?xml version="1.0" encoding="utf-8"?>
<!-- Generator: Adobe Illustrator 26.0.2, SVG Export Plug-In . SVG Version: 6.00 Build 0)  -->
<svg version="1.1" id="Layer_1" xmlns="http://www.w3.org/2000/svg" xmlns:xlink="http://www.w3.org/1999/xlink" x="0px" y="0px"
	 viewBox="0 0 32 32" enable-background="new 0 0 32 32" xml:space="preserve">
<path d="M20.596,11.404c0.244,0.244,0.244,0.639,0,0.883L16.883,16l3.713,3.713c0.244,0.244,0.244,0.639,0,0.883
	c-0.244,0.244-0.639,0.244-0.883,0L16,16.883l-3.714,3.714c-0.244,0.244-0.639,0.244-0.883,0c-0.244-0.244-0.244-0.639,0-0.883
	L15.117,16l-3.713-3.713c-0.244-0.244-0.244-0.639,0-0.883c0.244-0.244,0.639-0.244,0.883,0L16,15.117l3.713-3.713
	C19.957,11.16,20.352,11.16,20.596,11.404z"/>
</svg>
