<?xml version="1.0" encoding="utf-8"?>
<!-- Generator: Adobe Illustrator 26.0.2, SVG Export Plug-In . SVG Version: 6.00 Build 0)  -->
<svg version="1.1" id="Layer_1" xmlns="http://www.w3.org/2000/svg" xmlns:xlink="http://www.w3.org/1999/xlink" x="0px" y="0px"
	 viewBox="0 0 32 32" enable-background="new 0 0 32 32" xml:space="preserve">
<path d="M16.278,18.944c0.088-0.037,0.167-0.09,0.233-0.157l4.527-4.549c0.282-0.283,0.282-0.742,0-1.025
	c-0.282-0.283-0.739-0.283-1.021,0l-3.296,3.312l-0.211,0.164c-0.066,0.067-0.145,0.12-0.233,0.157
	c-0.087,0.037-0.181,0.056-0.278,0.056s-0.191-0.02-0.278-0.056c-0.088-0.037-0.167-0.09-0.233-0.157l-0.211-0.164l-3.297-3.312
	c-0.282-0.283-0.739-0.283-1.021,0c-0.141,0.142-0.211,0.327-0.211,0.513c0,0.186,0.07,0.371,0.211,0.513l4.528,4.549
	c0.066,0.067,0.145,0.12,0.233,0.157C15.81,18.98,15.904,19,16.001,19S16.191,18.98,16.278,18.944z"/>
</svg>
