<?xml version="1.0" encoding="utf-8"?>
<!-- Generator: Adobe Illustrator 26.0.2, SVG Export Plug-In . SVG Version: 6.00 Build 0)  -->
<svg version="1.1" id="Layer_1" xmlns="http://www.w3.org/2000/svg" xmlns:xlink="http://www.w3.org/1999/xlink" x="0px" y="0px"
	 viewBox="0 0 32 32" enable-background="new 0 0 32 32" xml:space="preserve">
<path d="M13.056,16.278c0.037,0.088,0.09,0.167,0.157,0.233l4.549,4.527c0.283,0.282,0.742,0.282,1.025,0
	c0.283-0.282,0.283-0.739,0-1.021l-3.312-3.296l-0.164-0.211c-0.067-0.066-0.12-0.145-0.157-0.233
	c-0.037-0.087-0.056-0.181-0.056-0.278s0.02-0.191,0.056-0.278c0.037-0.088,0.09-0.167,0.157-0.233l0.164-0.211l3.312-3.297
	c0.283-0.282,0.283-0.739,0-1.021c-0.142-0.141-0.327-0.211-0.513-0.211c-0.186,0-0.371,0.07-0.513,0.211l-4.549,4.528
	c-0.067,0.066-0.12,0.145-0.157,0.233C13.02,15.81,13,15.904,13,16.001S13.02,16.191,13.056,16.278z"/>
</svg>
