<?xml version="1.0" encoding="utf-8"?>
<!-- Generator: Adobe Illustrator 26.0.2, SVG Export Plug-In . SVG Version: 6.00 Build 0)  -->
<svg version="1.1" id="Layer_1" xmlns="http://www.w3.org/2000/svg" xmlns:xlink="http://www.w3.org/1999/xlink" x="0px" y="0px"
	 viewBox="0 0 32 32" enable-background="new 0 0 32 32" xml:space="preserve">
<path d="M31.967,15.801l-2.528-7.439c-0.006-0.019-0.021-0.031-0.029-0.049c-0.009-0.021-0.01-0.043-0.021-0.062l-0.002-0.002
	l0-0.001c-0.017-0.03-0.044-0.052-0.062-0.081c-0.006-0.007-0.011-0.015-0.017-0.023c-0.321-0.514-0.753-0.952-1.278-1.255
	L17.856,0.998c-0.568-0.328-1.205-0.492-1.841-0.495C16.009,0.503,16.005,0.5,16,0.5c-0.005,0-0.01,0.003-0.015,0.003
	c-0.637,0.002-1.273,0.166-1.841,0.496L3.967,6.889C3.441,7.194,3.009,7.634,2.688,8.147C2.685,8.151,2.682,8.155,2.679,8.159
	c-0.02,0.033-0.051,0.058-0.07,0.091C2.597,8.272,2.596,8.296,2.586,8.318C2.58,8.334,2.567,8.345,2.561,8.362l-2.528,7.439
	c-0.095,0.28,0.021,0.589,0.276,0.736l1.803,1.044v4.31c0,1.325,0.711,2.56,1.856,3.222l10.176,5.889
	C14.716,31.334,15.358,31.5,16,31.5s1.283-0.166,1.856-0.498l10.175-5.889c1.145-0.662,1.856-1.898,1.856-3.222v-4.309l1.804-1.044
	C31.946,16.389,32.062,16.081,31.967,15.801z M27.413,7.963c0.194,0.112,0.37,0.252,0.526,0.411l-8.801,5.094l-1.282-0.742
	c-0.387-0.224-0.809-0.344-1.238-0.417V1.821c0.214,0.055,0.423,0.137,0.619,0.25L27.413,7.963z M16,15.285l-1.902-1.1l0.664-0.384
	c0.763-0.441,1.711-0.441,2.475,0l0.664,0.384L16,15.285z M4.587,7.962l10.176-5.889c0.196-0.114,0.405-0.196,0.619-0.251V12.31
	c-0.429,0.073-0.851,0.192-1.238,0.416l-1.283,0.742l-8.8-5.093C4.216,8.216,4.392,8.075,4.587,7.962z M3.489,9.475l11.762,6.807
	l-2.121,6.244L1.368,15.718L3.489,9.475z M4.587,24.04c-0.763-0.443-1.238-1.267-1.238-2.149v-3.594l9.814,5.681
	c0.095,0.056,0.202,0.084,0.309,0.084c0.074,0,0.147-0.013,0.217-0.04c0.173-0.065,0.309-0.205,0.368-0.38l1.324-3.897V30.18
	c-0.214-0.055-0.423-0.137-0.619-0.25L4.587,24.04z M28.65,21.891c0,0.883-0.474,1.706-1.238,2.149l-10.175,5.889
	c-0.196,0.113-0.405,0.195-0.619,0.25V19.744l1.324,3.897c0.059,0.176,0.194,0.315,0.368,0.38c0.07,0.027,0.144,0.04,0.217,0.04
	c0.108,0,0.214-0.028,0.309-0.084l9.813-5.68V21.891z M18.87,22.527l-2.121-6.244l2.693-1.559h0l9.069-5.249l2.121,6.244
	L18.87,22.527z"/>
</svg>
