<?xml version="1.0" encoding="utf-8"?>
<!-- Generator: Adobe Illustrator 26.0.2, SVG Export Plug-In . SVG Version: 6.00 Build 0)  -->
<svg version="1.1" id="Layer_1" xmlns="http://www.w3.org/2000/svg" xmlns:xlink="http://www.w3.org/1999/xlink" x="0px" y="0px"
	 viewBox="0 0 32 32" enable-background="new 0 0 32 32" xml:space="preserve">
<path d="M16.092,3.5C5.592,3.5,0,10.255,0,15.132c0,7.376,6.737,11.606,12.507,12.987c1.131,0.271,2.1,0.381,2.929,0.381
	c1.836,0,2.988-0.544,3.684-1.099c1.082-0.864,1.65-2.202,1.601-3.766c-0.037-1.153,0.161-1.963,0.573-2.341
	c0.386-0.357,0.986-0.352,1.577-0.294c0.109,0.01,0.271,0.034,0.471,0.064c1.566,0.226,5.227,0.76,7.273-0.976
	c0.919-0.781,1.385-1.9,1.385-3.329C32,10.373,27.022,3.5,16.092,3.5z M29.779,19.134c-1.603,1.359-4.859,0.886-6.249,0.684
	c-0.227-0.033-0.409-0.06-0.534-0.071c-0.513-0.05-1.715-0.165-2.576,0.628c-0.708,0.651-1.028,1.73-0.978,3.3
	c0.026,0.823-0.147,1.967-1.127,2.749c-1.128,0.901-3.031,1.065-5.505,0.473C7.491,25.623,1.28,21.778,1.28,15.132
	c0-4.239,5.274-10.373,14.812-10.373c10.051,0,14.628,6.22,14.628,11.999C30.72,17.819,30.412,18.596,29.779,19.134z M22.082,7.248
	c-1.94,0-3.518,1.533-3.518,3.417c0,1.884,1.578,3.417,3.518,3.417c1.94,0,3.518-1.533,3.518-3.417
	C25.6,8.781,24.022,7.248,22.082,7.248z M22.082,12.822c-1.234,0-2.238-0.968-2.238-2.157c0-1.19,1.004-2.157,2.238-2.157
	s2.238,0.968,2.238,2.157C24.32,11.854,23.316,12.822,22.082,12.822z M14.087,10.994c1.411,0,2.559-1.116,2.559-2.488
	c0-1.372-1.148-2.488-2.559-2.488c-1.411,0-2.558,1.116-2.558,2.488C11.529,9.878,12.677,10.994,14.087,10.994z M14.087,7.277
	c0.705,0,1.279,0.551,1.279,1.229c0,0.678-0.574,1.228-1.279,1.228c-0.705,0-1.278-0.551-1.278-1.228
	C12.809,7.829,13.382,7.277,14.087,7.277z M15.366,15.94c-2.469,0-4.477,1.533-4.477,3.417s2.008,3.417,4.477,3.417
	s4.478-1.533,4.478-3.417S17.835,15.94,15.366,15.94z M15.366,21.514c-1.733,0-3.197-0.988-3.197-2.157
	c0-1.169,1.464-2.157,3.197-2.157c1.733,0,3.198,0.988,3.198,2.157C18.564,20.526,17.099,21.514,15.366,21.514z M4.814,15.296
	c-0.89,0-1.614,0.705-1.614,1.572c0,0.867,0.724,1.572,1.614,1.572c0.89,0,1.614-0.705,1.614-1.572
	C6.427,16.001,5.704,15.296,4.814,15.296z M4.814,17.181c-0.184,0-0.334-0.14-0.334-0.313c0-0.173,0.15-0.313,0.334-0.313
	c0.184,0,0.334,0.14,0.334,0.313C5.147,17.041,4.998,17.181,4.814,17.181z M7.692,9.105c-1.411,0-2.559,1.116-2.559,2.488
	c0,1.372,1.148,2.488,2.559,2.488s2.559-1.116,2.559-2.488C10.251,10.221,9.103,9.105,7.692,9.105z M7.692,12.822
	c-0.705,0-1.279-0.551-1.279-1.228s0.574-1.229,1.279-1.229c0.705,0,1.279,0.552,1.279,1.229S8.397,12.822,7.692,12.822z"/>
</svg>
