<?xml version="1.0" encoding="utf-8"?>
<!-- Generator: Adobe Illustrator 26.0.2, SVG Export Plug-In . SVG Version: 6.00 Build 0)  -->
<svg version="1.1" id="Layer_1" xmlns="http://www.w3.org/2000/svg" xmlns:xlink="http://www.w3.org/1999/xlink" x="0px" y="0px"
	 viewBox="0 0 32 32" enable-background="new 0 0 32 32" xml:space="preserve">
<path d="M0.667,6.599H3.9c0.321,2.145,2.177,3.801,4.434,3.801c2.256,0,4.113-1.656,4.434-3.801h18.566
	C31.702,6.599,32,6.305,32,5.94s-0.298-0.659-0.667-0.659H12.765C12.435,3.146,10.583,1.5,8.333,1.5
	c-2.249,0-4.102,1.646-4.432,3.781H0.667C0.298,5.281,0,5.576,0,5.94S0.298,6.599,0.667,6.599z M8.333,2.819
	c1.746,0,3.167,1.405,3.167,3.132s-1.421,3.132-3.167,3.132S5.167,7.677,5.167,5.95S6.587,2.819,8.333,2.819z M31.333,15.336H20.432
	c-0.325-2.14-2.18-3.791-4.432-3.791c-2.253,0-4.107,1.651-4.433,3.791H0.667C0.298,15.336,0,15.63,0,15.995
	c0,0.364,0.298,0.659,0.667,0.659h10.901c0.325,2.14,2.18,3.791,4.433,3.791c2.253,0,4.107-1.651,4.432-3.791h10.901
	c0.369,0,0.667-0.295,0.667-0.659C32,15.63,31.702,15.336,31.333,15.336z M16,19.127c-1.746,0-3.167-1.405-3.167-3.132
	s1.421-3.132,3.167-3.132s3.167,1.405,3.167,3.132S17.746,19.127,16,19.127z M31.333,25.39h-3.234
	c-0.325-2.14-2.18-3.791-4.432-3.791c-2.253,0-4.107,1.651-4.433,3.791H0.667C0.298,25.39,0,25.685,0,26.05s0.298,0.659,0.667,0.659
	h18.567c0.325,2.14,2.18,3.791,4.433,3.791c2.253,0,4.107-1.651,4.432-3.791h3.234c0.369,0,0.667-0.295,0.667-0.659
	S31.702,25.39,31.333,25.39z M23.667,29.181c-1.746,0-3.167-1.405-3.167-3.132s1.421-3.132,3.167-3.132s3.167,1.405,3.167,3.132
	S25.413,29.181,23.667,29.181z"/>
</svg>
