<?xml version="1.0" encoding="utf-8"?>
<!-- Generator: Adobe Illustrator 26.0.2, SVG Export Plug-In . SVG Version: 6.00 Build 0)  -->
<svg version="1.1" id="Layer_1" xmlns="http://www.w3.org/2000/svg" xmlns:xlink="http://www.w3.org/1999/xlink" x="0px" y="0px"
	 viewBox="0 0 32 32" enable-background="new 0 0 32 32" xml:space="preserve">
<path d="M29.199,2.804C28.035,1.641,26.489,1,24.843,1c-1.645,0-3.192,0.641-4.356,1.804L19.091,4.2
	c-0.002,0.002-0.003,0.003-0.005,0.005L2.961,20.327c-0.082,0.081-0.13,0.188-0.16,0.303c-0.004,0.015-0.018,0.025-0.021,0.04
	l-1.769,9.558c-0.039,0.211,0.029,0.428,0.18,0.58C1.315,30.932,1.481,31,1.652,31c0.039,0,0.079-0.004,0.118-0.011l9.559-1.769
	c0.014-0.003,0.024-0.017,0.038-0.02c0.116-0.029,0.223-0.078,0.305-0.16l17.526-17.524C31.6,9.113,31.6,5.206,29.199,2.804z
	 M4.864,20.27L19.807,5.329c3.729,0.134,6.733,3.137,6.866,6.868l-14.943,14.94C11.125,23.638,8.363,20.876,4.864,20.27z
	 M3.959,21.469c3.506,0.263,6.309,3.065,6.572,6.572l-8.065,1.494L3.959,21.469z M27.858,11.011
	c-0.606-3.499-3.368-6.261-6.867-6.867l0.418-0.418c1.834-1.836,5.033-1.834,6.867,0c1.893,1.893,1.893,4.974,0,6.867L27.858,11.011
	z"/>
</svg>
