<?xml version="1.0" encoding="utf-8"?>
<!-- Generator: Adobe Illustrator 26.0.2, SVG Export Plug-In . SVG Version: 6.00 Build 0)  -->
<svg version="1.1" id="Layer_1" xmlns="http://www.w3.org/2000/svg" xmlns:xlink="http://www.w3.org/1999/xlink" x="0px" y="0px"
	 viewBox="0 0 32 32" enable-background="new 0 0 32 32" xml:space="preserve">
<path d="M30.302,7.009L23.39,0.195C23.263,0.07,23.091,0,22.912,0H11.3C9.707,0,8.412,1.277,8.412,2.848v3.967H4.388
	C2.796,6.815,1.5,8.092,1.5,9.661v19.491C1.5,30.723,2.796,32,4.388,32H20.7c1.592,0,2.888-1.277,2.888-2.848v-3.967h4.024
	c1.593,0,2.888-1.277,2.888-2.848V7.48C30.5,7.303,30.429,7.134,30.302,7.009z M23.588,2.276l4.603,4.538h-4.603V2.276z
	 M22.235,29.152c0,0.835-0.689,1.514-1.535,1.514H4.388c-0.847,0-1.535-0.68-1.535-1.514V9.661c0-0.835,0.689-1.513,1.535-1.513
	h10.936v6.147c0,0.368,0.302,0.667,0.676,0.667h6.236V29.152z M16.676,9.091l4.603,4.538h-4.603V9.091z M27.612,23.852h-4.024
	v-9.556c0-0.177-0.071-0.346-0.198-0.471L16.477,7.01c-0.127-0.125-0.298-0.195-0.478-0.195H9.764V2.848
	c0-0.835,0.689-1.514,1.536-1.514h10.936V7.48c0,0.368,0.302,0.667,0.676,0.667h6.236v14.19
	C29.148,23.172,28.459,23.852,27.612,23.852z"/>
</svg>
