<?xml version="1.0" encoding="utf-8"?>
<!-- Generator: Adobe Illustrator 26.0.2, SVG Export Plug-In . SVG Version: 6.00 Build 0)  -->
<svg version="1.1" id="Layer_1" xmlns="http://www.w3.org/2000/svg" xmlns:xlink="http://www.w3.org/1999/xlink" x="0px" y="0px"
	 viewBox="0 0 32 32" enable-background="new 0 0 32 32" xml:space="preserve">
<path d="M31.867,13.518l-3.311-4.974l1.646-5.783c0.077-0.271,0.001-0.563-0.198-0.76c-0.196-0.197-0.486-0.273-0.762-0.195
	l-5.746,1.686l-4.967-3.36c-0.232-0.157-0.541-0.174-0.781-0.048c-0.25,0.129-0.412,0.384-0.422,0.667l-0.178,6.013l-4.717,3.706
	c-0.221,0.173-0.33,0.454-0.286,0.733c0.045,0.279,0.237,0.511,0.502,0.605l4.76,1.714l-0.448,0.347L0.226,30.685
	C0.08,30.832,0,31.026,0,31.232c0,0.207,0.08,0.401,0.226,0.547C0.366,31.919,0.564,32,0.771,32c0,0,0,0,0,0
	c0.207,0,0.406-0.081,0.545-0.221L18.078,14.94c0.036-0.034,0.063-0.082,0.099-0.145l0.263-0.476l1.897,5.171
	c0.097,0.265,0.33,0.457,0.616,0.501c0.374,0.039,0.599-0.138,0.719-0.294l3.662-4.758l5.922-0.213
	c0.28-0.01,0.534-0.172,0.663-0.425C32.044,14.049,32.024,13.749,31.867,13.518z M27.076,9.119l2.791,4.11l-4.949,0.176
	c-0.229,0.008-0.442,0.117-0.584,0.3l-3.028,3.934l-1.696-4.672c-0.078-0.217-0.247-0.385-0.464-0.463l-4.662-1.679l3.901-3.065
	c0.181-0.142,0.289-0.356,0.296-0.586l0.147-4.972l4.105,2.777c0.186,0.128,0.428,0.167,0.649,0.104l4.752-1.395l-1.362,4.783
	C26.909,8.689,26.947,8.925,27.076,9.119z"/>
</svg>
