<?xml version="1.0" encoding="utf-8"?>
<!-- Generator: Adobe Illustrator 26.0.2, SVG Export Plug-In . SVG Version: 6.00 Build 0)  -->
<svg version="1.1" id="Layer_1" xmlns="http://www.w3.org/2000/svg" xmlns:xlink="http://www.w3.org/1999/xlink" x="0px" y="0px"
	 viewBox="0 0 32 32" enable-background="new 0 0 32 32" xml:space="preserve">
<path d="M28.8,5.961H15.561C15.246,3.728,13.36,2,11.064,2H8.356C6.067,2,4.187,3.716,3.863,5.938v0.022H3.2
	C1.436,5.961,0,7.409,0,9.192v17.577C0,28.551,1.436,30,3.2,30h25.6c1.764,0,3.2-1.449,3.2-3.231V9.192
	C32,7.409,30.564,5.961,28.8,5.961z M30.72,26.769c0,1.069-0.861,1.939-1.92,1.939H3.2c-1.059,0-1.92-0.87-1.92-1.939V9.192
	c0-1.069,0.861-1.939,1.92-1.939h0.663H5.14l0.002-1.292l0-0.022C5.449,4.43,6.773,3.292,8.356,3.292h2.708
	c1.582,0,2.903,1.138,3.211,2.646l0,0.022l0.002,1.292h1.284H28.8c1.059,0,1.92,0.87,1.92,1.939V26.769z"/>
</svg>
