<?xml version="1.0" encoding="utf-8"?>
<!-- Generator: Adobe Illustrator 26.0.2, SVG Export Plug-In . SVG Version: 6.00 Build 0)  -->
<svg version="1.1" id="Layer_1" xmlns="http://www.w3.org/2000/svg" xmlns:xlink="http://www.w3.org/1999/xlink" x="0px" y="0px"
	 viewBox="0 0 32 32" enable-background="new 0 0 32 32" xml:space="preserve">
<path d="M32,7.479l-0.065,0.138L14.261,16.12l-0.172-0.492l-0.373-0.469c-0.051-0.045-0.083-0.07-0.202-0.134
	c-0.143-0.057-3.898-1.005-4.981-1.274l2.794-11.597l20.595,5.134L32,7.479z M12.966,18.642l-1.161-1.28l0.385-0.561
	c0.057-0.074,0.111-0.169,0.147-0.247c-0.415-0.123-1.642-0.459-2.74-0.755l11.665,12.746L17.812,16.31L12.966,18.642z
	 M0.048,23.374L0,23.536l0.028,0.187l0.193,0.243l0.116,0.058c0.028,0.003,1.199,0.347,18.446,5.424l1.351,0.397L9.479,18.209
	L0.048,23.374z"/>
</svg>
