<?xml version="1.0" encoding="utf-8"?>
<!-- Generator: Adobe Illustrator 26.0.2, SVG Export Plug-In . SVG Version: 6.00 Build 0)  -->
<svg version="1.1" id="Layer_1" xmlns="http://www.w3.org/2000/svg" xmlns:xlink="http://www.w3.org/1999/xlink" x="0px" y="0px"
	 viewBox="0 0 32 32" style="enable-background:new 0 0 32 32;" xml:space="preserve">
<path d="M9.781,17.332L21.577,30.25c-2.286-0.675-20.961-6.188-20.966-6.189l-0.073-0.03l-0.007-0.003l-0.108-0.062l-0.028-0.027
	l-0.033-0.025c0,0-0.001,0-0.001-0.001l-0.065-0.057c-0.004-0.004-0.008-0.008-0.013-0.013l-0.035-0.037
	c-0.005-0.006-0.011-0.012-0.017-0.019c-0.006-0.007-0.011-0.013-0.016-0.02l-0.059-0.081c-0.009-0.014-0.018-0.028-0.026-0.042
	l-0.005-0.008l-0.003-0.006C0.118,23.62,0.112,23.61,0.107,23.6l-0.075-0.191l-0.012-0.047l-0.001-0.006L0,23.204l0.013-0.208
	l0.003-0.005l0.013-0.065v-0.017l0.006-0.006l0.058-0.149l0.068-0.104l0.071-0.074l0.101-0.055L9.781,17.332z M32,7.549
	l-0.005-0.096l-0.057,0.008l0.052-0.014h0.003l0-0.001l0,0l-0.029-0.133l-0.055,0.014l0.045-0.018l0.008-0.002l0-0.001h0
	l-0.003-0.01c-0.002-0.007-0.005-0.013-0.007-0.019l-0.024-0.058c-0.006-0.012-0.012-0.025-0.017-0.035l-0.008-0.015
	c-0.004-0.008-0.008-0.015-0.013-0.023c-0.004-0.007-0.008-0.014-0.013-0.02l-0.01-0.015c-0.008-0.012-0.016-0.023-0.024-0.034
	l-0.001-0.006l-0.085-0.092l-0.122-0.097L11.103,1.75L11.09,1.806c-0.027,0.112-2.928,12.184-2.934,12.212l-0.024,0.189l0.106-0.106
	l0.002-0.002c0.009-0.009,0.058-0.049,0.161-0.049c0.012,0,0.024,0.001,0.037,0.002c0.004,0,0.008,0.001,0.012,0.002
	c0.029,0.005,4.862,1.235,4.954,1.272c0.013,0.009,0.027,0.019,0.051,0.041l0.009,0.008c0.021,0.018,0.04,0.037,0.056,0.053
	l0.007,0.007c0.018,0.019,0.036,0.039,0.054,0.06c0.018,0.021,0.034,0.043,0.051,0.066c0.015,0.022,0.046,0.071,0.049,0.076
	c0.012,0.02,0.024,0.041,0.034,0.061l0.005,0.009c0.012,0.024,0.024,0.048,0.034,0.073c0.01,0.024,0.02,0.049,0.029,0.074
	l0.001,0.003c0.008,0.024,0.015,0.048,0.022,0.071l0.002,0.006c0.006,0.024,0.012,0.049,0.017,0.073l0.001,0.006
	c0.005,0.025,0.008,0.05,0.011,0.075l0.001,0.006c0.003,0.025,0.004,0.049,0.005,0.073c0,0,0,0.051-0.002,0.076
	c0,0.003-0.005,0.051-0.008,0.074l-0.001,0.004c-0.004,0.023-0.009,0.045-0.014,0.066c-0.002,0.005-0.014,0.047-0.022,0.068
	c-0.011,0.028-0.024,0.054-0.038,0.079c-0.005,0.008-0.033,0.051-0.049,0.07c-0.008,0.01-0.016,0.019-0.025,0.028l-0.006,0.006
	c-0.007,0.006-0.013,0.013-0.02,0.019l-0.009,0.007c-0.007,0.005-0.013,0.011-0.024,0.018l-0.005,0.004
	c-0.01,0.007-0.019,0.013-0.027,0.017l0,0l0.05,0.103L31.69,8.098c0.01-0.006,0.02-0.012,0.03-0.018
	c0.01-0.006,0.019-0.013,0.028-0.019l0.02-0.016c0.003-0.002,0.005-0.004,0.007-0.005c0.009-0.007,0.018-0.015,0.026-0.023
	l0.021-0.021l-0.037-0.044l0.014,0.013l0.024,0.03l0.114-0.162l0-0.005l0,0l0.017-0.039l0,0l0.015-0.043l-0.055-0.016l0.049,0.007
	l0.001,0.001l0.001-0.001l0.007,0.001l0.003-0.011l0.006-0.006l0.013-0.086l-0.057-0.007l0.057,0.001l0.004-0.038l-0.057-0.004
	l0.057-0.003L32,7.549z M13.177,17.767l-0.614-0.678l0.086-0.136l0.028-0.044l0.013-0.008c0.107-0.134,0.33-0.489,0.295-0.73
	c-0.012-0.084-0.056-0.148-0.139-0.201l-0.013-0.008c-0.242-0.119-4.189-1.172-4.309-1.202l-0.097,0.097
	c0,0,13.068,14.319,13.717,15.03l-4.074-14.481L13.177,17.767z"/>
</svg>
