<?xml version="1.0" encoding="utf-8"?>
<!-- Generator: Adobe Illustrator 26.0.2, SVG Export Plug-In . SVG Version: 6.00 Build 0)  -->
<svg version="1.1" id="Layer_1" xmlns="http://www.w3.org/2000/svg" xmlns:xlink="http://www.w3.org/1999/xlink" x="0px" y="0px"
	 viewBox="0 0 32 32" enable-background="new 0 0 32 32" xml:space="preserve">
<path d="M28.8,2h-4.044H8.18H3.2C1.436,2,0,3.427,0,5.182v17.31c0,1.755,1.436,3.182,3.2,3.182h4.98h7.18v0.921v2.133H8.32
	c-0.354,0-0.64,0.285-0.64,0.636S7.966,30,8.32,30h15.36c0.354,0,0.64-0.285,0.64-0.636s-0.286-0.636-0.64-0.636h-7.04v-2.133
	v-0.921h8.116H28.8c1.764,0,3.2-1.427,3.2-3.182V5.182C32,3.427,30.564,2,28.8,2z M18.597,18.315h-5.835
	c-0.333,0-0.603-0.285-0.603-0.638s0.27-0.638,0.603-0.638h5.835c0.333,0,0.603,0.285,0.603,0.638S18.93,18.315,18.597,18.315z
	 M19.2,21.494c0,0.353-0.286,0.638-0.64,0.638H12.8c-0.354,0-0.64-0.285-0.64-0.638c0-0.353,0.286-0.638,0.64-0.638h5.761
	C18.914,20.856,19.2,21.141,19.2,21.494z M12.79,14.497c-0.348,0-0.63-0.285-0.63-0.638c0-0.353,0.282-0.638,0.63-0.638h7.059
	c0.348,0,0.63,0.285,0.63,0.638c0,0.353-0.282,0.638-0.63,0.638H12.79z M19.812,6.863h-6.983c-0.369,0-0.668-0.285-0.668-0.638
	c0-0.353,0.299-0.638,0.668-0.638h6.983c0.369,0,0.668,0.285,0.668,0.638C20.48,6.577,20.181,6.863,19.812,6.863z M3.2,24.401
	c-1.059,0-1.92-0.856-1.92-1.909V5.182c0-1.053,0.861-1.909,1.92-1.909h4.98h0.78v21.128H8.18H3.2z M30.72,22.492
	c0,1.053-0.861,1.909-1.92,1.909h-4.044H23.68V3.273h1.076H28.8c1.059,0,1.92,0.856,1.92,1.909V22.492z"/>
</svg>
