<?xml version="1.0" encoding="utf-8"?>
<!-- Generator: Adobe Illustrator 26.0.2, SVG Export Plug-In . SVG Version: 6.00 Build 0)  -->
<svg version="1.1" id="Layer_1" xmlns="http://www.w3.org/2000/svg" xmlns:xlink="http://www.w3.org/1999/xlink" x="0px" y="0px"
	 viewBox="0 0 32 32" enable-background="new 0 0 32 32" xml:space="preserve">
<path d="M28.8,2H15.078H3.2C1.436,2,0,3.427,0,5.182v17.31c0,1.755,1.436,3.182,3.2,3.182h11.878h0.282v3.054H8.32
	c-0.354,0-0.64,0.285-0.64,0.636S7.966,30,8.32,30h15.36c0.354,0,0.64-0.285,0.64-0.636s-0.286-0.636-0.64-0.636h-7.04v-3.054H28.8
	c1.764,0,3.2-1.427,3.2-3.182V5.182C32,3.427,30.564,2,28.8,2z M3.868,5.586h6.983c0.369,0,0.668,0.285,0.668,0.638
	s-0.299,0.638-0.668,0.638H3.868C3.499,6.863,3.2,6.577,3.2,6.224S3.499,5.586,3.868,5.586z M3.83,14.497
	c-0.348,0-0.63-0.285-0.63-0.638c0-0.353,0.282-0.638,0.63-0.638h7.059c0.348,0,0.63,0.285,0.63,0.638
	c0,0.353-0.282,0.638-0.63,0.638H3.83z M10.24,17.676c0,0.353-0.27,0.638-0.603,0.638H3.803c-0.333,0-0.603-0.285-0.603-0.638
	c0-0.353,0.27-0.638,0.603-0.638h5.835C9.97,17.038,10.24,17.324,10.24,17.676z M3.84,20.856H9.6c0.354,0,0.64,0.285,0.64,0.638
	s-0.286,0.638-0.64,0.638H3.84c-0.354,0-0.64-0.285-0.64-0.638S3.486,20.856,3.84,20.856z M30.72,22.492
	c0,1.053-0.861,1.909-1.92,1.909H15.078H14.72V3.273h0.358H28.8c1.059,0,1.92,0.856,1.92,1.909V22.492z"/>
</svg>
