<?xml version="1.0" encoding="utf-8"?>
<!-- Generator: Adobe Illustrator 26.0.2, SVG Export Plug-In . SVG Version: 6.00 Build 0)  -->
<svg version="1.1" id="Layer_1" xmlns="http://www.w3.org/2000/svg" xmlns:xlink="http://www.w3.org/1999/xlink" x="0px" y="0px"
	 viewBox="0 0 32 32" enable-background="new 0 0 32 32" xml:space="preserve">
<path d="M28.8,2H17.024H3.2C1.436,2,0,3.427,0,5.182v17.31c0,1.755,1.436,3.182,3.2,3.182h12.16v3.054H8.32
	c-0.354,0-0.64,0.285-0.64,0.636S7.966,30,8.32,30h15.36c0.354,0,0.64-0.285,0.64-0.636s-0.286-0.636-0.64-0.636h-7.04v-3.054h0.384
	H28.8c1.764,0,3.2-1.427,3.2-3.182V5.182C32,3.427,30.564,2,28.8,2z M28.8,6.224c0,0.353-0.299,0.638-0.668,0.638h-6.983
	c-0.369,0-0.668-0.285-0.668-0.638c0-0.353,0.299-0.638,0.668-0.638h6.983C28.501,5.586,28.8,5.872,28.8,6.224z M26.917,18.315
	h-5.835c-0.333,0-0.603-0.285-0.603-0.638s0.27-0.638,0.603-0.638h5.835c0.333,0,0.603,0.285,0.603,0.638
	S27.25,18.315,26.917,18.315z M27.52,21.494c0,0.353-0.286,0.638-0.64,0.638H21.12c-0.354,0-0.64-0.285-0.64-0.638
	c0-0.353,0.286-0.638,0.64-0.638h5.761C27.234,20.856,27.52,21.141,27.52,21.494z M28.17,14.497H21.11
	c-0.348,0-0.63-0.285-0.63-0.638c0-0.353,0.282-0.638,0.63-0.638h7.059c0.348,0,0.63,0.285,0.63,0.638
	C28.8,14.212,28.518,14.497,28.17,14.497z M3.2,24.401c-1.059,0-1.92-0.856-1.92-1.909V5.182c0-1.053,0.861-1.909,1.92-1.909h13.824
	h0.256v21.128h-0.256H3.2z"/>
</svg>
