<?xml version="1.0" encoding="utf-8"?>
<!-- Generator: Adobe Illustrator 26.0.2, SVG Export Plug-In . SVG Version: 6.00 Build 0)  -->
<svg version="1.1" id="Layer_1" xmlns="http://www.w3.org/2000/svg" xmlns:xlink="http://www.w3.org/1999/xlink" x="0px" y="0px"
	 viewBox="0 0 32 32" enable-background="new 0 0 32 32" xml:space="preserve">
<path d="M25.354,14.177c-0.168-0.974-0.496-1.915-0.975-2.795c-0.168-0.31-0.561-0.429-0.878-0.261
	c-0.316,0.168-0.435,0.555-0.265,0.866c0.413,0.759,0.695,1.568,0.838,2.405c0.333,1.928-0.005,3.821-0.975,5.476
	c-0.274,0.466-1.473,1.97-3.289,4.125c-0.017,0.021-0.029,0.045-0.046,0.066c-0.174,0.211-0.524,0.617-1.06,1.124
	c-0.503,0.476-1.773,0.895-2.718,0.895c-0.945,0-2.216-0.419-2.719-0.895c-0.541-0.513-0.894-0.923-1.066-1.132
	c-0.014-0.017-0.023-0.036-0.037-0.053l-0.343-0.409c-0.228-0.272-0.636-0.314-0.914-0.087c-0.276,0.224-0.316,0.628-0.089,0.9
	l0.213,0.255c0.007,0.01,0.073,0.092,0.166,0.205c0.763,0.927,1.186,2.088,1.186,3.283v0.303C12.384,30.406,14,32,15.986,32
	s3.602-1.594,3.602-3.552v-0.305c0-1.187,0.419-2.34,1.17-3.262c0.103-0.125,0.176-0.217,0.182-0.225
	c0.002-0.002,0.002-0.005,0.003-0.007c1.857-2.207,2.963-3.603,3.277-4.139C25.346,18.594,25.738,16.404,25.354,14.177z
	 M18.291,28.142v0.305c0,1.253-1.034,2.272-2.305,2.272c-1.271,0-2.305-1.02-2.305-2.272v-0.303c0-0.447-0.061-0.888-0.154-1.322
	c0.8,0.342,1.736,0.535,2.458,0.535c0.721,0,1.658-0.193,2.457-0.535C18.352,27.256,18.291,27.696,18.291,28.142z M22.704,10.068
	c0.006-0.006,0.008-0.015,0.015-0.022l4.588-4.526c0.253-0.25,0.253-0.655,0-0.905c-0.253-0.25-0.664-0.25-0.917,0L22.207,8.74
	c-1.245-1.07-2.717-1.814-4.319-2.12c-2.851-0.545-5.747,0.166-7.947,1.956c-2.201,1.791-3.464,4.43-3.464,7.241
	c0,1.65,0.441,3.272,1.275,4.695c0.157,0.267,0.513,0.748,1.06,1.44l-4.146,4.09c-0.253,0.25-0.253,0.655,0,0.905
	c0.127,0.125,0.293,0.188,0.459,0.188s0.332-0.062,0.459-0.188l17.098-16.865C22.688,10.076,22.697,10.074,22.704,10.068z
	 M9.736,21.041c-0.542-0.69-0.777-1.025-0.862-1.17c-0.72-1.227-1.1-2.629-1.1-4.054c0-2.427,1.09-4.708,2.992-6.253
	c1.901-1.546,4.403-2.161,6.874-1.688c1.348,0.258,2.59,0.877,3.65,1.767L9.736,21.041z M15.351,3.215V0.64
	C15.351,0.286,15.642,0,16,0s0.649,0.286,0.649,0.64v2.575c0,0.354-0.29,0.64-0.649,0.64S15.351,3.569,15.351,3.215z M4.686,5.527
	c-0.253-0.25-0.253-0.655,0-0.905c0.253-0.25,0.664-0.25,0.918,0L7.45,6.444c0.253,0.25,0.253,0.655,0,0.905
	C7.323,7.474,7.157,7.536,6.991,7.536S6.659,7.474,6.532,7.349L4.686,5.527z M27.314,26.036c0.253,0.25,0.253,0.655,0,0.905
	c-0.127,0.125-0.293,0.188-0.459,0.188s-0.332-0.062-0.459-0.188L24.55,25.12c-0.253-0.25-0.253-0.655,0-0.905s0.664-0.25,0.918,0
	L27.314,26.036z M3.909,15.781c0,0.354-0.29,0.64-0.649,0.64H0.649C0.29,16.421,0,16.135,0,15.781s0.29-0.64,0.649-0.64H3.26
	C3.619,15.141,3.909,15.427,3.909,15.781z M32,15.781c0,0.354-0.29,0.64-0.649,0.64H28.74c-0.359,0-0.649-0.286-0.649-0.64
	s0.29-0.64,0.649-0.64h2.611C31.71,15.141,32,15.427,32,15.781z"/>
</svg>
