<?xml version="1.0" encoding="utf-8"?>
<!-- Generator: Adobe Illustrator 26.0.2, SVG Export Plug-In . SVG Version: 6.00 Build 0)  -->
<svg version="1.1" id="Layer_1" xmlns="http://www.w3.org/2000/svg" xmlns:xlink="http://www.w3.org/1999/xlink" x="0px" y="0px"
	 viewBox="0 0 32 32" enable-background="new 0 0 32 32" xml:space="preserve">
<path d="M25.354,14.177c-0.653-3.789-3.653-6.826-7.467-7.557c-0.631-0.12-1.271-0.182-1.902-0.182c-5.243,0-9.509,4.209-9.509,9.38
	c0,1.65,0.44,3.274,1.274,4.695c0.314,0.536,1.422,1.934,3.282,4.146c0.008,0.011,0.072,0.092,0.164,0.204
	c0.763,0.927,1.186,2.088,1.186,3.283v0.303C12.384,30.406,14,32,15.986,32s3.602-1.594,3.602-3.552v-0.305
	c0-1.186,0.418-2.337,1.169-3.26c0.104-0.126,0.178-0.22,0.184-0.228c0.002-0.002,0.002-0.005,0.003-0.007
	c1.857-2.207,2.963-3.603,3.277-4.139C25.346,18.594,25.738,16.404,25.354,14.177z M18.291,28.142v0.305
	c0,1.253-1.034,2.272-2.305,2.272c-1.271,0-2.305-1.02-2.305-2.272v-0.303c0-0.447-0.062-0.888-0.154-1.322
	c0.799,0.342,1.737,0.535,2.458,0.535c0.721,0,1.658-0.193,2.457-0.535C18.352,27.256,18.291,27.696,18.291,28.142z M23.099,19.869
	c-0.274,0.466-1.473,1.97-3.289,4.125c-0.017,0.02-0.029,0.044-0.045,0.065c-0.173,0.211-0.523,0.617-1.06,1.125
	c-0.503,0.476-1.773,0.895-2.718,0.895c-0.945,0-2.216-0.419-2.719-0.895c-0.541-0.513-0.894-0.923-1.066-1.132
	c-0.014-0.017-0.023-0.036-0.037-0.053c-1.817-2.157-3.016-3.662-3.29-4.128c-0.719-1.226-1.099-2.629-1.099-4.054
	c0-4.466,3.683-8.1,8.211-8.1c0.547,0,1.104,0.054,1.654,0.16c3.286,0.63,5.872,3.247,6.434,6.515
	C24.407,16.32,24.069,18.214,23.099,19.869z M15.351,3.215V0.64C15.351,0.286,15.642,0,16,0s0.649,0.286,0.649,0.64v2.575
	c0,0.354-0.29,0.64-0.649,0.64S15.351,3.569,15.351,3.215z M4.686,5.527c-0.253-0.25-0.253-0.655,0-0.905
	c0.253-0.25,0.664-0.25,0.918,0L7.45,6.444c0.253,0.25,0.253,0.655,0,0.905C7.324,7.474,7.158,7.536,6.992,7.536
	S6.66,7.474,6.533,7.349L4.686,5.527z M27.314,26.036c0.253,0.25,0.253,0.655,0,0.905c-0.127,0.125-0.293,0.188-0.459,0.188
	s-0.332-0.062-0.459-0.188L24.55,25.12c-0.253-0.25-0.253-0.655,0-0.905s0.664-0.25,0.918,0L27.314,26.036z M3.909,15.781
	c0,0.354-0.29,0.64-0.649,0.64H0.649C0.29,16.421,0,16.135,0,15.781s0.29-0.64,0.649-0.64H3.26
	C3.619,15.141,3.909,15.427,3.909,15.781z M32,15.781c0,0.354-0.29,0.64-0.649,0.64H28.74c-0.359,0-0.649-0.286-0.649-0.64
	s0.29-0.64,0.649-0.64h2.611C31.71,15.141,32,15.427,32,15.781z M7.45,24.215c0.253,0.25,0.253,0.655,0,0.905l-1.846,1.821
	c-0.127,0.125-0.293,0.188-0.459,0.188s-0.332-0.062-0.459-0.188c-0.253-0.25-0.253-0.655,0-0.905l1.846-1.821
	C6.786,23.965,7.197,23.965,7.45,24.215z M27.314,4.622c0.253,0.25,0.253,0.655,0,0.905l-1.846,1.821
	c-0.127,0.125-0.293,0.188-0.459,0.188s-0.332-0.062-0.459-0.188c-0.253-0.25-0.253-0.655,0-0.905l1.846-1.821
	C26.65,4.372,27.061,4.372,27.314,4.622z"/>
</svg>
