<?xml version="1.0" encoding="utf-8"?>
<!-- Generator: Adobe Illustrator 26.0.2, SVG Export Plug-In . SVG Version: 6.00 Build 0)  -->
<svg version="1.1" id="Layer_1" xmlns="http://www.w3.org/2000/svg" xmlns:xlink="http://www.w3.org/1999/xlink" x="0px" y="0px"
	 viewBox="0 0 32 32" enable-background="new 0 0 32 32" xml:space="preserve">
<path d="M31.887,9.363c-0.637-4.486-4.17-7.792-8.4-7.862L23.341,1.5c-3.057,0-5.792,1.553-7.347,4.028
	c-1.451-2.273-3.935-3.807-6.703-4.006c-0.2-0.014-0.397-0.021-0.593-0.021c-4.216,0-7.9,3.354-8.571,7.801
	c-1.719,11.394,14.634,18.774,15.331,19.083C15.63,28.462,15.815,28.5,16,28.5c0.185,0,0.369-0.038,0.542-0.114
	C17.235,28.079,33.502,20.738,31.887,9.363z M16,27.174c0,0-16.143-7.147-14.555-17.674c0.558-3.7,3.56-6.671,7.252-6.672
	c0.165,0,0.33,0.006,0.498,0.018c3.071,0.221,5.618,2.32,6.486,5.149C15.728,8.149,15.864,8.226,16,8.226
	c0.136,0,0.271-0.077,0.318-0.23c0.918-2.992,3.715-5.169,7.023-5.169c0.041,0,0.083,0,0.124,0.001
	c3.704,0.061,6.584,3.071,7.102,6.721C32.06,20.063,16,27.174,16,27.174z"/>
</svg>
