<?xml version="1.0" encoding="utf-8"?>
<!-- Generator: Adobe Illustrator 26.0.2, SVG Export Plug-In . SVG Version: 6.00 Build 0)  -->
<svg version="1.1" id="Layer_1" xmlns="http://www.w3.org/2000/svg" xmlns:xlink="http://www.w3.org/1999/xlink" x="0px" y="0px"
	 viewBox="0 0 32 32" enable-background="new 0 0 32 32" xml:space="preserve">
<path d="M17.251,19.181c0.393,1.905-0.187,3.855-1.552,5.219l-5.429,5.429C9.193,30.906,7.755,31.5,6.222,31.5
	s-2.971-0.594-4.048-1.672c-2.231-2.232-2.231-5.865,0-8.097l5.43-5.429c1.342-1.343,3.263-1.927,5.141-1.568
	c0.366,0.071,0.605,0.424,0.535,0.79c-0.07,0.366-0.421,0.603-0.789,0.534c-1.44-0.276-2.909,0.171-3.935,1.196l-5.43,5.429
	c-1.706,1.707-1.706,4.484,0,6.191c1.647,1.647,4.547,1.644,6.191,0l5.429-5.429c1.043-1.042,1.486-2.535,1.185-3.992
	c-0.075-0.365,0.159-0.721,0.524-0.796C16.818,18.574,17.176,18.816,17.251,19.181z M29.829,2.172
	C28.752,1.094,27.314,0.5,25.781,0.5c-1.533,0-2.971,0.594-4.048,1.672l-5.43,5.429c-1.365,1.365-1.945,3.315-1.552,5.219
	c0.075,0.365,0.434,0.603,0.796,0.523c0.365-0.075,0.599-0.432,0.524-0.796c-0.301-1.457,0.142-2.95,1.185-3.992l5.43-5.429
	c1.645-1.644,4.545-1.647,6.19,0c1.707,1.707,1.707,4.484,0,6.191l-5.429,5.429c-1.026,1.027-2.494,1.474-3.935,1.196
	c-0.361-0.067-0.718,0.17-0.789,0.534c-0.07,0.366,0.169,0.719,0.535,0.79c0.365,0.07,0.732,0.104,1.096,0.104
	c1.507,0,2.965-0.59,4.046-1.672l5.429-5.429C30.907,9.191,31.5,7.753,31.5,6.22S30.907,3.25,29.829,2.172z M10.584,21.418
	c0.132,0.132,0.304,0.197,0.476,0.197c0.172,0,0.345-0.066,0.476-0.197l9.883-9.883c0.263-0.263,0.263-0.69,0-0.953
	s-0.69-0.263-0.953,0l-9.883,9.883C10.32,20.728,10.32,21.155,10.584,21.418z"/>
</svg>
