<?xml version="1.0" encoding="utf-8"?>
<!-- Generator: Adobe Illustrator 26.0.2, SVG Export Plug-In . SVG Version: 6.00 Build 0)  -->
<svg version="1.1" id="Layer_1" xmlns="http://www.w3.org/2000/svg" xmlns:xlink="http://www.w3.org/1999/xlink" x="0px" y="0px"
	 viewBox="0 0 32 32" enable-background="new 0 0 32 32" xml:space="preserve">
<path d="M32,25.396v4.32c0,0.341-0.276,0.617-0.615,0.617h-8.345h-2.013H7.758c-0.34,0-0.615-0.276-0.615-0.617v-4.32
	c0-0.341,0.276-0.617,0.615-0.617h2.769c3.454,0.01,4.16-1.623,5.077-4.691c0.077-0.259,0.315-0.439,0.585-0.439
	c0.405,0,0.695,0.39,0.587,0.781c-0.972,3.533-2.223,5.584-6.249,5.584H8.373v3.086h12.653h2.013h7.73v-3.086h-2.154
	c-4.03,0-4.78-2.055-5.686-5.594c-0.1-0.389,0.192-0.77,0.592-0.77c0.273,0,0.514,0.183,0.589,0.446
	c0.868,3.064,1.054,4.695,4.506,4.685h2.769C31.724,24.779,32,25.056,32,25.396z M31.385,1.667H10.462
	c-0.34,0-0.615,0.276-0.615,0.617v0.617H0.615C0.27,2.901-0.001,3.187,0,3.533c0.008,5.106,4.138,9.242,9.231,9.242h0.615v1.234
	c0,0.341,0.276,0.617,0.615,0.617h1.274c2.762-0.011,2.968,1.096,3.782,3.449c0.088,0.255,0.329,0.426,0.598,0.426
	c0.426,0,0.73-0.418,0.604-0.826c-0.862-2.783-1.644-4.283-4.952-4.283h-0.689v-1.234c0-0.341-0.276-0.617-0.615-0.617H9.231
	c-4.189,0.013-7.678-3.217-8-7.405h9.231c0.34,0,0.615-0.276,0.615-0.617V2.901h19.692v9.257h-2.154
	c-4.021,0-4.749,2.044-5.659,5.572c-0.1,0.389,0.191,0.772,0.592,0.772c0.272,0,0.514-0.182,0.589-0.445
	c0.872-3.053,1.034-4.675,4.478-4.664h2.769c0.34,0,0.615-0.276,0.615-0.617V2.284C32,1.943,31.724,1.667,31.385,1.667z"/>
</svg>
