<?xml version="1.0" encoding="utf-8"?>
<!-- Generator: Adobe Illustrator 26.0.2, SVG Export Plug-In . SVG Version: 6.00 Build 0)  -->
<svg version="1.1" id="Layer_1" xmlns="http://www.w3.org/2000/svg" xmlns:xlink="http://www.w3.org/1999/xlink" x="0px" y="0px"
	 viewBox="0 0 32 32" enable-background="new 0 0 32 32" xml:space="preserve">
<path d="M8.723,8.109l1.757-0.965v18.108l-1.244-0.716l-2.565-9.622v8.144l-1.461-0.84v-11.73l1.461-0.825
	c0,0.11,1.42,4.702,2.036,6.69L8.723,8.109z M11.972,26.03l1.648,1.089V17.007h6.14v-2.038h-6.14V6.989l2.383-1.353l4.146,2.411
	l0.948-1.478l-5.094-2.987l-4.03,2.411V26.03z M23.195,9.945v14.67l1.819-1.011V10.94l2.254,1.54v-1.929L21.905,7.16l-0.902,1.353
	L23.195,9.945z M29.867,8.043v15.946L16.021,32L2.133,23.992V8.047L15.998,0L29.867,8.043z M28.22,8.914L15.998,1.836L3.78,8.918
	v14.141l12.242,7.074l12.199-7.078V8.914z"/>
</svg>
