<?xml version="1.0" encoding="utf-8"?>
<!-- Generator: Adobe Illustrator 26.0.2, SVG Export Plug-In . SVG Version: 6.00 Build 0)  -->
<svg version="1.1" id="Layer_1" xmlns="http://www.w3.org/2000/svg" xmlns:xlink="http://www.w3.org/1999/xlink" x="0px" y="0px"
	 viewBox="0 0 32 32" enable-background="new 0 0 32 32" xml:space="preserve">
<path d="M9.986,25.043c0.773,0.167,1.572,0.257,2.39,0.275c0.098,0.003,0.193,0.015,0.291,0.015c0.512,0,1.015-0.04,1.511-0.098
	c0.604-0.072,1.193-0.192,1.769-0.346c0.485-0.13,0.959-0.282,1.419-0.466c0.494-0.198,0.975-0.421,1.437-0.678
	c0.4-0.222,0.783-0.468,1.155-0.73c0.411-0.29,0.8-0.607,1.173-0.942c0.331-0.298,0.645-0.612,0.943-0.943
	c0.336-0.373,0.652-0.762,0.942-1.173c0.262-0.372,0.509-0.755,0.731-1.155c0.256-0.462,0.48-0.942,0.678-1.437
	c0.184-0.46,0.337-0.934,0.466-1.419c0.154-0.575,0.274-1.164,0.346-1.768c0.059-0.497,0.098-0.999,0.098-1.511
	c0-0.098-0.012-0.193-0.015-0.291c-0.023-1.008-0.167-1.985-0.412-2.922c-0.159-0.607-0.35-1.201-0.593-1.768
	c-1.899-4.434-6.255-7.556-11.356-7.672C12.86,0.012,12.765,0,12.667,0c-0.512,0-1.015,0.039-1.511,0.098
	C10.551,0.17,9.962,0.29,9.387,0.444C8.902,0.574,8.428,0.727,7.968,0.91C7.473,1.108,6.993,1.332,6.531,1.588
	C6.453,1.632,6.379,1.682,6.302,1.727C2.537,3.923,0,7.994,0,12.667c0,4.987,2.889,9.288,7.078,11.354
	c0.202,0.1,0.4,0.204,0.608,0.293c0.568,0.243,1.161,0.434,1.768,0.592C9.631,24.952,9.806,25.004,9.986,25.043z M23.293,8.707
	c0.266,0.71,0.46,1.453,0.579,2.222l-2.801-2.801C21.84,8.247,22.582,8.441,23.293,8.707z M19.052,7.995l4.953,4.952
	c-0.016,0.652-0.081,1.292-0.203,1.912L17.14,8.197C17.761,8.076,18.401,8.011,19.052,7.995z M15.66,8.602l7.738,7.738
	c-0.176,0.512-0.386,1.008-0.63,1.484l-8.592-8.592C14.652,8.988,15.148,8.778,15.66,8.602z M12.984,9.926l9.089,9.089
	c-0.282,0.417-0.6,0.806-0.934,1.181l-9.336-9.336C12.178,10.527,12.567,10.209,12.984,9.926z M10.861,11.803l9.336,9.336
	c-0.375,0.333-0.764,0.652-1.181,0.934l-9.089-9.089C10.209,12.567,10.527,12.178,10.861,11.803z M9.233,14.175l8.592,8.592
	c-0.476,0.244-0.972,0.454-1.484,0.63L8.603,15.66C8.778,15.147,8.989,14.652,9.233,14.175z M8.198,17.141l6.662,6.661
	c-0.62,0.122-1.26,0.187-1.912,0.202l-4.953-4.952C8.011,18.4,8.076,17.76,8.198,17.141z M7.897,22.954l-0.216-2.331l0.447,0.447
	l2.801,2.801c-0.769-0.119-1.512-0.314-2.222-0.579C8.432,23.189,8.162,23.077,7.897,22.954z M32,19.334
	c0,0.512-0.039,1.014-0.098,1.511c-0.072,0.604-0.192,1.193-0.346,1.769c-0.13,0.485-0.282,0.959-0.466,1.419
	c-0.198,0.494-0.422,0.975-0.678,1.437c-0.222,0.4-0.468,0.783-0.731,1.155c-0.29,0.411-0.607,0.8-0.942,1.173
	c-0.298,0.331-0.612,0.645-0.943,0.943c-0.373,0.336-0.762,0.652-1.172,0.942c-0.372,0.262-0.755,0.509-1.155,0.731
	c-0.462,0.256-0.942,0.48-1.437,0.678c-0.46,0.184-0.934,0.337-1.419,0.466c-0.575,0.154-1.164,0.274-1.769,0.346
	C20.348,31.961,19.846,32,19.333,32c-0.098,0-0.193-0.012-0.291-0.015c-0.818-0.019-1.618-0.109-2.39-0.276
	c-1.022-0.22-1.993-0.571-2.907-1.022c-1.829-0.902-3.395-2.238-4.591-3.865c-0.008-0.011-0.016-0.021-0.024-0.033
	c-0.106-0.118-0.175-0.27-0.175-0.441c0-0.193,0.084-0.363,0.215-0.485c0.119-0.111,0.276-0.182,0.452-0.182
	c0.279,0,0.516,0.171,0.616,0.414c0.001,0,0.003,0,0.004,0.001c1.123,1.504,2.603,2.724,4.323,3.524
	c0.948,0.441,1.965,0.753,3.032,0.918c0.568,0.088,1.145,0.147,1.737,0.147c0.095,0,0.187-0.012,0.281-0.014
	c0.652-0.016,1.292-0.081,1.912-0.202c0.507-0.1,1-0.24,1.481-0.405c0.512-0.176,1.008-0.386,1.484-0.63
	c0.411-0.211,0.812-0.437,1.191-0.694c0.417-0.283,0.806-0.6,1.181-0.934c0.333-0.296,0.647-0.61,0.943-0.943
	c0.334-0.375,0.652-0.764,0.934-1.181c0.257-0.38,0.484-0.781,0.694-1.191c0.244-0.477,0.454-0.972,0.63-1.484
	c0.165-0.481,0.305-0.973,0.405-1.48c0.122-0.62,0.187-1.26,0.203-1.912c0.002-0.094,0.014-0.186,0.014-0.281
	c0-0.592-0.059-1.17-0.147-1.738c-0.464-3.003-2.107-5.613-4.44-7.354c0-0.003-0.001-0.005-0.002-0.008
	c-0.186-0.118-0.316-0.316-0.316-0.553c0-0.368,0.299-0.667,0.667-0.667c0.177,0,0.336,0.072,0.455,0.184
	c-0.003-0.004-0.004-0.008-0.007-0.012c3.019,2.254,4.998,5.819,5.09,9.856C31.988,19.14,32,19.235,32,19.334z"/>
</svg>
