<?xml version="1.0" encoding="utf-8"?>
<!-- Generator: Adobe Illustrator 26.0.2, SVG Export Plug-In . SVG Version: 6.00 Build 0)  -->
<svg version="1.1" id="Layer_1" xmlns="http://www.w3.org/2000/svg" xmlns:xlink="http://www.w3.org/1999/xlink" x="0px" y="0px"
	 viewBox="0 0 32 32" enable-background="new 0 0 32 32" xml:space="preserve">
<path fill="#8247E5" d="M24.23,10.558c-0.308-0.164-0.653-0.249-1.003-0.249c-0.35,0-0.694,0.086-1.003,0.249L17.546,13.3
	l-3.175,1.745l-4.595,2.742c-0.309,0.164-0.653,0.25-1.003,0.25c-0.35,0-0.694-0.086-1.003-0.25l-3.593-2.16
	c-0.305-0.179-0.558-0.434-0.734-0.74c-0.176-0.306-0.268-0.652-0.268-1.005V9.727C3.178,9.375,3.271,9.03,3.447,8.724
	c0.176-0.306,0.427-0.561,0.731-0.742L7.77,5.905c0.309-0.164,0.653-0.249,1.003-0.249c0.35,0,0.694,0.086,1.003,0.249l3.593,2.16
	c0.305,0.179,0.558,0.434,0.734,0.74c0.176,0.306,0.268,0.652,0.268,1.005v2.742l3.175-1.828V7.899
	c-0.002-0.352-0.096-0.697-0.271-1.003c-0.176-0.306-0.427-0.561-0.731-0.742L9.859,2.249C9.551,2.086,9.206,2,8.857,2
	c-0.35,0-0.694,0.086-1.003,0.249L1.003,6.238C0.696,6.393,0.439,6.632,0.262,6.925C0.085,7.219-0.006,7.557,0,7.899v7.81
	c0.002,0.352,0.096,0.697,0.272,1.003c0.176,0.306,0.427,0.561,0.731,0.742l6.768,3.905c0.309,0.164,0.653,0.249,1.003,0.249
	c0.35,0,0.694-0.086,1.003-0.249l4.595-2.659l3.175-1.828l4.595-2.659c0.309-0.164,0.653-0.25,1.003-0.25
	c0.35,0,0.694,0.086,1.003,0.25l3.593,2.077c0.305,0.179,0.558,0.434,0.734,0.74c0.176,0.306,0.268,0.652,0.268,1.005v4.154
	c-0.002,0.352-0.096,0.697-0.272,1.003c-0.176,0.306-0.427,0.561-0.731,0.742l-3.509,2.077c-0.308,0.164-0.653,0.25-1.003,0.25
	c-0.35,0-0.694-0.086-1.003-0.25l-3.593-2.077c-0.305-0.179-0.559-0.434-0.734-0.74c-0.176-0.306-0.268-0.652-0.268-1.005v-2.659
	l-3.175,1.828v2.742c0.002,0.352,0.096,0.697,0.271,1.003c0.176,0.306,0.427,0.561,0.731,0.742l6.767,3.905
	c0.309,0.164,0.653,0.25,1.003,0.25c0.35,0,0.694-0.086,1.003-0.25l6.768-3.905c0.305-0.179,0.559-0.434,0.734-0.74
	C31.908,24.8,32,24.453,32,24.101v-7.893c-0.002-0.352-0.096-0.697-0.271-1.003c-0.176-0.306-0.427-0.561-0.731-0.742L24.23,10.558z
	"/>
</svg>
