<?xml version="1.0" encoding="utf-8"?>
<!-- Generator: Adobe Illustrator 26.0.2, SVG Export Plug-In . SVG Version: 6.00 Build 0)  -->
<svg version="1.1" id="Layer_1" xmlns="http://www.w3.org/2000/svg" xmlns:xlink="http://www.w3.org/1999/xlink" x="0px" y="0px"
	 viewBox="0 0 32 32" enable-background="new 0 0 32 32" xml:space="preserve">
<path d="M16,14.652c3.948,0,7.159-3.175,7.159-7.076S19.948,0.5,16,0.5S8.841,3.675,8.841,7.576S12.052,14.652,16,14.652z M16,1.787
	c3.23,0,5.857,2.597,5.857,5.789S19.23,13.366,16,13.366s-5.857-2.597-5.857-5.789S12.77,1.787,16,1.787z M31,31.5h-1.424
	l-0.018-0.152C28.617,23.52,22.661,17.39,15.999,17.39c-6.663,0-12.618,6.131-13.557,13.958L2.423,31.5H1l0.022-0.192
	c0.475-4.167,2.266-8.03,5.041-10.876C8.852,17.575,12.381,16,16.001,16c3.619,0,7.148,1.575,9.936,4.433
	c2.776,2.847,4.566,6.71,5.041,10.876L31,31.5z"/>
</svg>
