<?xml version="1.0" encoding="utf-8"?>
<!-- Generator: Adobe Illustrator 26.0.2, SVG Export Plug-In . SVG Version: 6.00 Build 0)  -->
<svg version="1.1" id="Layer_1" xmlns="http://www.w3.org/2000/svg" xmlns:xlink="http://www.w3.org/1999/xlink" x="0px" y="0px"
	 viewBox="0 0 32 32" enable-background="new 0 0 32 32" xml:space="preserve">
<path d="M30.431,13.2l-2.788-0.906l-0.789-1.906l1.331-2.612c0.446-0.876,0.278-1.941-0.418-2.636L26.86,4.233
	c-0.436-0.436-1.017-0.665-1.606-0.665c-0.351,0-0.703,0.081-1.03,0.248l-2.612,1.331l-1.906-0.79L18.8,1.569
	C18.496,0.633,17.624,0,16.641,0h-1.282c-0.984,0-1.855,0.633-2.159,1.569l-0.906,2.788l-1.906,0.79L7.776,3.816
	c-0.327-0.167-0.68-0.248-1.03-0.248c-0.589,0-1.17,0.229-1.606,0.665L4.233,5.139c-0.695,0.696-0.864,1.76-0.417,2.636l1.331,2.612
	l-0.79,1.906L1.569,13.2C0.633,13.504,0,14.375,0,15.359v1.282c0,0.984,0.633,1.856,1.569,2.16l2.788,0.906l0.79,1.906l-1.331,2.612
	c-0.447,0.876-0.278,1.941,0.417,2.636l0.906,0.906c0.436,0.436,1.017,0.665,1.606,0.665c0.35,0,0.703-0.081,1.03-0.248l2.612-1.331
	l1.906,0.79l0.906,2.788C13.504,31.367,14.375,32,15.359,32h1.282c0.984,0,1.856-0.633,2.16-1.569l0.906-2.788l1.906-0.79
	l2.612,1.331c0.327,0.167,0.68,0.248,1.03,0.248c0.589,0,1.17-0.229,1.606-0.665l0.906-0.906c0.696-0.696,0.864-1.76,0.418-2.636
	l-1.331-2.612l0.789-1.906l2.788-0.906C31.367,18.496,32,17.624,32,16.641v-1.282C32,14.375,31.367,13.504,30.431,13.2z
	 M30.609,16.641c0,0.382-0.244,0.718-0.608,0.836l-2.788,0.906l-0.61,0.198l-0.246,0.593l-0.789,1.906l-0.246,0.593l0.291,0.572
	l1.331,2.612c0.174,0.34,0.109,0.751-0.162,1.021l-0.906,0.906c-0.166,0.166-0.387,0.258-0.622,0.258
	c-0.14,0-0.274-0.032-0.399-0.096l-2.612-1.331l-0.571-0.291l-0.593,0.245l-1.906,0.79l-0.592,0.245l-0.198,0.61l-0.906,2.788
	c-0.118,0.364-0.454,0.608-0.837,0.608h-1.282c-0.382,0-0.718-0.244-0.836-0.608l-0.906-2.788l-0.198-0.61l-0.592-0.245l-1.906-0.79
	l-0.593-0.245l-0.572,0.291l-2.611,1.331c-0.125,0.064-0.259,0.096-0.399,0.096c-0.235,0-0.456-0.092-0.622-0.258l-0.906-0.906
	c-0.27-0.27-0.335-0.681-0.162-1.021l1.331-2.612l0.291-0.572L6.432,21.08l-0.789-1.906l-0.246-0.593l-0.61-0.198l-2.788-0.906
	c-0.363-0.118-0.608-0.454-0.608-0.836v-1.282c0-0.382,0.244-0.718,0.608-0.836l2.788-0.906l0.61-0.198l0.246-0.593l0.789-1.906
	l0.245-0.593L6.386,9.756L5.055,7.144C4.882,6.804,4.947,6.393,5.217,6.123l0.906-0.906c0.166-0.166,0.387-0.258,0.622-0.258
	c0.14,0,0.274,0.032,0.398,0.096l2.612,1.331l0.572,0.291l0.593-0.245l1.906-0.79l0.592-0.245l0.198-0.61l0.906-2.788
	c0.118-0.363,0.454-0.608,0.836-0.608h1.282c0.382,0,0.718,0.244,0.836,0.607l0.906,2.788l0.198,0.61l0.592,0.245l1.906,0.79
	l0.593,0.245l0.571-0.291l2.612-1.331c0.125-0.064,0.259-0.096,0.399-0.096c0.235,0,0.456,0.091,0.622,0.258l0.906,0.906
	c0.27,0.27,0.335,0.681,0.162,1.021l-1.331,2.612l-0.291,0.572l0.246,0.593l0.789,1.906l0.246,0.593l0.61,0.198l2.788,0.906
	c0.363,0.118,0.608,0.454,0.608,0.836V16.641z M16,8.889c-3.927,0-7.111,3.184-7.111,7.111c0,3.927,3.184,7.111,7.111,7.111
	s7.111-3.184,7.111-7.111C23.111,12.073,19.927,8.889,16,8.889z M16,21.72c-3.154,0-5.72-2.566-5.72-5.72
	c0-3.154,2.566-5.72,5.72-5.72s5.72,2.566,5.72,5.72C21.72,19.154,19.154,21.72,16,21.72z"/>
</svg>
