<?xml version="1.0" encoding="utf-8"?>
<!-- Generator: Adobe Illustrator 26.0.2, SVG Export Plug-In . SVG Version: 6.00 Build 0)  -->
<svg version="1.1" id="Layer_1" xmlns="http://www.w3.org/2000/svg" xmlns:xlink="http://www.w3.org/1999/xlink" x="0px" y="0px"
	 viewBox="0 0 32 32" enable-background="new 0 0 32 32" xml:space="preserve">
<path d="M7.3,26.809l0.912,0.829c-0.192,0.34-0.308,0.586-0.433,0.854L7.65,28.764c-0.914,1.901-1.742,3.065-7.002,3.065
	l-0.587,0.014l-0.01-0.62c0-5.131,1.07-5.915,2.963-6.858l0.22-0.108c0.369-0.181,0.748-0.366,1.153-0.638l0.733,0.936
	c-0.577,0.401-1.114,0.669-1.565,0.894c-1.462,0.729-2.17,1.237-2.274,4.773l-0.013,0.431l0.431-0.016
	c3.578-0.129,4.169-1.002,4.905-2.531l0.018-0.037C6.809,27.683,7.015,27.253,7.3,26.809z M31.678,3.079L31.576,3.24l-1.298,2.04
	l-0.817,1.284c-3.263,5.131-7.223,9.665-11.793,13.566c-0.055,0.047-0.169,0.153-0.224,0.2l-0.005,7.341
	c0,0.177-0.077,0.344-0.234,0.48l-3.72,3.705c-0.157,0.135-0.383,0.179-0.581,0.116c-0.2-0.066-0.354-0.233-0.402-0.437
	c0,0-0.87-7.994-2.563-9.687S0.471,19.64,0.471,19.64c-0.208-0.047-0.377-0.203-0.442-0.406c-0.065-0.202-0.018-0.428,0.118-0.581
	l3.708-4.021c0.114-0.129,0.279-0.203,0.453-0.203h7.469c0.278-0.332,0.524-0.625,0.596-0.707
	c3.782-4.319,8.144-8.074,13.049-11.198l1.236-0.787l2.122-1.351l0.126-0.08c0.982-0.623,2.303-0.252,2.849,0.743
	C32.107,1.69,32.078,2.449,31.678,3.079z M7.699,19.783c0.967-1.432,1.993-2.81,3.067-4.143H4.588l-2.875,3.04L7.699,19.783z
	 M16.232,21.562c0-0.121,0-0.241,0-0.241s-2.549,1.971-3.89,2.883l1.135,6.184l2.752-3.025L16.232,21.562z M30.626,1.669
	c-0.201-0.366-0.653-0.518-1.027-0.276l-0.291,0.185l-3.193,2.033C19.37,7.906,13.658,13.406,9.124,19.967
	c0.619,0.171,1.193,0.485,1.679,0.923c0.592,0.535,1.013,1.225,1.222,1.981c6.561-4.538,12.057-10.253,16.348-17.001l1.995-3.135
	l0.222-0.349C30.78,2.088,30.714,1.832,30.626,1.669z"/>
</svg>
