<?xml version="1.0" encoding="utf-8"?>
<!-- Generator: Adobe Illustrator 26.0.2, SVG Export Plug-In . SVG Version: 6.00 Build 0)  -->
<svg version="1.1" id="Layer_1" xmlns="http://www.w3.org/2000/svg" xmlns:xlink="http://www.w3.org/1999/xlink" x="0px" y="0px"
	 viewBox="0 0 32 32" enable-background="new 0 0 32 32" xml:space="preserve">
<path d="M30.095,10.819l-8.363-1.189l-3.74-7.417C17.585,1.404,16.792,1,16,1c-0.792,0-1.585,0.404-1.992,1.212l-3.74,7.417
	l-8.363,1.189c-1.822,0.259-2.55,2.451-1.231,3.709l6.051,5.773l-1.429,8.152C5.05,29.858,6.191,31,7.486,31
	c0.342,0,0.694-0.08,1.034-0.255L16,26.896l7.48,3.849C23.82,30.92,24.173,31,24.514,31c1.295,0,2.436-1.142,2.189-2.547
	l-1.429-8.152l6.052-5.773C32.645,13.27,31.918,11.078,30.095,10.819z M30.396,13.593l-6.052,5.773
	c-0.314,0.3-0.458,0.732-0.383,1.155l1.429,8.152c0.058,0.331-0.07,0.563-0.188,0.7c-0.174,0.201-0.43,0.321-0.688,0.321
	c-0.14,0-0.279-0.035-0.414-0.105l-7.48-3.849c-0.194-0.1-0.407-0.15-0.62-0.15c-0.213,0-0.426,0.05-0.62,0.15L7.9,29.59
	c-0.135,0.069-0.274,0.105-0.414,0.105c-0.257,0-0.514-0.12-0.688-0.321c-0.118-0.137-0.246-0.369-0.188-0.7l1.429-8.152
	c0.074-0.423-0.069-0.855-0.383-1.155l-6.051-5.773c-0.357-0.341-0.276-0.737-0.225-0.891c0.051-0.155,0.224-0.522,0.717-0.592
	l8.363-1.189c0.434-0.062,0.81-0.329,1.004-0.714l3.74-7.417C15.424,2.352,15.834,2.305,16,2.305s0.576,0.047,0.797,0.485
	l3.74,7.417c0.194,0.385,0.57,0.652,1.004,0.714l8.363,1.189c0.493,0.07,0.666,0.437,0.717,0.592
	C30.672,12.856,30.753,13.252,30.396,13.593z"/>
</svg>
