<?xml version="1.0" encoding="utf-8"?>
<!-- Generator: Adobe Illustrator 26.0.2, SVG Export Plug-In . SVG Version: 6.00 Build 0)  -->
<svg version="1.1" id="Layer_1" xmlns="http://www.w3.org/2000/svg" xmlns:xlink="http://www.w3.org/1999/xlink" x="0px" y="0px"
	 viewBox="0 0 32 32" enable-background="new 0 0 32 32" xml:space="preserve">
<path d="M23.424,0H8.667C6.829,0,5.333,1.495,5.333,3.333v25.333C5.333,30.505,6.829,32,8.667,32h14.757
	c1.838,0,3.333-1.495,3.333-3.333V3.333C26.757,1.495,25.262,0,23.424,0z M25.424,28.667c0,1.103-0.897,2-2,2H8.667
	c-1.103,0-2-0.897-2-2V3.333c0-1.103,0.897-2,2-2h14.757c1.103,0,2,0.897,2,2V28.667z M3.782,14.125l-2.124,1.874l2.124,1.875
	c0.272,0.241,0.292,0.65,0.044,0.914c-0.249,0.264-0.671,0.282-0.941,0.043l-2.667-2.354C0.079,16.356,0,16.181,0,15.999
	c0-0.182,0.079-0.356,0.218-0.479l2.667-2.353C3.013,13.056,3.173,13,3.333,13c0.181,0,0.361,0.071,0.493,0.211
	C4.074,13.476,4.054,13.884,3.782,14.125z M32,16c0,0.182-0.079,0.356-0.218,0.479l-2.667,2.353C28.988,18.944,28.827,19,28.667,19
	c-0.181,0-0.361-0.071-0.493-0.211c-0.248-0.265-0.228-0.673,0.044-0.914L30.342,16l-2.124-1.875
	c-0.272-0.241-0.292-0.65-0.044-0.914c0.249-0.264,0.671-0.282,0.941-0.043l2.667,2.354C31.921,15.644,32,15.819,32,16z"/>
</svg>
