<?xml version="1.0" encoding="utf-8"?>
<!-- Generator: Adobe Illustrator 26.0.2, SVG Export Plug-In . SVG Version: 6.00 Build 0)  -->
<svg version="1.1" id="Layer_1" xmlns="http://www.w3.org/2000/svg" xmlns:xlink="http://www.w3.org/1999/xlink" x="0px" y="0px"
	 viewBox="0 0 32 32" enable-background="new 0 0 32 32" xml:space="preserve">
<path d="M24.679,0H7.321C5.49,0,4,1.495,4,3.333v25.333C4,30.505,5.49,32,7.321,32h17.357C26.51,32,28,30.505,28,28.667V3.333
	C28,1.495,26.51,0,24.679,0z M26.671,28.667c0,1.103-0.894,2-1.993,2H7.321c-1.099,0-1.993-0.897-1.993-2V3.333
	c0-1.103,0.894-2,1.993-2h17.357c1.099,0,1.993,0.897,1.993,2V28.667z M10.449,14.125l-2.125,1.874l2.125,1.875
	c0.272,0.241,0.292,0.65,0.044,0.914c-0.249,0.264-0.671,0.282-0.941,0.043l-2.667-2.354c-0.139-0.123-0.218-0.297-0.218-0.479
	c0-0.182,0.079-0.356,0.218-0.479l2.667-2.353C9.679,13.056,9.84,13,10,13c0.181,0,0.361,0.071,0.493,0.211
	C10.741,13.476,10.721,13.884,10.449,14.125z M25.115,15.522c0.139,0.122,0.218,0.297,0.218,0.479c0,0.182-0.079,0.356-0.218,0.479
	l-2.667,2.353C22.321,18.944,22.16,19,22,19c-0.181,0-0.361-0.071-0.493-0.211c-0.248-0.265-0.228-0.673,0.044-0.914L23.676,16
	l-2.125-1.875c-0.272-0.241-0.292-0.65-0.044-0.914c0.249-0.264,0.671-0.282,0.941-0.043L25.115,15.522z"/>
</svg>
