<?xml version="1.0" encoding="utf-8"?>
<!-- Generator: Adobe Illustrator 26.0.2, SVG Export Plug-In . SVG Version: 6.00 Build 0)  -->
<svg version="1.1" id="Layer_1" xmlns="http://www.w3.org/2000/svg" xmlns:xlink="http://www.w3.org/1999/xlink" x="0px" y="0px"
	 viewBox="0 0 32 32" enable-background="new 0 0 32 32" xml:space="preserve">
<path d="M3.782,14.125L1.658,16l2.124,1.875c0.272,0.241,0.292,0.65,0.044,0.914c-0.249,0.264-0.671,0.282-0.941,0.043l-2.667-2.354
	C0.079,16.356,0,16.181,0,16c0-0.182,0.079-0.356,0.218-0.479l2.667-2.353C3.012,13.056,3.173,13,3.333,13
	c0.181,0,0.361,0.071,0.493,0.211C4.074,13.476,4.054,13.884,3.782,14.125z M31.782,15.522l-2.667-2.354
	c-0.271-0.239-0.693-0.221-0.941,0.043c-0.248,0.264-0.228,0.673,0.044,0.914L30.342,16l-2.124,1.874
	c-0.272,0.241-0.292,0.649-0.044,0.914C28.305,18.929,28.486,19,28.667,19c0.16,0,0.321-0.056,0.449-0.168l2.667-2.353
	C31.921,16.357,32,16.182,32,16C32,15.819,31.921,15.644,31.782,15.522z M26.757,3.333v25.333c0,1.839-1.495,3.333-3.333,3.333
	H8.667c-1.838,0-3.333-1.495-3.333-3.333V3.333C5.333,1.495,6.829,0,8.667,0h14.757C25.262,0,26.757,1.495,26.757,3.333z
	 M11.694,21.756c0,0.369,0.281,0.668,0.628,0.668H18.4c0.347,0,0.628-0.299,0.628-0.668c0-0.369-0.281-0.668-0.628-0.668h-6.078
	C11.975,21.088,11.694,21.387,11.694,21.756z M12.351,18.426h7.353c0.363,0,0.657-0.299,0.657-0.668c0-0.37-0.294-0.669-0.657-0.669
	h-7.353c-0.363,0-0.657,0.299-0.657,0.669C11.694,18.127,11.988,18.426,12.351,18.426z M11.694,25.755
	c0,0.37,0.298,0.669,0.666,0.669h6.001c0.368,0,0.666-0.299,0.666-0.669c0-0.369-0.298-0.668-0.666-0.668h-6.001
	C11.992,25.087,11.694,25.386,11.694,25.755z M20.361,7.092c0-0.369-0.311-0.668-0.696-0.668h-7.274
	c-0.385,0-0.696,0.299-0.696,0.668s0.311,0.668,0.696,0.668h7.274C20.05,7.761,20.361,7.462,20.361,7.092z"/>
</svg>
