<?xml version="1.0" encoding="utf-8"?>
<!-- Generator: Adobe Illustrator 26.0.2, SVG Export Plug-In . SVG Version: 6.00 Build 0)  -->
<svg version="1.1" id="Layer_1" xmlns="http://www.w3.org/2000/svg" xmlns:xlink="http://www.w3.org/1999/xlink" x="0px" y="0px"
	 viewBox="0 0 32 32" enable-background="new 0 0 32 32" xml:space="preserve">
<path d="M6.976,8.047c-0.263-0.263-0.263-0.69,0-0.953c0.263-0.263,0.69-0.263,0.953,0l4.492,4.493
	c0.132,0.132,0.197,0.304,0.197,0.476s-0.066,0.345-0.197,0.476c-0.263,0.263-0.69,0.263-0.953,0L6.976,8.047z M20.515,19.603
	c-0.263-0.263-0.69-0.263-0.953,0c-0.263,0.263-0.263,0.69,0,0.953l4.492,4.493c0.263,0.263,0.69,0.263,0.953,0
	c0.132-0.132,0.197-0.304,0.197-0.476c0-0.172-0.066-0.345-0.197-0.476L20.515,19.603z M27.922,19.809l-6.136-1.645
	c-0.36-0.096-0.729,0.117-0.825,0.476c-0.096,0.359,0.117,0.729,0.476,0.825l6.136,1.645c0.36,0.096,0.729-0.117,0.825-0.476
	c0.048-0.18,0.019-0.362-0.067-0.511C28.245,19.974,28.101,19.857,27.922,19.809z M4.078,12.437l6.136,1.645
	c0.36,0.096,0.729-0.117,0.825-0.476c0.048-0.18,0.019-0.362-0.067-0.511c-0.086-0.149-0.229-0.266-0.409-0.314l-6.136-1.645
	c-0.36-0.096-0.729,0.117-0.825,0.476C3.506,11.972,3.719,12.341,4.078,12.437z M12.577,10.665c0.096,0.36,0.466,0.573,0.825,0.476
	c0.18-0.048,0.323-0.165,0.409-0.314c0.086-0.149,0.115-0.332,0.067-0.511l-1.644-6.137c-0.096-0.36-0.466-0.573-0.825-0.476
	c-0.36,0.096-0.573,0.466-0.476,0.825L12.577,10.665z M19.423,21.422c-0.096-0.36-0.466-0.573-0.825-0.476
	c-0.36,0.096-0.573,0.466-0.476,0.825l1.644,6.137c0.096,0.36,0.466,0.573,0.825,0.476c0.18-0.048,0.323-0.165,0.409-0.314
	c0.086-0.149,0.115-0.332,0.067-0.511L19.423,21.422z M15.107,20.006c-0.365,0.075-0.599,0.432-0.524,0.796
	c0.301,1.457-0.141,2.95-1.185,3.992l-4.081,4.081c-1.644,1.644-4.544,1.647-6.191,0c-1.706-1.707-1.706-4.484,0-6.191l4.082-4.081
	c1.025-1.025,2.495-1.473,3.935-1.196c0.368,0.068,0.719-0.168,0.789-0.534c0.07-0.366-0.169-0.719-0.535-0.79
	c-1.878-0.359-3.8,0.225-5.141,1.568l-4.082,4.081c-2.231,2.232-2.231,5.865,0,8.097C3.251,30.906,4.689,31.5,6.222,31.5
	s2.971-0.594,4.048-1.672l4.081-4.081c1.365-1.364,1.945-3.314,1.552-5.219C15.828,20.164,15.47,19.922,15.107,20.006z
	 M29.829,2.172C28.752,1.094,27.314,0.5,25.781,0.5c-1.533,0-2.971,0.594-4.048,1.672l-4.082,4.081
	c-1.365,1.365-1.945,3.315-1.552,5.219c0.075,0.365,0.434,0.603,0.796,0.523c0.365-0.075,0.599-0.432,0.524-0.796
	c-0.301-1.457,0.142-2.95,1.185-3.992l4.082-4.081c1.645-1.644,4.545-1.647,6.19,0c1.707,1.707,1.707,4.484,0,6.191l-4.081,4.081
	c-1.026,1.027-2.494,1.474-3.935,1.196c-0.361-0.067-0.718,0.17-0.789,0.534c-0.07,0.366,0.169,0.719,0.535,0.79
	c0.365,0.07,0.732,0.104,1.096,0.104c1.507,0,2.965-0.59,4.046-1.672l4.081-4.081C30.907,9.191,31.5,7.753,31.5,6.22
	S30.907,3.25,29.829,2.172z"/>
</svg>
