<?xml version="1.0" encoding="utf-8"?>
<!-- Generator: Adobe Illustrator 26.0.2, SVG Export Plug-In . SVG Version: 6.00 Build 0)  -->
<svg version="1.1" id="Layer_1" xmlns="http://www.w3.org/2000/svg" xmlns:xlink="http://www.w3.org/1999/xlink" x="0px" y="0px"
	 viewBox="0 0 32 32" enable-background="new 0 0 32 32" xml:space="preserve">
<path d="M25.396,13.297H12.108V9.225c0-2.104,1.746-3.816,3.892-3.816s3.892,1.712,3.892,3.816v1.062
	c0,0.353,0.291,0.638,0.651,0.638h3.194c0.36,0,0.651-0.285,0.651-0.638V9.225C24.388,4.69,20.625,1,16,1S7.612,4.69,7.612,9.225
	v4.072H6.604C5.172,13.297,4,14.445,4,15.85v12.597C4,29.851,5.172,31,6.604,31h18.793C26.828,31,28,29.851,28,28.447V15.85
	C28,14.445,26.828,13.297,25.396,13.297z M8.914,9.225c0-3.831,3.179-6.948,7.086-6.948s7.086,3.117,7.086,6.948v0.424h-1.892V9.225
	c0-2.808-2.33-5.093-5.193-5.093s-5.194,2.285-5.194,5.093v4.072H8.914V9.225z M26.698,28.447c0,0.704-0.584,1.277-1.302,1.277
	H6.604c-0.718,0-1.302-0.573-1.302-1.277V15.85c0-0.704,0.584-1.277,1.302-1.277h18.793c0.718,0,1.302,0.573,1.302,1.277V28.447z"/>
</svg>
