<?xml version="1.0" encoding="utf-8"?>
<!-- Generator: Adobe Illustrator 26.0.2, SVG Export Plug-In . SVG Version: 6.00 Build 0)  -->
<svg version="1.1" id="Layer_1" xmlns="http://www.w3.org/2000/svg" xmlns:xlink="http://www.w3.org/1999/xlink" x="0px" y="0px"
	 viewBox="0 0 32 32" enable-background="new 0 0 32 32" xml:space="preserve">
<path fill-rule="evenodd" clip-rule="evenodd" fill="#7927FF" d="M31.97,11.312l-11.63,18.89c-0.057,0.091-0.137,0.166-0.232,0.218
	c-0.095,0.052-0.202,0.08-0.31,0.081h-7.612c-0.109-0.002-0.216-0.031-0.311-0.084c-0.095-0.053-0.175-0.129-0.232-0.221
	L0.033,11.312c-0.024-0.039-0.035-0.085-0.032-0.13c0.003-0.046,0.022-0.089,0.051-0.124c0.03-0.035,0.07-0.06,0.116-0.071
	c0.045-0.011,0.093-0.008,0.136,0.008l3.902,1.47c0.037,0.015,0.078,0.019,0.117,0.011c0.039-0.008,0.075-0.027,0.103-0.055
	c0.028-0.028,0.046-0.064,0.053-0.103c0.007-0.039,0.002-0.078-0.014-0.114L0.091,1.778c-0.015-0.035-0.02-0.074-0.013-0.112
	c0.007-0.038,0.025-0.073,0.052-0.1C0.156,1.538,0.19,1.519,0.228,1.51c0.038-0.009,0.078-0.007,0.114,0.006l8.309,2.858
	C8.732,4.4,8.805,4.443,8.867,4.499c0.061,0.057,0.109,0.126,0.14,0.203l5.653,13.964c0.016,0.039,0.02,0.082,0.012,0.124
	c-0.008,0.041-0.029,0.08-0.059,0.11c-0.03,0.03-0.068,0.051-0.11,0.061c-0.042,0.009-0.086,0.006-0.126-0.008l-3.521-1.267
	c-0.043-0.016-0.09-0.018-0.135-0.006s-0.085,0.036-0.114,0.071c-0.03,0.035-0.048,0.077-0.052,0.123
	c-0.004,0.045,0.006,0.09,0.03,0.129l5.169,8.626c0.025,0.043,0.061,0.079,0.105,0.104c0.044,0.025,0.093,0.038,0.144,0.038
	c0.051,0,0.1-0.013,0.144-0.038c0.044-0.025,0.08-0.061,0.105-0.104l5.169-8.626c0.022-0.039,0.032-0.084,0.028-0.129
	c-0.004-0.045-0.022-0.087-0.052-0.122c-0.03-0.034-0.069-0.059-0.113-0.071c-0.044-0.012-0.091-0.01-0.134,0.005l-3.521,1.269
	c-0.041,0.015-0.085,0.019-0.127,0.01c-0.042-0.009-0.081-0.03-0.111-0.061c-0.03-0.03-0.051-0.069-0.059-0.111
	c-0.008-0.042-0.004-0.085,0.013-0.124l5.64-13.97c0.033-0.076,0.082-0.144,0.143-0.2c0.061-0.056,0.134-0.1,0.212-0.127
	l8.309-2.859c0.037-0.013,0.076-0.015,0.114-0.006c0.038,0.009,0.072,0.028,0.099,0.056c0.027,0.028,0.045,0.063,0.052,0.1
	c0.007,0.038,0.002,0.077-0.013,0.112l-4.374,10.429c-0.016,0.036-0.021,0.076-0.014,0.114c0.007,0.039,0.026,0.074,0.053,0.102
	c0.028,0.028,0.063,0.048,0.102,0.056c0.039,0.008,0.08,0.005,0.117-0.01l3.922-1.466c0.043-0.015,0.089-0.017,0.133-0.005
	c0.044,0.012,0.083,0.036,0.111,0.071c0.029,0.034,0.046,0.076,0.05,0.121C32.003,11.229,31.993,11.274,31.97,11.312z"/>
</svg>
