<?xml version="1.0" encoding="utf-8"?>
<!-- Generator: Adobe Illustrator 26.0.2, SVG Export Plug-In . SVG Version: 6.00 Build 0)  -->
<svg version="1.1" id="Layer_1" xmlns="http://www.w3.org/2000/svg" xmlns:xlink="http://www.w3.org/1999/xlink" x="0px" y="0px"
	 viewBox="0 0 32 32" enable-background="new 0 0 32 32" xml:space="preserve">
<path d="M28.522,0H3.478C1.56,0,0,1.56,0,3.478v25.043C0,30.44,1.56,32,3.478,32h25.043C30.44,32,32,30.44,32,28.522V3.478
	C32,1.56,30.44,0,28.522,0z M5.478,30.609h-2c-1.151,0-2.087-0.936-2.087-2.087v-3.826h4.087V30.609z M5.478,23.304H1.391v-6.609
	h4.087V23.304z M5.478,15.304H1.391V8.696h4.087V15.304z M5.478,7.304H1.391V3.478c0-1.151,0.936-2.087,2.087-2.087h2V7.304z
	 M25.13,30.609H6.87V1.391H25.13V30.609z M30.609,28.522c0,1.151-0.936,2.087-2.087,2.087h-2v-5.913h4.087V28.522z M30.609,23.304
	h-4.087v-6.609h4.087V23.304z M30.609,15.304h-4.087V8.696h4.087V15.304z M30.609,7.304h-4.087V1.391h2
	c1.151,0,2.087,0.936,2.087,2.087V7.304z M11.478,21.421c0.107,0.062,0.228,0.094,0.348,0.094s0.24-0.031,0.348-0.094l8.348-4.819
	c0.215-0.124,0.348-0.353,0.348-0.602c0-0.249-0.132-0.478-0.348-0.602l-8.348-4.819c-0.216-0.125-0.481-0.125-0.696,0
	c-0.215,0.124-0.348,0.353-0.348,0.602v9.639C11.13,21.068,11.263,21.298,11.478,21.421z M12.522,12.386L18.783,16l-6.261,3.614
	V12.386z"/>
</svg>
