<?xml version="1.0" encoding="utf-8"?>
<!-- Generator: Adobe Illustrator 26.0.2, SVG Export Plug-In . SVG Version: 6.00 Build 0)  -->
<svg version="1.1" id="Layer_1" xmlns="http://www.w3.org/2000/svg" xmlns:xlink="http://www.w3.org/1999/xlink" x="0px" y="0px"
	 viewBox="0 0 32 32" enable-background="new 0 0 32 32" xml:space="preserve">
<path d="M28.4,4.5H3.6c-1.709,0-3.1,1.386-3.1,3.091v16.817c0,1.705,1.391,3.091,3.1,3.091h24.8c1.709,0,3.1-1.386,3.1-3.091V7.591
	C31.5,5.886,30.109,4.5,28.4,4.5z M1.74,19.669h28.52v2.555H1.74V19.669z M3.6,5.737h24.8c1.026,0,1.86,0.832,1.86,1.855v10.841
	H1.74V7.591C1.74,6.569,2.574,5.737,3.6,5.737z M28.4,26.263H3.6c-1.026,0-1.86-0.832-1.86-1.855v-0.948h28.52v0.948
	C30.26,25.431,29.426,26.263,28.4,26.263z"/>
</svg>
