<?xml version="1.0" encoding="utf-8"?><svg xmlns="http://www.w3.org/2000/svg" xmlns:xlink="http://www.w3.org/1999/xlink"><symbol viewBox="0 0 16 16" id="download" xmlns="http://www.w3.org/2000/svg"><path d="M15.5 8.47a2.787 2.787 0 01-2.786 2.783h-2.303a.43.43 0 110-.859h2.303a1.926 1.926 0 001.925-1.924 1.926 1.926 0 00-1.925-1.921h-.43V6.12c0-2.35-1.922-4.261-4.284-4.261a4.298 4.298 0 00-3.736 2.162l-.1.176-.2.035a3.112 3.112 0 00-2.603 3.063 3.105 3.105 0 003.105 3.098H5.59a.43.43 0 110 .859H4.466A3.966 3.966 0 01.5 7.295c0-1.877 1.279-3.461 3.118-3.871A5.186 5.186 0 018 1c2.689 0 4.922 2.066 5.129 4.721A2.778 2.778 0 0115.5 8.47zm-5.876 3.872L8.43 13.534V6.126a.43.43 0 00-.86 0v7.407l-1.194-1.192a.441.441 0 00-.609 0 .427.427 0 000 .608l1.928 1.925A.44.44 0 008 15a.434.434 0 00.305-.126l1.928-1.925a.427.427 0 000-.608.442.442 0 00-.609.001z"/></symbol><symbol viewBox="0 0 16 16" id="link" xmlns="http://www.w3.org/2000/svg"><path d="M8.716 9.489a2.845 2.845 0 01-.772 2.595L5.36 14.669a2.827 2.827 0 01-2.014.831 2.827 2.827 0 01-2.014-.831 2.852 2.852 0 010-4.028l2.584-2.584a2.847 2.847 0 012.558-.78c.24.046.398.279.352.519a.45.45 0 01-.519.353 1.956 1.956 0 00-1.763.535L1.96 11.268a1.964 1.964 0 000 2.773c.739.738 2.034.739 2.773 0l2.584-2.584a1.958 1.958 0 00.53-1.788.438.438 0 01.064-.334.438.438 0 01.28-.19.435.435 0 01.329.058.45.45 0 01.196.286zm5.953-8.158C14.133.795 13.418.5 12.655.5s-1.478.295-2.014.831L8.058 3.916a2.844 2.844 0 00-.773 2.595.44.44 0 00.524.345.441.441 0 00.345-.525 1.961 1.961 0 01.531-1.788l2.584-2.584c.351-.35.856-.551 1.386-.551h.001c.53 0 1.035.201 1.385.551.37.37.573.862.573 1.386 0 .524-.204 1.017-.573 1.387l-2.584 2.584a1.957 1.957 0 01-1.763.536.448.448 0 00-.519.353.445.445 0 00.353.518c.18.035.363.052.545.052.762 0 1.477-.295 2.012-.831l2.584-2.584a2.832 2.832 0 00.831-2.015 2.83 2.83 0 00-.831-2.014zm-9.464 9.021c0 .118.046.23.13.313a.442.442 0 00.628.001l4.704-4.704a.444.444 0 00-.314-.757.44.44 0 00-.313.13l-4.704 4.704a.433.433 0 00-.131.313z"/></symbol><symbol viewBox="0 0 16 16" id="trash" xmlns="http://www.w3.org/2000/svg"><path d="M10.053 13.718a.438.438 0 01-.118-.318l.36-8.753c.01-.245.236-.429.484-.433a.474.474 0 01.331.15.445.445 0 01.119.318l-.36 8.754a.459.459 0 01-.467.433.48.48 0 01-.349-.151zM8 13.869a.46.46 0 00.467-.451V4.665c0-.249-.209-.451-.467-.451s-.467.202-.467.451v8.753a.46.46 0 00.467.451zm-2.385 0a.474.474 0 00.332-.15.438.438 0 00.118-.318l-.36-8.753a.446.446 0 00-.142-.311.482.482 0 00-.672.027.436.436 0 00-.119.319l.36 8.753c.01.242.214.433.483.433zM15.25 2.608a.46.46 0 01-.467.451h-.66l-.935 11.374c-.157.913-.951 1.567-1.89 1.567H4.702c-.938 0-1.731-.643-1.885-1.528l-.94-11.413h-.66a.46.46 0 01-.467-.451.46.46 0 01.467-.451h4.055v-.328C5.272.82 6.129 0 7.183 0h1.634c1.054 0 1.911.82 1.911 1.829v.328h4.055a.46.46 0 01.467.451zm-5.456-.451v-.328c0-.511-.438-.926-.977-.926H7.183c-.539 0-.977.415-.977.926v.328h3.588zm-6.98.902l.929 11.302c.074.415.487.736.96.736h6.596c.479 0 .883-.324.964-.77l.924-11.268H2.814z"/></symbol><symbol viewBox="0 0 16 16" id="unlink" xmlns="http://www.w3.org/2000/svg"><path d="M6.371 5.461L5.589 2.54a.32.32 0 11.62-.166l.782 2.921a.323.323 0 01-.227.393.321.321 0 01-.393-.227zm2.865 4.893a.321.321 0 00-.227.393l.782 2.921a.321.321 0 00.62-.165l-.782-2.923a.32.32 0 00-.393-.226zM5.843 6.353a.32.32 0 10.453-.454L4.159 3.761a.322.322 0 00-.454.454l2.138 2.138zm-3.517-.049l2.921.783a.319.319 0 00.392-.227.318.318 0 00-.226-.392l-2.92-.783a.32.32 0 10-.167.619zm11.348 3.509l-2.921-.783a.321.321 0 00-.166.62l2.921.783a.321.321 0 00.166-.62zm-3.525-.098a.32.32 0 10-.453.454l2.138 2.138a.32.32 0 10.453-.454l-2.138-2.138zm-2.27.13a.425.425 0 00-.33-.058.444.444 0 00-.344.524 1.958 1.958 0 01-.53 1.788l-1.942 1.942c-.739.739-2.034.738-2.773 0a1.964 1.964 0 010-2.773l1.943-1.943a1.963 1.963 0 011.764-.535.444.444 0 00.166-.872 2.843 2.843 0 00-2.557.779L1.333 10.64a2.852 2.852 0 000 4.028 2.822 2.822 0 002.013.832c.763 0 1.478-.295 2.014-.831l1.943-1.943a2.844 2.844 0 00.772-2.595.451.451 0 00-.196-.286zm6.79-8.514C14.133.795 13.418.5 12.655.5s-1.478.295-2.014.831L8.699 3.274a2.846 2.846 0 00-.772 2.595.44.44 0 00.524.345.444.444 0 00.345-.524 1.96 1.96 0 01.531-1.789l1.943-1.942c.351-.35.856-.551 1.386-.551h.001c.53 0 1.035.201 1.385.551.37.37.573.862.573 1.386 0 .524-.204 1.017-.573 1.387L12.1 6.675a1.96 1.96 0 01-1.764.535.448.448 0 00-.519.352.444.444 0 00.352.519c.179.035.362.052.545.052.761 0 1.476-.295 2.012-.832l1.942-1.943a2.82 2.82 0 00.832-2.013 2.83 2.83 0 00-.831-2.014z"/></symbol><symbol viewBox="0 0 16 16" id="wallet" xmlns="http://www.w3.org/2000/svg"><path d="M14.302 2H1.699C.762 2 0 2.764 0 3.704v8.592C0 13.236.762 14 1.699 14h12.603c.936 0 1.698-.764 1.698-1.704V3.704C16 2.764 15.238 2 14.302 2zm.822 9.936v.36a.823.823 0 01-.822.823H1.699a.823.823 0 01-.822-.823v-.36h14.247zm0-1.937v1.057H.876V9.999h14.248zm0-6.295v5.414H.876V3.704c0-.454.369-.823.822-.823h12.603c.454 0 .823.369.823.823z"/></symbol></svg>