<?xml version="1.0" encoding="utf-8"?><svg xmlns="http://www.w3.org/2000/svg" xmlns:xlink="http://www.w3.org/1999/xlink"><symbol viewBox="0 0 16 16" id="download" xmlns="http://www.w3.org/2000/svg"><path d="M15.5 8.47a2.787 2.787 0 01-2.786 2.783h-2.303a.43.43 0 110-.859h2.303a1.926 1.926 0 001.925-1.924 1.926 1.926 0 00-1.925-1.921h-.43V6.12c0-2.35-1.922-4.261-4.284-4.261a4.298 4.298 0 00-3.736 2.162l-.1.176-.2.035a3.112 3.112 0 00-2.603 3.063 3.105 3.105 0 003.105 3.098H5.59a.43.43 0 110 .859H4.466A3.966 3.966 0 01.5 7.295c0-1.877 1.279-3.461 3.118-3.871A5.186 5.186 0 018 1c2.689 0 4.922 2.066 5.129 4.721A2.778 2.778 0 0115.5 8.47zm-5.876 3.872L8.43 13.534V6.126a.43.43 0 00-.86 0v7.407l-1.194-1.192a.441.441 0 00-.609 0 .427.427 0 000 .608l1.928 1.925A.44.44 0 008 15a.434.434 0 00.305-.126l1.928-1.925a.427.427 0 000-.608.442.442 0 00-.609.001z"/></symbol><symbol viewBox="0 0 16 16" id="trash" xmlns="http://www.w3.org/2000/svg"><path d="M10.053 13.718a.438.438 0 01-.118-.318l.36-8.753c.01-.245.236-.429.484-.433a.474.474 0 01.331.15.445.445 0 01.119.318l-.36 8.754a.459.459 0 01-.467.433.48.48 0 01-.349-.151zM8 13.869a.46.46 0 00.467-.451V4.665c0-.249-.209-.451-.467-.451s-.467.202-.467.451v8.753a.46.46 0 00.467.451zm-2.385 0a.474.474 0 00.332-.15.438.438 0 00.118-.318l-.36-8.753a.446.446 0 00-.142-.311.482.482 0 00-.672.027.436.436 0 00-.119.319l.36 8.753c.01.242.214.433.483.433zM15.25 2.608a.46.46 0 01-.467.451h-.66l-.935 11.374c-.157.913-.951 1.567-1.89 1.567H4.702c-.938 0-1.731-.643-1.885-1.528l-.94-11.413h-.66a.46.46 0 01-.467-.451.46.46 0 01.467-.451h4.055v-.328C5.272.82 6.129 0 7.183 0h1.634c1.054 0 1.911.82 1.911 1.829v.328h4.055a.46.46 0 01.467.451zm-5.456-.451v-.328c0-.511-.438-.926-.977-.926H7.183c-.539 0-.977.415-.977.926v.328h3.588zm-6.98.902l.929 11.302c.074.415.487.736.96.736h6.596c.479 0 .883-.324.964-.77l.924-11.268H2.814z"/></symbol><symbol viewBox="0 0 16 16" id="wallet" xmlns="http://www.w3.org/2000/svg"><path fill="#1D1D1B" d="M14.302 2H1.699C.762 2 0 2.764 0 3.704v8.592C0 13.236.762 14 1.699 14h12.603c.936 0 1.698-.764 1.698-1.704V3.704C16 2.764 15.238 2 14.302 2zm.822 9.936v.36a.823.823 0 01-.822.823H1.699a.823.823 0 01-.822-.823v-.36h14.247zm0-1.937v1.057H.876V9.999h14.248zm0-6.295v5.414H.876V3.704c0-.454.369-.823.822-.823h12.603c.454 0 .823.369.823.823z"/></symbol></svg>