<?xml version="1.0" encoding="utf-8"?><svg xmlns="http://www.w3.org/2000/svg" xmlns:xlink="http://www.w3.org/1999/xlink"><symbol viewBox="0 0 24 24" id="collection" xmlns="http://www.w3.org/2000/svg"><path d="M23.975 11.852l-1.896-5.519c-.005-.014-.016-.023-.022-.036-.007-.015-.007-.032-.016-.046l-.001-.001c-.013-.022-.033-.038-.047-.06l-.013-.017a2.754 2.754 0 00-.958-.931L13.391.871A2.81 2.81 0 0012.01.504C12.007.502 12.004.5 12 .5l-.011.002a2.79 2.79 0 00-1.381.368L2.976 5.24c-.395.227-.72.553-.96.934l-.007.008c-.015.025-.038.043-.052.068-.009.016-.01.034-.017.05-.005.012-.015.02-.019.033L.025 11.852a.456.456 0 00.207.546l1.352.774v3.198c0 .983.533 1.899 1.392 2.391l7.632 4.369c.429.247.91.37 1.392.37.482 0 .963-.123 1.392-.369l7.631-4.369a2.763 2.763 0 001.392-2.391v-3.197l1.353-.775a.458.458 0 00.207-.547zM20.56 6.037c.146.083.277.187.394.305l-6.601 3.78-.961-.55a2.77 2.77 0 00-.928-.309V1.48c.161.041.317.102.464.186l7.632 4.371zM12 11.469l-1.426-.816.498-.285a1.878 1.878 0 011.856 0l.498.285-1.426.816zM3.44 6.036l7.632-4.369c.147-.084.303-.145.464-.186v7.782a2.782 2.782 0 00-.928.308l-.962.551-6.6-3.779c.116-.118.248-.222.394-.307zm-.824 1.123l8.822 5.051-1.591 4.633-8.821-5.051 1.59-4.633zm.824 10.806a1.845 1.845 0 01-.928-1.595v-2.667l7.36 4.215a.466.466 0 00.671-.25l.993-2.891v7.743a1.854 1.854 0 01-.464-.186L3.44 17.965zm18.047-1.594c0 .655-.356 1.266-.928 1.595l-7.631 4.369a1.87 1.87 0 01-.464.186v-7.743l.993 2.891a.46.46 0 00.439.312c.081 0 .16-.021.232-.062l7.36-4.214v2.666zm-7.335.471l-1.591-4.633 2.02-1.157 6.802-3.895 1.591 4.633-8.822 5.052z"/></symbol><symbol viewBox="0 0 24 24" id="discord" xmlns="http://www.w3.org/2000/svg"><path d="M20.317 4.367a19.827 19.827 0 00-4.885-1.516.074.074 0 00-.078.037c-.211.375-.445.865-.608 1.25a18.284 18.284 0 00-5.487 0 12.717 12.717 0 00-.618-1.25.078.078 0 00-.079-.037 19.77 19.77 0 00-4.885 1.516.067.067 0 00-.032.028C.533 9.045-.319 13.58.099 18.06a.081.081 0 00.031.056 19.905 19.905 0 005.993 3.031.076.076 0 00.084-.028 14.25 14.25 0 001.226-1.995.076.076 0 00-.042-.106 13.125 13.125 0 01-1.872-.893.078.078 0 01-.008-.128 9.74 9.74 0 00.372-.291.076.076 0 01.078-.011c3.928 1.794 8.18 1.794 12.061 0a.074.074 0 01.079.01c.12.099.246.198.373.292.043.032.041.1-.007.128-.598.35-1.219.645-1.873.892a.077.077 0 00-.041.107c.36.698.772 1.363 1.225 1.994a.076.076 0 00.084.029 19.808 19.808 0 006.002-3.031.076.076 0 00.031-.055c.5-5.179-.838-9.677-3.549-13.665-.004-.014-.016-.023-.029-.029zM8.02 15.332c-1.182 0-2.157-1.086-2.157-2.42s.955-2.42 2.157-2.42c1.211 0 2.176 1.096 2.157 2.42 0 1.334-.956 2.42-2.157 2.42zm7.975 0c-1.182 0-2.157-1.086-2.157-2.42s.955-2.42 2.157-2.42c1.211 0 2.176 1.096 2.157 2.42 0 1.334-.946 2.42-2.157 2.42z"/></symbol><symbol viewBox="0 0 24 24" id="edit" xmlns="http://www.w3.org/2000/svg"><path d="M22.119 1.883A4.692 4.692 0 0018.779.5a4.691 4.691 0 00-3.339 1.383l-1.071 1.071-.004.004-12.361 12.36a.491.491 0 00-.123.233c-.003.011-.014.019-.016.031L.508 22.91a.5.5 0 00.583.581l7.329-1.356c.011-.002.018-.013.029-.015a.5.5 0 00.234-.123L22.119 8.562a4.729 4.729 0 000-6.679zM3.463 15.273L14.919 3.819a5.47 5.47 0 015.264 5.265L8.727 20.538a6.48 6.48 0 00-5.264-5.265zm-.694.92a5.473 5.473 0 015.039 5.038l-6.183 1.145 1.144-6.183zm18.322-8.018a6.48 6.48 0 00-5.265-5.265l.32-.32c1.406-1.407 3.858-1.406 5.265 0a3.728 3.728 0 010 5.265l-.32.32z"/></symbol><symbol viewBox="0 0 24 24" id="email" xmlns="http://www.w3.org/2000/svg"><path d="M22.312 4.5H1.688C.757 4.5 0 5.272 0 6.222v11.556c0 .949.758 1.722 1.688 1.722h20.624c.931 0 1.688-.772 1.688-1.722V6.222c0-.95-.758-1.722-1.688-1.722zm-.576 1.105l-9.341 6.127a.728.728 0 01-.787.002L2.263 5.606h19.473v-.001zm1.304 12.173a.737.737 0 01-.728.743H1.688a.737.737 0 01-.728-.743V6.222c0-.138.047-.259.111-.37l10.014 6.697a1.676 1.676 0 001.835-.002l10.01-6.695a.733.733 0 01.111.37v11.556h-.001z"/></symbol><symbol viewBox="0 0 24 24" id="facebook" xmlns="http://www.w3.org/2000/svg"><path d="M13.887 24H9.396V12H6.4V7.864l2.996-.001-.004-2.436C9.391 2.052 10.305 0 14.273 0h3.304v4.137h-2.065c-1.545 0-1.62.577-1.62 1.657l-.006 2.07H17.6L17.162 12l-3.273.001L13.887 24z"/></symbol><symbol viewBox="0 0 24 24" id="instagram" xmlns="http://www.w3.org/2000/svg"><path d="M12 2.163c3.205 0 3.583.013 4.849.071 1.17.054 1.806.248 2.228.414.56.217.96.477 1.379.898.419.419.68.82.898 1.379.164.424.36 1.059.414 2.228.058 1.265.071 1.645.071 4.849s-.013 3.583-.071 4.849c-.054 1.17-.248 1.806-.414 2.228-.217.56-.477.96-.898 1.379-.419.419-.82.68-1.379.898-.424.164-1.059.36-2.228.414-1.265.058-1.645.071-4.849.071s-3.584-.013-4.849-.071c-1.17-.054-1.806-.248-2.228-.414a3.688 3.688 0 01-1.379-.898 3.733 3.733 0 01-.898-1.379c-.164-.424-.36-1.059-.414-2.228-.058-1.268-.069-1.646-.069-4.851s.013-3.583.071-4.849c.054-1.17.248-1.806.414-2.228.217-.56.477-.96.898-1.379.419-.419.82-.68 1.379-.898.424-.164 1.059-.36 2.228-.414 1.264-.058 1.642-.069 4.847-.069M12 0C8.742 0 8.332.014 7.052.072 5.774.13 4.902.333 4.14.63a5.885 5.885 0 00-2.126 1.384A5.885 5.885 0 00.63 4.14c-.296.764-.5 1.636-.558 2.912C.014 8.332 0 8.742 0 12s.014 3.668.072 4.948c.058 1.278.261 2.15.558 2.912a5.885 5.885 0 001.384 2.126A5.885 5.885 0 004.14 23.37c.764.296 1.636.5 2.912.558 1.28.058 1.69.072 4.948.072s3.668-.014 4.948-.072c1.278-.058 2.15-.261 2.912-.558a5.885 5.885 0 002.126-1.384 5.885 5.885 0 001.384-2.126c.296-.764.5-1.636.558-2.912.058-1.28.072-1.69.072-4.948s-.014-3.668-.072-4.948c-.058-1.278-.261-2.15-.558-2.912a5.885 5.885 0 00-1.384-2.126A5.885 5.885 0 0019.86.63c-.764-.296-1.636-.5-2.912-.558C15.668.014 15.258 0 12 0zm0 5.838a6.162 6.162 0 100 12.323 6.162 6.162 0 000-12.323zM12 16a4 4 0 010-8 4 4 0 010 8zm6.405-11.845a1.44 1.44 0 100 2.88 1.44 1.44 0 000-2.88z"/></symbol><symbol viewBox="0 0 24 24" id="link" xmlns="http://www.w3.org/2000/svg"><path d="M12.928 14.36a4.245 4.245 0 01-1.151 3.872L7.749 22.26c-.799.8-1.866 1.24-3.004 1.24s-2.204-.44-3.004-1.24a4.254 4.254 0 010-6.008l4.028-4.028a4.252 4.252 0 013.815-1.163.501.501 0 01-.188.982 3.252 3.252 0 00-2.919.888l-4.028 4.028a3.253 3.253 0 000 4.594c1.222 1.222 3.373 1.22 4.593 0l4.028-4.028a3.245 3.245 0 00.879-2.962.5.5 0 01.389-.591.494.494 0 01.59.388zM22.26 1.74A4.214 4.214 0 0019.257.5c-1.138 0-2.204.44-3.004 1.24l-4.028 4.028a4.242 4.242 0 00-1.151 3.872.501.501 0 00.98-.203 3.246 3.246 0 01.879-2.962l4.028-4.028c1.221-1.22 3.372-1.222 4.593 0a3.253 3.253 0 010 4.594l-4.028 4.028a3.245 3.245 0 01-2.919.888.5.5 0 00-.188.982c.27.052.543.077.813.077 1.118 0 2.2-.437 3.002-1.24l4.028-4.028c.8-.8 1.24-1.866 1.24-3.004S23.06 2.54 22.26 1.74zM7.981 16.02a.497.497 0 00.706 0l7.333-7.333a.5.5 0 00-.707-.707L7.98 15.313a.501.501 0 00.001.707z"/></symbol><symbol viewBox="0 0 24 24" id="linkedin" xmlns="http://www.w3.org/2000/svg"><path d="M19.969 0H4.031A4.043 4.043 0 000 4.031v15.938A4.043 4.043 0 004.031 24h15.938A4.043 4.043 0 0024 19.969V4.031A4.043 4.043 0 0019.969 0zM9 19.5H6V9h3v10.5zm-1.5-12a1.5 1.5 0 11-.001-2.999A1.5 1.5 0 017.5 7.5zm12 12h-3v-6a1.5 1.5 0 10-3 0v6h-3V9h3v1.862C14.119 10.012 15.064 9 16.125 9c1.864 0 3.375 1.679 3.375 3.75v6.75z"/></symbol><symbol viewBox="0 0 24 24" id="medium" xmlns="http://www.w3.org/2000/svg"><path d="M23.898 5.803l-7.482 12.068-5.231-8.436 4.686-7.558a.278.278 0 01.234-.126l.007.001a.265.265 0 01.11.026l7.603 3.773a.177.177 0 01.073.252zm-15.192.973L16 18.539 8.706 14.92V6.776zm7.932 12.075L24 6.976v14.791c0 .406-.299.589-.665.408l-6.697-3.324zM7.901 5.587c.06.03.099.091.099.158v16.027c0 .299-.163.478-.395.478a.612.612 0 01-.269-.07L.443 18.76A.872.872 0 010 18.048V2.158c0-.099.027-.178.072-.232a.241.241 0 01.191-.086c.055 0 .116.015.18.047l.443.22 7.015 3.48z"/></symbol><symbol viewBox="0 0 24 24" id="patreon" xmlns="http://www.w3.org/2000/svg"><path d="M24 9.135c0 4.747-3.864 8.609-8.615 8.609-4.765 0-8.641-3.862-8.641-8.609C6.744 4.373 10.621.5 15.385.5 20.136.5 24 4.373 24 9.135zM0 23.5h4.219V.5H0v23z"/></symbol><symbol viewBox="0 0 24 24" id="pinterest" xmlns="http://www.w3.org/2000/svg"><path d="M12 0C5.372 0 0 5.372 0 12s5.372 12 12 12 12-5.372 12-12S18.628 0 12 0zm1.163 16.034c-1.091-.085-1.548-.625-2.402-1.144-.47 2.465-1.044 4.828-2.745 6.063-.524-3.727.771-6.524 1.373-9.495-1.025-1.728.124-5.205 2.289-4.348 2.663 1.054-2.306 6.423 1.03 7.093 3.483.7 4.905-6.043 2.745-8.236-3.12-3.166-9.083-.073-8.351 4.462.179 1.108 1.324 1.444.458 2.974-1.997-.442-2.593-2.019-2.517-4.118.124-3.438 3.089-5.845 6.063-6.177 3.762-.421 7.292 1.38 7.779 4.919.548 3.992-1.7 8.318-5.722 8.007z"/></symbol><symbol viewBox="0 0 24 24" id="profile" xmlns="http://www.w3.org/2000/svg"><path d="M12 11c2.895 0 5.25-2.356 5.25-5.25S14.895.5 12 .5 6.75 2.856 6.75 5.75 9.105 11 12 11zm0-9.545c2.369 0 4.295 1.927 4.295 4.295S14.369 10.045 12 10.045 7.705 8.119 7.705 5.75 9.631 1.455 12 1.455zM23 23.5h-1.044l-.013-.113c-.69-5.807-5.057-10.356-9.943-10.356-4.887 0-9.253 4.549-9.942 10.356l-.014.113H1l.016-.142c.348-3.092 1.662-5.957 3.697-8.069C6.758 13.168 9.346 12 12.001 12c2.654 0 5.242 1.168 7.286 3.289 2.035 2.112 3.349 4.978 3.697 8.069L23 23.5z"/></symbol><symbol viewBox="0 0 24 24" id="soundcloud" xmlns="http://www.w3.org/2000/svg"><path d="M20.906 11.302a3.21 3.21 0 00-1.197.231c-.246-2.681-2.585-4.783-5.438-4.783-.699 0-1.375.132-1.977.356-.233.086-.294.176-.294.349v9.438c0 .182.146.333.331.352l8.575.004c1.709 0 3.094-1.332 3.094-2.974.001-1.641-1.385-2.973-3.094-2.973zM9.375 17.25h.75l.375-5.255-.375-5.244h-.75L9 11.995l.375 5.255zm-2.25 0h-.75L6 13.436l.375-3.686h.75L7.5 13.5l-.375 3.75zm-3.75 0h.75l.375-3-.375-3h-.75l-.375 3 .375 3zm-3-1.5h.75l.375-1.5-.375-1.5h-.75L0 14.25l.375 1.5z"/></symbol><symbol viewBox="0 0 24 24" id="twitter" xmlns="http://www.w3.org/2000/svg"><path d="M21.541 6.981c.01.216.014.434.014.653C21.555 14.306 16.603 22 7.547 22A13.69 13.69 0 010 19.732a9.722 9.722 0 007.289-2.09c-2.155-.041-3.972-1.501-4.599-3.506a4.869 4.869 0 002.224-.086C2.662 13.585.965 11.545.965 9.098l.001-.063a4.818 4.818 0 002.231.631 5.084 5.084 0 01-2.191-4.203c0-.925.243-1.792.667-2.539C4.101 5.978 7.728 7.989 11.82 8.199a5.239 5.239 0 01-.127-1.151C11.693 4.26 13.898 2 16.617 2c1.416 0 2.695.613 3.594 1.594a9.728 9.728 0 003.127-1.225 5.045 5.045 0 01-2.166 2.793A9.68 9.68 0 0024 4.367a10.169 10.169 0 01-2.459 2.614z"/></symbol><symbol viewBox="0 0 24 24" id="unlink" xmlns="http://www.w3.org/2000/svg"><path d="M5.304 6.099a.5.5 0 01.707-.707l3.333 3.333a.498.498 0 010 .708.5.5 0 01-.707 0L5.304 6.099zm10.046 8.574a.5.5 0 00-.707.707l3.333 3.333a.5.5 0 00.707-.708l-3.333-3.332zm5.495.153l-4.553-1.22a.499.499 0 10-.259.966l4.553 1.22a.499.499 0 10.259-.966zM3.155 9.357l4.553 1.22a.499.499 0 10.259-.966l-4.553-1.22a.5.5 0 10-.259.966zm6.306-1.315a.5.5 0 10.966-.258L9.207 3.23a.5.5 0 00-.966.259l1.22 4.553zm5.078 7.98a.5.5 0 10-.965.259l1.22 4.553a.5.5 0 10.966-.258l-1.221-4.554zm-3.201-1.05a.501.501 0 00-.389.591 3.243 3.243 0 01-.879 2.962l-3.028 3.028c-1.22 1.22-3.371 1.222-4.593 0a3.253 3.253 0 010-4.594l3.029-3.028a3.252 3.252 0 012.919-.888.5.5 0 10.188-.982 4.253 4.253 0 00-3.815 1.163l-3.029 3.028a4.254 4.254 0 000 6.008c.799.8 1.866 1.24 3.004 1.24s2.204-.44 3.004-1.24l3.028-3.028a4.24 4.24 0 001.151-3.872.494.494 0 00-.59-.388zM22.26 1.74A4.214 4.214 0 0019.257.5c-1.138 0-2.204.44-3.004 1.24l-3.029 3.028a4.242 4.242 0 00-1.151 3.872.501.501 0 00.98-.203 3.246 3.246 0 01.879-2.962l3.029-3.028c1.221-1.22 3.372-1.222 4.593 0a3.253 3.253 0 010 4.594l-3.028 3.028a3.245 3.245 0 01-2.919.888.5.5 0 00-.188.982c.27.052.543.077.813.077 1.118 0 2.2-.437 3.002-1.24l3.028-3.028c.8-.8 1.24-1.866 1.24-3.004S23.06 2.54 22.26 1.74z"/></symbol><symbol viewBox="0 0 24 24" id="wallet" xmlns="http://www.w3.org/2000/svg"><path d="M21.2 3.5H2.8A2.295 2.295 0 00.5 5.785v12.43A2.295 2.295 0 002.8 20.5h18.4c1.268 0 2.3-1.025 2.3-2.285V5.785A2.295 2.295 0 0021.2 3.5zM1.42 14.712h21.16V16.6H1.42v-1.888zM2.8 4.414h18.4c.761 0 1.38.615 1.38 1.371v8.013H1.42V5.785c0-.756.619-1.371 1.38-1.371zm18.4 15.172H2.8c-.761 0-1.38-.615-1.38-1.371v-.701h21.16v.701c0 .756-.619 1.371-1.38 1.371z"/></symbol><symbol viewBox="0 0 24 24" id="website" xmlns="http://www.w3.org/2000/svg"><path d="M12.73.037l-.113-.013c-.08-.01-.179-.024-.284-.024h-.005c-.05.006-.077.01-.099.01L12 0C5.383 0 0 5.383 0 12s5.383 12 12.002 12l.225-.011.083.009a2.63 2.63 0 00.3-.02l.104-.013C19.043 23.583 24 18.327 24 12 24 5.674 19.05.419 12.73.037zm3.316 21.662c.909-1.266 1.621-2.963 2.057-4.909l.051-.225.229.026c1.581.183 2.541.394 2.973.504l.33.084-.169.293a11.123 11.123 0 01-5.16 4.613l-.852.37.541-.756zm5.642-14.192c-.251.078-1.22.35-3.172.582l-.238.028-.045-.235c-.421-2.244-1.178-4.174-2.187-5.579l-.543-.755.852.37a11.032 11.032 0 015.487 5.23l.133.27-.287.089zm-3.316 7.796a22.884 22.884 0 00.09-5.932l-.029-.254.252-.03c1.559-.186 3.125-.496 3.699-.656.047.136.091.273.132.409l.013.039c.303 1.015.457 2.065.457 3.121 0 1.378-.262 2.736-.779 4.038l-.086.218-.224-.065c-.363-.106-1.413-.375-3.304-.597l-.263-.031.042-.26zM17.16 9.24l.245-.021.03.245c.108.868.163 1.721.163 2.537 0 1.087-.087 2.173-.257 3.229l-.037.234-.235-.019a62.995 62.995 0 00-4.333-.182l-.253-.003V9.431l.253-.002a62.09 62.09 0 004.424-.189zm-4.677-.82V1.045l.327.096c1.945.566 3.621 3.168 4.376 6.792l.059.285-.29.023c-1.266.101-2.684.16-4.214.177l-.258.002zm4.615 8.044l-.074.296c-.824 3.291-2.399 5.573-4.213 6.101l-.327.096v-6.683l.258.002c1.46.015 2.824.07 4.054.165l.302.023zM5.5 9.394c-.122.873-.184 1.75-.184 2.606 0 1.078.099 2.18.294 3.275l.049.271-.273.029c-1.776.193-2.846.416-3.326.533l-.218.054-.081-.21a10.903 10.903 0 01-.237-7.258l.074-.235.237.065c.205.055 1.331.344 3.439.578l.262.029-.036.263zm5.969-8.335v7.36l-.259-.002a64.103 64.103 0 01-4.221-.174l-.293-.022.062-.287c.766-3.56 2.443-6.153 4.377-6.768l.334-.107zm0 15.214v6.669l-.334-.107c-1.803-.573-3.377-2.846-4.211-6.077l-.077-.298.306-.023a64.874 64.874 0 014.055-.161l.261-.003zm-4.6-.832l-.233.018-.039-.231a19.686 19.686 0 01-.265-3.226c0-.819.057-1.671.168-2.533l.031-.242.243.019a65.44 65.44 0 004.442.183l.254.002v5.828l-.254.004a64.796 64.796 0 00-4.347.178zM8.243 1.688l.93-.339-.648.749C7.279 3.536 6.304 5.6 5.778 7.909l-.051.222-.226-.024c-1.796-.195-2.845-.423-3.213-.512l-.31-.074.139-.287a10.954 10.954 0 016.126-5.546zm-5.63 15.335c.58-.123 1.579-.301 3.046-.454l.216-.023.057.211c.554 2.049 1.45 3.829 2.592 5.147l.648.75-.93-.34a11.028 11.028 0 01-5.799-4.911l-.173-.305.343-.075z"/></symbol></svg>