<?xml version="1.0" encoding="utf-8"?><svg xmlns="http://www.w3.org/2000/svg" xmlns:xlink="http://www.w3.org/1999/xlink"><symbol viewBox="0 0 24 24" id="collection" xmlns="http://www.w3.org/2000/svg"><path d="M23.975 11.852l-1.896-5.519c-.005-.014-.016-.023-.022-.036-.007-.015-.007-.032-.016-.046l-.001-.001c-.013-.022-.033-.038-.047-.06l-.013-.017a2.754 2.754 0 00-.958-.931L13.391.871A2.81 2.81 0 0012.01.504C12.007.502 12.004.5 12 .5l-.011.002a2.79 2.79 0 00-1.381.368L2.976 5.24c-.395.227-.72.553-.96.934l-.007.008c-.015.025-.038.043-.052.068-.009.016-.01.034-.017.05-.005.012-.015.02-.019.033L.025 11.852a.456.456 0 00.207.546l1.352.774v3.198c0 .983.533 1.899 1.392 2.391l7.632 4.369c.429.247.91.37 1.392.37.482 0 .963-.123 1.392-.369l7.631-4.369a2.763 2.763 0 001.392-2.391v-3.197l1.353-.775a.458.458 0 00.207-.547zM20.56 6.037c.146.083.277.187.394.305l-6.601 3.78-.961-.55a2.77 2.77 0 00-.928-.309V1.48c.161.041.317.102.464.186l7.632 4.371zM12 11.469l-1.426-.816.498-.285a1.878 1.878 0 011.856 0l.498.285-1.426.816zM3.44 6.036l7.632-4.369c.147-.084.303-.145.464-.186v7.782a2.782 2.782 0 00-.928.308l-.962.551-6.6-3.779c.116-.118.248-.222.394-.307zm-.824 1.123l8.822 5.051-1.591 4.633-8.821-5.051 1.59-4.633zm.824 10.806a1.845 1.845 0 01-.928-1.595v-2.667l7.36 4.215a.466.466 0 00.671-.25l.993-2.891v7.743a1.854 1.854 0 01-.464-.186L3.44 17.965zm18.047-1.594c0 .655-.356 1.266-.928 1.595l-7.631 4.369a1.87 1.87 0 01-.464.186v-7.743l.993 2.891a.46.46 0 00.439.312c.081 0 .16-.021.232-.062l7.36-4.214v2.666zm-7.335.471l-1.591-4.633 2.02-1.157 6.802-3.895 1.591 4.633-8.822 5.052z"/></symbol><symbol viewBox="0 0 24 24" id="link" xmlns="http://www.w3.org/2000/svg"><path d="M12.928 14.36a4.245 4.245 0 01-1.151 3.872L7.749 22.26c-.799.8-1.866 1.24-3.004 1.24s-2.204-.44-3.004-1.24a4.254 4.254 0 010-6.008l4.028-4.028a4.252 4.252 0 013.815-1.163.501.501 0 01-.188.982 3.252 3.252 0 00-2.919.888l-4.028 4.028a3.253 3.253 0 000 4.594c1.222 1.222 3.373 1.22 4.593 0l4.028-4.028a3.245 3.245 0 00.879-2.962.5.5 0 01.389-.591.494.494 0 01.59.388zM22.26 1.74A4.214 4.214 0 0019.257.5c-1.138 0-2.204.44-3.004 1.24l-4.028 4.028a4.242 4.242 0 00-1.151 3.872.501.501 0 00.98-.203 3.246 3.246 0 01.879-2.962l4.028-4.028c1.221-1.22 3.372-1.222 4.593 0a3.253 3.253 0 010 4.594l-4.028 4.028a3.245 3.245 0 01-2.919.888.5.5 0 00-.188.982c.27.052.543.077.813.077 1.118 0 2.2-.437 3.002-1.24l4.028-4.028c.8-.8 1.24-1.866 1.24-3.004S23.06 2.54 22.26 1.74zM7.981 16.02a.497.497 0 00.706 0l7.333-7.333a.5.5 0 00-.707-.707L7.98 15.313a.501.501 0 00.001.707z"/></symbol><symbol viewBox="0 0 24 24" id="profile" xmlns="http://www.w3.org/2000/svg"><path d="M12 11c2.895 0 5.25-2.356 5.25-5.25S14.895.5 12 .5 6.75 2.856 6.75 5.75 9.105 11 12 11zm0-9.545c2.369 0 4.295 1.927 4.295 4.295S14.369 10.045 12 10.045 7.705 8.119 7.705 5.75 9.631 1.455 12 1.455zM23 23.5h-1.044l-.013-.113c-.69-5.807-5.057-10.356-9.943-10.356-4.887 0-9.253 4.549-9.942 10.356l-.014.113H1l.016-.142c.348-3.092 1.662-5.957 3.697-8.069C6.758 13.168 9.346 12 12.001 12c2.654 0 5.242 1.168 7.286 3.289 2.035 2.112 3.349 4.978 3.697 8.069L23 23.5z"/></symbol><symbol viewBox="0 0 24 24" id="unlink" xmlns="http://www.w3.org/2000/svg"><path d="M5.304 6.099a.5.5 0 01.707-.707l3.333 3.333a.498.498 0 010 .708.5.5 0 01-.707 0L5.304 6.099zm10.046 8.574a.5.5 0 00-.707.707l3.333 3.333a.5.5 0 00.707-.708l-3.333-3.332zm5.495.153l-4.553-1.22a.499.499 0 10-.259.966l4.553 1.22a.499.499 0 10.259-.966zM3.155 9.357l4.553 1.22a.499.499 0 10.259-.966l-4.553-1.22a.5.5 0 10-.259.966zm6.306-1.315a.5.5 0 10.966-.258L9.207 3.23a.5.5 0 00-.966.259l1.22 4.553zm5.078 7.98a.5.5 0 10-.965.259l1.22 4.553a.5.5 0 10.966-.258l-1.221-4.554zm-3.201-1.05a.501.501 0 00-.389.591 3.243 3.243 0 01-.879 2.962l-3.028 3.028c-1.22 1.22-3.371 1.222-4.593 0a3.253 3.253 0 010-4.594l3.029-3.028a3.252 3.252 0 012.919-.888.5.5 0 10.188-.982 4.253 4.253 0 00-3.815 1.163l-3.029 3.028a4.254 4.254 0 000 6.008c.799.8 1.866 1.24 3.004 1.24s2.204-.44 3.004-1.24l3.028-3.028a4.24 4.24 0 001.151-3.872.494.494 0 00-.59-.388zM22.26 1.74A4.214 4.214 0 0019.257.5c-1.138 0-2.204.44-3.004 1.24l-3.029 3.028a4.242 4.242 0 00-1.151 3.872.501.501 0 00.98-.203 3.246 3.246 0 01.879-2.962l3.029-3.028c1.221-1.22 3.372-1.222 4.593 0a3.253 3.253 0 010 4.594l-3.028 3.028a3.245 3.245 0 01-2.919.888.5.5 0 00-.188.982c.27.052.543.077.813.077 1.118 0 2.2-.437 3.002-1.24l3.028-3.028c.8-.8 1.24-1.866 1.24-3.004S23.06 2.54 22.26 1.74z"/></symbol><symbol viewBox="0 0 24 24" id="wallet" xmlns="http://www.w3.org/2000/svg"><path d="M21.2 3.5H2.8A2.295 2.295 0 00.5 5.785v12.43A2.295 2.295 0 002.8 20.5h18.4c1.268 0 2.3-1.025 2.3-2.285V5.785A2.295 2.295 0 0021.2 3.5zM1.42 14.712h21.16V16.6H1.42v-1.888zM2.8 4.414h18.4c.761 0 1.38.615 1.38 1.371v8.013H1.42V5.785c0-.756.619-1.371 1.38-1.371zm18.4 15.172H2.8c-.761 0-1.38-.615-1.38-1.371v-.701h21.16v.701c0 .756-.619 1.371-1.38 1.371z"/></symbol></svg>