<?xml version="1.0" encoding="utf-8"?><svg xmlns="http://www.w3.org/2000/svg" xmlns:xlink="http://www.w3.org/1999/xlink"><symbol viewBox="0 0 32 32" id="align-bottom" xmlns="http://www.w3.org/2000/svg"><path d="M24.766 24.313a.694.694 0 01-.69.698l-16.077.037a.694.694 0 01-.693-.695.693.693 0 01.689-.698l16.077-.037a.694.694 0 01.694.695zm5.734 4.154c.004 1.915-1.538 3.478-3.439 3.482L5.012 32c-1.901.004-3.451-1.551-3.456-3.466l-.057-25C1.496 1.618 3.039.055 4.94.051L26.988 0c1.901-.004 3.451 1.551 3.455 3.466l.057 25.001zm-1.382.003l-.057-25a2.076 2.076 0 00-2.07-2.077l-22.048.051A2.076 2.076 0 002.882 3.53l.057 25a2.076 2.076 0 002.07 2.077l22.048-.051a2.076 2.076 0 002.061-2.086zM7.99 20.882l16.077-.037a.694.694 0 00.69-.698.694.694 0 00-.693-.695l-16.077.037a.693.693 0 00-.689.698c0 .385.31.696.692.695z"/></symbol><symbol viewBox="0 0 32 32" id="align-center" xmlns="http://www.w3.org/2000/svg"><path d="M24.747 7.653c0 .386-.31.698-.692.698H7.946a.694.694 0 01-.692-.698c0-.386.31-.698.692-.698h16.109a.696.696 0 01.692.698zm-2.246 3.476H9.499a.694.694 0 00-.692.698c0 .386.31.698.692.698h13.002a.694.694 0 00.692-.698.694.694 0 00-.692-.698zm-2.609 5.569a.694.694 0 00.692-.698.695.695 0 00-.692-.698h-7.754a.694.694 0 00-.692.698c0 .386.31.698.692.698h7.754zm1.538 2.778H10.57a.694.694 0 00-.692.698c0 .386.31.698.692.698h10.86a.694.694 0 00.692-.698.694.694 0 00-.692-.698zm-2.656 4.173h-5.547a.694.694 0 00-.692.698c0 .386.31.698.692.698h5.547a.694.694 0 00.692-.698.695.695 0 00-.692-.698zM30.5 3.48v25.04c0 1.918-1.55 3.48-3.455 3.48H4.954C3.049 32 1.5 30.439 1.5 28.52V3.48C1.5 1.561 3.049 0 4.954 0h22.092C28.95 0 30.5 1.561 30.5 3.48zm-1.385 0a2.08 2.08 0 00-2.07-2.085H4.954A2.08 2.08 0 002.885 3.48v25.04a2.08 2.08 0 002.069 2.085h22.092a2.08 2.08 0 002.07-2.085V3.48z"/></symbol><symbol viewBox="0 0 32 32" id="align-left" xmlns="http://www.w3.org/2000/svg"><path d="M24.517 7.653c0 .386-.31.698-.692.698H7.715a.694.694 0 01-.692-.698c0-.386.31-.698.692-.698h16.109a.696.696 0 01.693.698zm-3.8 3.476H7.715a.694.694 0 00-.692.698c0 .386.31.698.692.698h13.002a.694.694 0 00.692-.698.694.694 0 00-.692-.698zM7.715 16.698h7.754a.694.694 0 00.692-.698.695.695 0 00-.692-.698H7.715a.694.694 0 00-.692.698c0 .386.31.698.692.698zm10.86 2.778H7.715a.694.694 0 00-.692.698c0 .386.31.698.692.698h10.86a.694.694 0 00.692-.698.694.694 0 00-.692-.698zm-5.312 4.173H7.715a.694.694 0 00-.692.698c0 .386.31.698.692.698h5.547a.694.694 0 00.692-.698.693.693 0 00-.691-.698zM30.5 3.48v25.04c0 1.918-1.55 3.48-3.455 3.48H4.954C3.049 32 1.5 30.439 1.5 28.52V3.48C1.5 1.561 3.049 0 4.954 0h22.092C28.95 0 30.5 1.561 30.5 3.48zm-1.385 0a2.08 2.08 0 00-2.07-2.085H4.954A2.08 2.08 0 002.885 3.48v25.04a2.08 2.08 0 002.069 2.085h22.092a2.08 2.08 0 002.07-2.085V3.48z"/></symbol><symbol viewBox="0 0 32 32" id="align-middle" xmlns="http://www.w3.org/2000/svg"><path d="M24.729 13.808c0 .386-.31.698-.692.698H7.928a.694.694 0 01-.692-.698c0-.386.31-.698.692-.698h16.109a.695.695 0 01.692.698zM30.5 3.48v25.04c0 1.918-1.55 3.48-3.455 3.48H4.954C3.049 32 1.5 30.439 1.5 28.52V3.48C1.5 1.561 3.049 0 4.954 0h22.092C28.95 0 30.5 1.561 30.5 3.48zm-1.385 0a2.08 2.08 0 00-2.07-2.085H4.954A2.08 2.08 0 002.885 3.48v25.04a2.08 2.08 0 002.069 2.085h22.092a2.08 2.08 0 002.07-2.085V3.48zm-5.078 13.804H7.928a.694.694 0 00-.692.698c0 .386.31.698.692.698h16.109a.694.694 0 00.692-.698.694.694 0 00-.692-.698z"/></symbol><symbol viewBox="0 0 32 32" id="align-right" xmlns="http://www.w3.org/2000/svg"><path d="M24.977 7.653c0 .386-.31.698-.692.698H8.176a.694.694 0 01-.692-.698c0-.386.31-.698.692-.698h16.109a.696.696 0 01.692.698zm-.692 3.476H11.283a.694.694 0 00-.692.698c0 .386.31.698.692.698h13.002a.694.694 0 00.692-.698.695.695 0 00-.692-.698zm0 4.173h-7.754a.694.694 0 00-.692.698c0 .386.31.698.692.698h7.754a.694.694 0 00.692-.698.695.695 0 00-.692-.698zm0 4.174h-10.86a.694.694 0 00-.692.698c0 .386.31.698.692.698h10.86a.694.694 0 00.692-.698.695.695 0 00-.692-.698zm0 4.173h-5.547a.694.694 0 00-.692.698c0 .386.31.698.692.698h5.547a.694.694 0 00.692-.698.695.695 0 00-.692-.698zM30.5 3.48v25.04c0 1.918-1.549 3.48-3.454 3.48H4.955C3.05 32 1.5 30.439 1.5 28.52V3.48C1.5 1.561 3.05 0 4.955 0h22.092C28.951 0 30.5 1.561 30.5 3.48zm-1.385 0a2.08 2.08 0 00-2.069-2.085H4.955a2.08 2.08 0 00-2.07 2.085v25.04a2.08 2.08 0 002.07 2.085h22.092a2.08 2.08 0 002.069-2.085V3.48z"/></symbol><symbol viewBox="0 0 32 32" id="align-top" xmlns="http://www.w3.org/2000/svg"><path d="M24.729 7.653c0 .386-.31.698-.692.698H7.928a.694.694 0 01-.692-.698c0-.386.31-.698.692-.698h16.109a.695.695 0 01.692.698zM30.5 3.48v25.04c0 1.918-1.55 3.48-3.455 3.48H4.954C3.049 32 1.5 30.439 1.5 28.52V3.48C1.5 1.561 3.049 0 4.954 0h22.092C28.95 0 30.5 1.561 30.5 3.48zm-1.385 0a2.08 2.08 0 00-2.07-2.085H4.954A2.08 2.08 0 002.885 3.48v25.04a2.08 2.08 0 002.069 2.085h22.092a2.08 2.08 0 002.07-2.085V3.48zm-5.078 7.649H7.928a.694.694 0 00-.692.698c0 .386.31.698.692.698h16.109a.694.694 0 00.692-.698.694.694 0 00-.692-.698z"/></symbol><symbol viewBox="0 0 32 32" id="binance" xmlns="http://www.w3.org/2000/svg"><path fill="#F3BA2F" d="M9.785 13.447L16 7.232l6.218 6.217 3.616-3.616L16 0 6.17 9.83l3.615 3.617zM0 16l3.616-3.617 3.616 3.616-3.616 3.616L0 16zm9.785 2.554L16 24.768l6.218-6.217 3.618 3.614-.002.002L16 32l-9.83-9.83-.005-.005 3.62-3.611zm14.983-2.553l3.616-3.616L32 16.001l-3.616 3.616-3.616-3.616z"/></symbol><symbol viewBox="0 0 32 32" id="burger" xmlns="http://www.w3.org/2000/svg"><path d="M22.5 16a.634.634 0 01-.624.643H10.124c-.345 0-.624-.288-.624-.643s.279-.643.624-.643h11.751c.346 0 .625.288.625.643zm-12.376-3.214h11.751a.634.634 0 00.624-.643.634.634 0 00-.624-.643H10.124a.634.634 0 00-.624.643c0 .355.279.643.624.643zm11.752 6.428H10.124c-.345 0-.624.288-.624.643s.279.643.624.643h11.751c.345 0 .624-.288.624-.643s-.278-.643-.623-.643z"/></symbol><symbol viewBox="0 0 32 32" id="cancel" xmlns="http://www.w3.org/2000/svg"><path d="M20.596 11.404a.624.624 0 010 .883L16.883 16l3.713 3.713a.624.624 0 11-.883.883L16 16.883l-3.714 3.714a.624.624 0 11-.883-.883L15.117 16l-3.713-3.713a.624.624 0 11.883-.883L16 15.117l3.713-3.713a.624.624 0 01.883 0z"/></symbol><symbol viewBox="0 0 32 32" id="check" xmlns="http://www.w3.org/2000/svg"><path d="M24.888 11.307a.702.702 0 01-.184.953l-12.503 8.625a.65.65 0 01-.838-.086l-4.168-4.313c-.259-.268-.259-.703 0-.972s.68-.268.939 0l3.783 3.914 12.05-8.312a.65.65 0 01.921.191z"/></symbol><symbol viewBox="0 0 32 32" id="chevron-down" xmlns="http://www.w3.org/2000/svg"><path d="M16.278 18.944a.715.715 0 00.233-.157l4.527-4.549a.727.727 0 000-1.025.72.72 0 00-1.021 0l-3.296 3.312-.211.164a.715.715 0 01-.789.157.715.715 0 01-.233-.157l-.211-.164-3.297-3.312a.72.72 0 00-1.232.513c0 .186.07.371.211.513l4.528 4.549a.715.715 0 00.791.156z"/></symbol><symbol viewBox="0 0 32 32" id="chevron-left" xmlns="http://www.w3.org/2000/svg"><path d="M13.056 16.278c.037.088.09.167.157.233l4.549 4.527a.727.727 0 001.025 0 .72.72 0 000-1.021l-3.312-3.296-.164-.211a.715.715 0 01-.157-.789.715.715 0 01.157-.233l.164-.211 3.312-3.297a.72.72 0 00-.513-1.232.724.724 0 00-.513.211l-4.549 4.528a.715.715 0 00-.156.791z"/></symbol><symbol viewBox="0 0 32 32" id="chevron-right" xmlns="http://www.w3.org/2000/svg"><path d="M18.944 15.722a.715.715 0 00-.157-.233l-4.549-4.527a.727.727 0 00-1.025 0 .72.72 0 000 1.021l3.312 3.296.164.211a.715.715 0 01.157.789.715.715 0 01-.157.233l-.164.211-3.312 3.297a.72.72 0 00.513 1.232c.186 0 .371-.07.513-.211l4.549-4.528a.715.715 0 00.156-.791z"/></symbol><symbol viewBox="0 0 32 32" id="chevron-up" xmlns="http://www.w3.org/2000/svg"><path d="M15.722 13.056a.715.715 0 00-.233.157l-4.527 4.549a.727.727 0 000 1.025.72.72 0 001.021 0l3.296-3.312.211-.164a.715.715 0 01.789-.157c.088.037.167.09.233.157l.211.164 3.297 3.312a.72.72 0 001.232-.513.724.724 0 00-.211-.513l-4.528-4.549a.715.715 0 00-.791-.156z"/></symbol><symbol viewBox="0 0 32 32" id="collection" xmlns="http://www.w3.org/2000/svg"><path d="M31.967 15.801l-2.528-7.439c-.006-.019-.021-.031-.029-.049-.009-.021-.01-.043-.021-.062l-.002-.002v-.001c-.017-.03-.044-.052-.062-.081l-.017-.023a3.699 3.699 0 00-1.278-1.255L17.856.998a3.716 3.716 0 00-1.841-.495C16.009.503 16.005.5 16 .5l-.015.003a3.683 3.683 0 00-1.841.496L3.967 6.889a3.728 3.728 0 00-1.288 1.27c-.02.033-.051.058-.07.091-.012.022-.013.046-.023.068-.006.016-.019.027-.025.044L.033 15.801a.62.62 0 00.276.736l1.803 1.044v4.31c0 1.325.711 2.56 1.856 3.222l10.176 5.889a3.7 3.7 0 003.712 0l10.175-5.889a3.733 3.733 0 001.856-3.222v-4.309l1.804-1.044a.622.622 0 00.276-.737zm-4.554-7.838c.194.112.37.252.526.411l-8.801 5.094-1.282-.742c-.387-.224-.809-.344-1.238-.417V1.821c.214.055.423.137.619.25l10.176 5.892zM16 15.285l-1.902-1.1.664-.384a2.48 2.48 0 012.475 0l.664.384-1.901 1.1zM4.587 7.962l10.176-5.889c.196-.114.405-.196.619-.251V12.31c-.429.073-.851.192-1.238.416l-1.283.742-8.8-5.093c.155-.159.331-.3.526-.413zM3.489 9.475l11.762 6.807-2.121 6.244-11.762-6.808 2.121-6.243zM4.587 24.04a2.494 2.494 0 01-1.238-2.149v-3.594l9.814 5.681a.608.608 0 00.526.044.618.618 0 00.368-.38l1.324-3.897V30.18a2.466 2.466 0 01-.619-.25L4.587 24.04zm24.063-2.149a2.49 2.49 0 01-1.238 2.149l-10.175 5.889a2.466 2.466 0 01-.619.25V19.744l1.324 3.897a.614.614 0 00.585.42.606.606 0 00.309-.084l9.813-5.68v3.594zm-9.78.636l-2.121-6.244 2.693-1.559 9.069-5.249 2.121 6.244-11.762 6.808z"/></symbol><symbol viewBox="0 0 32 32" id="colours" xmlns="http://www.w3.org/2000/svg"><path d="M16.092 3.5C5.592 3.5 0 10.255 0 15.132c0 7.376 6.737 11.606 12.507 12.987 1.131.271 2.1.381 2.929.381 1.836 0 2.988-.544 3.684-1.099 1.082-.864 1.65-2.202 1.601-3.766-.037-1.153.161-1.963.573-2.341.386-.357.986-.352 1.577-.294.109.01.271.034.471.064 1.566.226 5.227.76 7.273-.976.919-.781 1.385-1.9 1.385-3.329C32 10.373 27.022 3.5 16.092 3.5zm13.687 15.634c-1.603 1.359-4.859.886-6.249.684-.227-.033-.409-.06-.534-.071-.513-.05-1.715-.165-2.576.628-.708.651-1.028 1.73-.978 3.3.026.823-.147 1.967-1.127 2.749-1.128.901-3.031 1.065-5.505.473-5.319-1.274-11.53-5.119-11.53-11.765 0-4.239 5.274-10.373 14.812-10.373 10.051 0 14.628 6.22 14.628 11.999 0 1.061-.308 1.838-.941 2.376zM22.082 7.248c-1.94 0-3.518 1.533-3.518 3.417s1.578 3.417 3.518 3.417c1.94 0 3.518-1.533 3.518-3.417s-1.578-3.417-3.518-3.417zm0 5.574c-1.234 0-2.238-.968-2.238-2.157 0-1.19 1.004-2.157 2.238-2.157s2.238.968 2.238 2.157-1.004 2.157-2.238 2.157zm-7.995-1.828c1.411 0 2.559-1.116 2.559-2.488 0-1.372-1.148-2.488-2.559-2.488-1.411 0-2.558 1.116-2.558 2.488 0 1.372 1.148 2.488 2.558 2.488zm0-3.717c.705 0 1.279.551 1.279 1.229s-.574 1.228-1.279 1.228-1.278-.551-1.278-1.228c0-.677.573-1.229 1.278-1.229zm1.279 8.663c-2.469 0-4.477 1.533-4.477 3.417s2.008 3.417 4.477 3.417 4.478-1.533 4.478-3.417-2.009-3.417-4.478-3.417zm0 5.574c-1.733 0-3.197-.988-3.197-2.157s1.464-2.157 3.197-2.157 3.198.988 3.198 2.157-1.465 2.157-3.198 2.157zM4.814 15.296c-.89 0-1.614.705-1.614 1.572 0 .867.724 1.572 1.614 1.572.89 0 1.614-.705 1.614-1.572-.001-.867-.724-1.572-1.614-1.572zm0 1.885c-.184 0-.334-.14-.334-.313s.15-.313.334-.313c.184 0 .334.14.334.313-.001.173-.15.313-.334.313zm2.878-8.076c-1.411 0-2.559 1.116-2.559 2.488 0 1.372 1.148 2.488 2.559 2.488s2.559-1.116 2.559-2.488c0-1.372-1.148-2.488-2.559-2.488zm0 3.717c-.705 0-1.279-.551-1.279-1.228s.574-1.229 1.279-1.229 1.279.552 1.279 1.229-.574 1.228-1.279 1.228z"/></symbol><symbol viewBox="0 0 32 32" id="customise" xmlns="http://www.w3.org/2000/svg"><path d="M.667 6.599H3.9A4.477 4.477 0 008.334 10.4a4.478 4.478 0 004.434-3.801h18.566c.368 0 .666-.294.666-.659s-.298-.659-.667-.659H12.765A4.48 4.48 0 008.333 1.5a4.48 4.48 0 00-4.432 3.781H.667c-.369 0-.667.295-.667.659s.298.659.667.659zm7.666-3.78c1.746 0 3.167 1.405 3.167 3.132s-1.421 3.132-3.167 3.132S5.167 7.677 5.167 5.95s1.42-3.131 3.166-3.131zm23 12.517H20.432A4.478 4.478 0 0016 11.545a4.479 4.479 0 00-4.433 3.791H.667a.662.662 0 00-.667.659c0 .364.298.659.667.659h10.901a4.478 4.478 0 004.433 3.791 4.477 4.477 0 004.432-3.791h10.901a.663.663 0 00.667-.659.663.663 0 00-.668-.659zM16 19.127c-1.746 0-3.167-1.405-3.167-3.132s1.421-3.132 3.167-3.132 3.167 1.405 3.167 3.132-1.421 3.132-3.167 3.132zm15.333 6.263h-3.234a4.478 4.478 0 00-4.432-3.791 4.479 4.479 0 00-4.433 3.791H.667c-.369 0-.667.295-.667.66s.298.659.667.659h18.567a4.478 4.478 0 004.433 3.791 4.477 4.477 0 004.432-3.791h3.234c.369 0 .667-.295.667-.659s-.298-.66-.667-.66zm-7.666 3.791c-1.746 0-3.167-1.405-3.167-3.132s1.421-3.132 3.167-3.132 3.167 1.405 3.167 3.132-1.421 3.132-3.167 3.132z"/></symbol><symbol viewBox="0 0 32 32" id="document" xmlns="http://www.w3.org/2000/svg"><path d="M7.023 16c0-.386.31-.698.692-.698h7.754c.383 0 .692.312.692.698 0 .386-.31.698-.692.698H7.715A.695.695 0 017.023 16zm13.163 7.649H7.715a.694.694 0 00-.692.698c0 .386.31.698.692.698h12.471a.694.694 0 00.692-.698.694.694 0 00-.692-.698zM7.715 20.871h10.86a.694.694 0 00.692-.698.695.695 0 00-.692-.698H7.715a.694.694 0 00-.692.698c0 .386.31.698.692.698zM30.5 3.48v25.04c0 1.918-1.55 3.48-3.455 3.48H4.954C3.049 32 1.5 30.439 1.5 28.52V3.48C1.5 1.561 3.049 0 4.954 0h22.092C28.95 0 30.5 1.561 30.5 3.48zm-1.385 0a2.08 2.08 0 00-2.07-2.085H4.954A2.08 2.08 0 002.885 3.48v25.04a2.08 2.08 0 002.069 2.085h22.092a2.08 2.08 0 002.07-2.085V3.48zm-8.398 7.649H7.715a.694.694 0 00-.692.698c0 .386.31.698.692.698h13.002a.694.694 0 00.692-.698.694.694 0 00-.692-.698zm3.107-4.173H7.715a.694.694 0 00-.692.698c0 .386.31.698.692.698h16.109a.694.694 0 00.692-.698.694.694 0 00-.692-.698z"/></symbol><symbol viewBox="0 0 32 32" id="edit" xmlns="http://www.w3.org/2000/svg"><path d="M29.199 2.804A6.122 6.122 0 0024.843 1a6.124 6.124 0 00-4.356 1.804L19.091 4.2l-.005.005L2.961 20.327a.644.644 0 00-.16.303c-.004.015-.018.025-.021.04l-1.769 9.558a.655.655 0 00.759.761l9.559-1.769c.014-.003.024-.017.038-.02a.642.642 0 00.305-.16l17.526-17.524a6.168 6.168 0 00.001-8.712zM4.864 20.27L19.807 5.329a7.135 7.135 0 016.866 6.868L11.73 27.137a8.449 8.449 0 00-6.866-6.867zm-.905 1.199a7.137 7.137 0 016.572 6.572l-8.065 1.494 1.493-8.066zm23.899-10.458a8.451 8.451 0 00-6.867-6.867l.418-.418c1.834-1.836 5.033-1.834 6.867 0a4.862 4.862 0 010 6.867l-.418.418z"/></symbol><symbol viewBox="0 0 32 32" id="ethereum" xmlns="http://www.w3.org/2000/svg"><path fill="#343434" d="M15.996 0l-.215.729v21.158l.215.214 9.822-5.805L15.996 0z"/><path fill="#8C8C8C" d="M15.998 0L6.175 16.296l9.823 5.805V0z"/><path fill="#3C3C3B" d="M15.997 23.962l-.121.147v7.537l.121.354 9.828-13.84-9.828 5.802z"/><path fill="#8C8C8C" d="M15.998 32v-8.038L6.175 18.16 15.998 32z"/><path fill="#141414" d="M15.996 22.101l9.822-5.805-9.822-4.464v10.269z"/><path fill="#393939" d="M6.175 16.296l9.823 5.805V11.832l-9.823 4.464z"/></symbol><symbol viewBox="0 0 32 32" id="files" xmlns="http://www.w3.org/2000/svg"><path d="M30.302 7.009L23.39.195A.682.682 0 0022.912 0H11.3C9.707 0 8.412 1.277 8.412 2.848v3.967H4.388C2.796 6.815 1.5 8.092 1.5 9.661v19.491C1.5 30.723 2.796 32 4.388 32H20.7c1.592 0 2.888-1.277 2.888-2.848v-3.967h4.024c1.593 0 2.888-1.277 2.888-2.848V7.48a.66.66 0 00-.198-.471zm-6.714-4.733l4.603 4.538h-4.603V2.276zm-1.353 26.876c0 .835-.689 1.514-1.535 1.514H4.388c-.847 0-1.535-.68-1.535-1.514V9.661c0-.835.689-1.513 1.535-1.513h10.936v6.147c0 .368.302.667.676.667h6.236v14.19zM16.676 9.091l4.603 4.538h-4.603V9.091zm10.936 14.761h-4.024v-9.556a.66.66 0 00-.198-.471L16.477 7.01a.68.68 0 00-.478-.195H9.764V2.848c0-.835.689-1.514 1.536-1.514h10.936V7.48c0 .368.302.667.676.667h6.236v14.19c0 .835-.689 1.515-1.536 1.515z"/></symbol><symbol viewBox="0 0 32 32" id="filters" xmlns="http://www.w3.org/2000/svg"><path d="M31.867 13.518l-3.311-4.974 1.646-5.783a.773.773 0 00-.96-.955l-5.746 1.686-4.967-3.36a.774.774 0 00-.781-.048.782.782 0 00-.422.667l-.178 6.013-4.717 3.706a.777.777 0 00.216 1.338l4.76 1.714-.448.347L.226 30.685A.771.771 0 00.771 32a.771.771 0 00.545-.221L18.078 14.94c.036-.034.063-.082.099-.145l.263-.476 1.897 5.171c.097.265.33.457.616.501a.764.764 0 00.719-.294l3.662-4.758 5.922-.213a.776.776 0 00.663-.425.779.779 0 00-.052-.783zm-4.791-4.399l2.791 4.11-4.949.176a.772.772 0 00-.584.3l-3.028 3.934-1.696-4.672a.765.765 0 00-.464-.463l-4.662-1.679 3.901-3.065a.773.773 0 00.296-.586l.147-4.972 4.105 2.777a.778.778 0 00.649.104l4.752-1.395-1.362 4.783a.779.779 0 00.104.648z"/></symbol><symbol viewBox="0 0 32 32" id="folder" xmlns="http://www.w3.org/2000/svg"><path d="M28.8 5.961H15.561C15.246 3.728 13.36 2 11.064 2H8.356C6.067 2 4.187 3.716 3.863 5.938v.022H3.2C1.436 5.961 0 7.409 0 9.192v17.577C0 28.551 1.436 30 3.2 30h25.6c1.764 0 3.2-1.449 3.2-3.231V9.192c0-1.783-1.436-3.231-3.2-3.231zm1.92 20.808a1.932 1.932 0 01-1.92 1.939H3.2c-1.059 0-1.92-.87-1.92-1.939V9.192c0-1.069.861-1.939 1.92-1.939h1.94l.002-1.292v-.022c.307-1.509 1.631-2.647 3.214-2.647h2.708c1.582 0 2.903 1.138 3.211 2.646v.022l.002 1.292H28.8c1.059 0 1.92.87 1.92 1.939v17.578z"/></symbol><symbol viewBox="0 0 32 32" id="image" xmlns="http://www.w3.org/2000/svg"><path d="M29.217 0H2.783A2.79 2.79 0 000 2.783v26.435A2.79 2.79 0 002.783 32h26.435A2.79 2.79 0 0032 29.217V2.783A2.79 2.79 0 0029.217 0zm1.392 29.217c0 .767-.624 1.391-1.391 1.391H2.783a1.393 1.393 0 01-1.391-1.391v-1.612c.012-.011.028-.015.039-.026l9.726-9.726.59-.591.649-.649c.029 0 .057-.008.086-.009l.637.637.579.579L16 20.124l7.113-7.114 7.23 7.23a.69.69 0 00.266.16v8.817zm0-10.679l-7.495-7.495L16 18.156l-.948-.948-.506-.506-.518-.518-1.057-1.057-.529-.529-.566.566-1.075 1.075-.522.522-.506.506L1.39 25.65V2.783c0-.767.624-1.391 1.391-1.391h26.435c.767 0 1.391.624 1.391 1.391v15.755zM15.922 13.06c0 .853-.312 1.625-.813 2.237l-.984-.984c.253-.354.406-.785.406-1.253a2.168 2.168 0 00-2.166-2.166 2.168 2.168 0 00-2.166 2.166c0 .508.183.969.477 1.339l-.984.984a3.53 3.53 0 01-.884-2.323 3.558 3.558 0 017.114 0z"/></symbol><symbol viewBox="0 0 32 32" id="infinifty-logo" xmlns="http://www.w3.org/2000/svg"><path d="M9.781 17.332L21.577 30.25.611 24.061l-.073-.03-.007-.003-.108-.062-.028-.027-.033-.025-.001-.001-.065-.057-.013-.013-.035-.037-.017-.019a.28.28 0 01-.016-.02l-.059-.081-.026-.042-.005-.008-.003-.006-.015-.03-.075-.191-.012-.047-.001-.006L0 23.204l.013-.208.003-.005.013-.065v-.017l.006-.006.058-.149.068-.104.071-.074.101-.055 9.448-5.189zM32 7.549l-.005-.096-.057.008.052-.014h.003v-.001l-.029-.133-.055.014.045-.018.008-.002v-.001l-.003-.01-.007-.019-.024-.058-.017-.035-.008-.015a.267.267 0 00-.013-.023l-.013-.02-.01-.015-.024-.034-.001-.006-.085-.092-.122-.097L11.103 1.75l-.013.056-2.934 12.212-.024.189.106-.106.002-.002c.009-.009.058-.049.161-.049l.037.002a.05.05 0 01.012.002c.029.005 4.862 1.235 4.954 1.272a.425.425 0 01.051.041l.009.008c.021.018.04.037.056.053l.007.007.054.06c.018.021.034.043.051.066l.049.076a.93.93 0 01.034.061l.005.009c.012.024.024.048.034.073l.029.074.001.003.022.071.002.006.017.073.001.006c.005.025.008.05.011.075l.001.006c.003.025.004.049.005.073 0 0 0 .051-.002.076l-.008.074-.001.004a1.089 1.089 0 01-.014.066c-.002.005-.014.047-.022.068a.64.64 0 01-.087.149.333.333 0 01-.025.028l-.006.006-.02.019-.009.007-.024.018-.005.004a.23.23 0 01-.027.017l.05.103L31.69 8.098l.03-.018.028-.019.02-.016.007-.005a.285.285 0 00.026-.023l.021-.021-.037-.044.014.013.024.03.114-.162v-.005l.017-.039.015-.043-.055-.016.049.007.001.001.001-.001.007.001.003-.011.006-.006.013-.086-.057-.007.057.001.004-.038-.057-.004.057-.003.002-.035zM13.177 17.767l-.614-.678.086-.136.028-.044.013-.008c.107-.134.33-.489.295-.73a.276.276 0 00-.139-.201l-.013-.008c-.242-.119-4.189-1.172-4.309-1.202l-.097.097 13.717 15.03-4.074-14.481-4.893 2.361z"/></symbol><symbol viewBox="0 0 32 32" id="layout-center" xmlns="http://www.w3.org/2000/svg"><path d="M28.8 2H3.2C1.436 2 0 3.427 0 5.182v17.31c0 1.755 1.436 3.182 3.2 3.182h12.16V28.728H8.32c-.354 0-.64.285-.64.636s.286.636.64.636h15.36c.354 0 .64-.285.64-.636s-.286-.636-.64-.636h-7.04V25.674H28.8c1.764 0 3.2-1.427 3.2-3.182V5.182C32 3.427 30.564 2 28.8 2zM18.597 18.315h-5.835c-.333 0-.603-.285-.603-.638s.27-.638.603-.638h5.835c.333 0 .603.285.603.638s-.27.638-.603.638zm.603 3.179a.638.638 0 01-.64.638H12.8a.638.638 0 110-1.276h5.761c.353 0 .639.285.639.638zm-6.41-6.997a.634.634 0 01-.63-.638c0-.353.282-.638.63-.638h7.059c.348 0 .63.285.63.638a.634.634 0 01-.63.638H12.79zm7.022-7.634h-6.983c-.369 0-.668-.285-.668-.638 0-.353.299-.638.668-.638h6.983c.369 0 .668.285.668.638 0 .352-.299.638-.668.638zM3.2 24.401a1.916 1.916 0 01-1.92-1.909V5.182c0-1.053.861-1.909 1.92-1.909H8.96v21.128H3.2zm27.52-1.909a1.916 1.916 0 01-1.92 1.909H23.68V3.273H28.8c1.059 0 1.92.856 1.92 1.909v17.31z"/></symbol><symbol viewBox="0 0 32 32" id="layout-left" xmlns="http://www.w3.org/2000/svg"><path d="M28.8 2H3.2C1.436 2 0 3.427 0 5.182v17.31c0 1.755 1.436 3.182 3.2 3.182h12.16v3.054H8.32c-.354 0-.64.285-.64.636s.286.636.64.636h15.36c.354 0 .64-.285.64-.636s-.286-.636-.64-.636h-7.04v-3.054H28.8c1.764 0 3.2-1.427 3.2-3.182V5.182C32 3.427 30.564 2 28.8 2zM3.868 5.586h6.983c.369 0 .668.285.668.638s-.299.638-.668.638H3.868c-.369.001-.668-.285-.668-.638s.299-.638.668-.638zm-.038 8.911a.634.634 0 01-.63-.638c0-.353.282-.638.63-.638h7.059c.348 0 .63.285.63.638a.634.634 0 01-.63.638H3.83zm6.41 3.179c0 .353-.27.638-.603.638H3.803c-.333 0-.603-.285-.603-.638 0-.353.27-.638.603-.638h5.835c.332 0 .602.286.602.638zm-6.4 3.18H9.6a.638.638 0 110 1.276H3.84a.638.638 0 110-1.276zm26.88 1.636a1.916 1.916 0 01-1.92 1.909H14.72V3.273H28.8c1.059 0 1.92.856 1.92 1.909v17.31z"/></symbol><symbol viewBox="0 0 32 32" id="layout-right" xmlns="http://www.w3.org/2000/svg"><path d="M28.8 2H3.2C1.436 2 0 3.427 0 5.182v17.31c0 1.755 1.436 3.182 3.2 3.182h12.16v3.054H8.32c-.354 0-.64.285-.64.636s.286.636.64.636h15.36c.354 0 .64-.285.64-.636s-.286-.636-.64-.636h-7.04v-3.054H28.8c1.764 0 3.2-1.427 3.2-3.182V5.182C32 3.427 30.564 2 28.8 2zm0 4.224c0 .353-.299.638-.668.638h-6.983c-.369 0-.668-.285-.668-.638 0-.353.299-.638.668-.638h6.983c.369 0 .668.286.668.638zm-1.883 12.091h-5.835c-.333 0-.603-.285-.603-.638s.27-.638.603-.638h5.835c.333 0 .603.285.603.638s-.27.638-.603.638zm.603 3.179a.638.638 0 01-.64.638h-5.76a.638.638 0 110-1.276h5.761c.353 0 .639.285.639.638zm.65-6.997h-7.06a.634.634 0 01-.63-.638c0-.353.282-.638.63-.638h7.059c.348 0 .63.285.63.638a.632.632 0 01-.629.638zM3.2 24.401a1.916 1.916 0 01-1.92-1.909V5.182c0-1.053.861-1.909 1.92-1.909h14.08v21.128H3.2z"/></symbol><symbol viewBox="0 0 32 32" id="light-off" xmlns="http://www.w3.org/2000/svg"><path d="M25.354 14.177a9.059 9.059 0 00-.975-2.795.652.652 0 00-.878-.261.635.635 0 00-.265.866c.413.759.695 1.568.838 2.405.333 1.928-.005 3.821-.975 5.476-.274.466-1.473 1.97-3.289 4.125-.017.021-.029.045-.046.066-.174.211-.524.617-1.06 1.124-.503.476-1.773.895-2.718.895-.945 0-2.216-.419-2.719-.895a12.694 12.694 0 01-1.066-1.132c-.014-.017-.023-.036-.037-.053l-.343-.409a.654.654 0 00-.914-.087.634.634 0 00-.089.9l.213.255c.007.01.073.092.166.205a5.174 5.174 0 011.186 3.283v.303C12.384 30.406 14 32 15.986 32s3.602-1.594 3.602-3.552v-.305c0-1.187.419-2.34 1.17-3.262.103-.125.176-.217.182-.225.002-.002.002-.005.003-.007 1.857-2.207 2.963-3.603 3.277-4.139 1.126-1.916 1.518-4.106 1.134-6.333zm-7.063 13.965v.305c0 1.253-1.034 2.272-2.305 2.272-1.271 0-2.305-1.02-2.305-2.272v-.303c0-.447-.061-.888-.154-1.322.8.342 1.736.535 2.458.535.721 0 1.658-.193 2.457-.535-.09.434-.151.874-.151 1.32zm4.413-18.074c.006-.006.008-.015.015-.022l4.588-4.526a.634.634 0 000-.905.654.654 0 00-.917 0L22.207 8.74c-1.245-1.07-2.717-1.814-4.319-2.12-2.851-.545-5.747.166-7.947 1.956a9.29 9.29 0 00-2.189 11.936c.157.267.513.748 1.06 1.44l-4.146 4.09a.634.634 0 000 .905.653.653 0 00.918 0l17.098-16.865c.006-.006.015-.008.022-.014zM9.736 21.041c-.542-.69-.777-1.025-.862-1.17a8.017 8.017 0 01-1.1-4.054 8.033 8.033 0 012.992-6.253c1.901-1.546 4.403-2.161 6.874-1.688 1.348.258 2.59.877 3.65 1.767L9.736 21.041zm5.615-17.826V.64c0-.354.291-.64.649-.64s.649.286.649.64v2.575c0 .354-.29.64-.649.64s-.649-.286-.649-.64zM4.686 5.527a.634.634 0 010-.905.656.656 0 01.918 0L7.45 6.444a.634.634 0 010 .905c-.127.125-.293.187-.459.187s-.332-.062-.459-.187L4.686 5.527zm22.628 20.509a.634.634 0 010 .905.653.653 0 01-.918 0L24.55 25.12c-.253-.25-.253-.655 0-.905s.664-.25.918 0l1.846 1.821zM3.909 15.781c0 .354-.29.64-.649.64H.649c-.359 0-.649-.286-.649-.64s.29-.64.649-.64H3.26c.359 0 .649.286.649.64zm28.091 0c0 .354-.29.64-.649.64H28.74c-.359 0-.649-.286-.649-.64s.29-.64.649-.64h2.611c.359 0 .649.286.649.64z"/></symbol><symbol viewBox="0 0 32 32" id="light-on" xmlns="http://www.w3.org/2000/svg"><path d="M25.354 14.177c-.653-3.789-3.653-6.826-7.467-7.557a10.21 10.21 0 00-1.902-.182c-5.243 0-9.509 4.209-9.509 9.38 0 1.65.44 3.274 1.274 4.695.314.536 1.422 1.934 3.282 4.146.008.011.072.092.164.204a5.174 5.174 0 011.186 3.283v.303C12.384 30.406 14 32 15.986 32s3.602-1.594 3.602-3.552v-.305c0-1.186.418-2.337 1.169-3.26.104-.126.178-.22.184-.228.002-.002.002-.005.003-.007 1.857-2.207 2.963-3.603 3.277-4.139 1.125-1.915 1.517-4.105 1.133-6.332zm-7.063 13.965v.305c0 1.253-1.034 2.272-2.305 2.272-1.271 0-2.305-1.02-2.305-2.272v-.303c0-.447-.062-.888-.154-1.322.799.342 1.737.535 2.458.535.721 0 1.658-.193 2.457-.535-.09.434-.151.874-.151 1.32zm4.808-8.273c-.274.466-1.473 1.97-3.289 4.125-.017.02-.029.044-.045.065a12.35 12.35 0 01-1.06 1.125c-.503.476-1.773.895-2.718.895-.945 0-2.216-.419-2.719-.895a12.694 12.694 0 01-1.066-1.132c-.014-.017-.023-.036-.037-.053-1.817-2.157-3.016-3.662-3.29-4.128a8.023 8.023 0 01-1.099-4.054c0-4.466 3.683-8.1 8.211-8.1.547 0 1.104.054 1.654.16 3.286.63 5.872 3.247 6.434 6.515.332 1.928-.006 3.822-.976 5.477zM15.351 3.215V.64c0-.354.291-.64.649-.64s.649.286.649.64v2.575c0 .354-.29.64-.649.64s-.649-.286-.649-.64zM4.686 5.527a.634.634 0 010-.905.656.656 0 01.918 0L7.45 6.444a.634.634 0 010 .905.652.652 0 01-.917 0L4.686 5.527zm22.628 20.509a.634.634 0 010 .905.653.653 0 01-.918 0L24.55 25.12c-.253-.25-.253-.655 0-.905s.664-.25.918 0l1.846 1.821zM3.909 15.781c0 .354-.29.64-.649.64H.649c-.359 0-.649-.286-.649-.64s.29-.64.649-.64H3.26c.359 0 .649.286.649.64zm28.091 0c0 .354-.29.64-.649.64H28.74c-.359 0-.649-.286-.649-.64s.29-.64.649-.64h2.611c.359 0 .649.286.649.64zM7.45 24.215a.634.634 0 010 .905l-1.846 1.821a.653.653 0 01-.918 0 .634.634 0 010-.905l1.846-1.821a.656.656 0 01.918 0zM27.314 4.622a.634.634 0 010 .905l-1.846 1.821a.653.653 0 01-.918 0 .634.634 0 010-.905l1.846-1.821a.656.656 0 01.918 0z"/></symbol><symbol viewBox="0 0 32 32" id="like" xmlns="http://www.w3.org/2000/svg"><path d="M31.887 9.363c-.637-4.486-4.17-7.792-8.4-7.862l-.146-.001c-3.057 0-5.792 1.553-7.347 4.028a8.737 8.737 0 00-6.703-4.006 8.476 8.476 0 00-.593-.021c-4.216 0-7.9 3.354-8.571 7.801-1.719 11.394 14.634 18.774 15.331 19.083a1.326 1.326 0 001.084.001c.693-.307 16.96-7.648 15.345-19.023zM16 27.174S-.143 20.027 1.445 9.5c.558-3.7 3.56-6.671 7.252-6.672a7.339 7.339 0 016.984 5.167.325.325 0 00.319.231.324.324 0 00.318-.23 7.34 7.34 0 017.023-5.169l.124.001c3.704.061 6.584 3.071 7.102 6.721C32.06 20.063 16 27.174 16 27.174z"/></symbol><symbol viewBox="0 0 32 32" id="link" xmlns="http://www.w3.org/2000/svg"><path d="M17.251 19.181a5.718 5.718 0 01-1.552 5.219l-5.429 5.429C9.193 30.906 7.755 31.5 6.222 31.5s-2.971-.594-4.048-1.672a5.734 5.734 0 010-8.097l5.43-5.429a5.731 5.731 0 015.141-1.568.675.675 0 01-.254 1.324 4.386 4.386 0 00-3.935 1.196l-5.43 5.429a4.384 4.384 0 000 6.191c1.647 1.647 4.547 1.644 6.191 0l5.429-5.429a4.373 4.373 0 001.185-3.992.673.673 0 01.524-.796.668.668 0 01.796.524zM29.829 2.172A5.682 5.682 0 0025.781.5a5.682 5.682 0 00-4.048 1.672l-5.43 5.429a5.72 5.72 0 00-1.552 5.219.674.674 0 001.32-.273 4.373 4.373 0 011.185-3.992l5.43-5.429c1.645-1.644 4.545-1.647 6.19 0a4.382 4.382 0 010 6.191l-5.429 5.429a4.374 4.374 0 01-3.935 1.196.68.68 0 00-.789.534.675.675 0 00.535.79c.365.07.732.104 1.096.104 1.507 0 2.965-.59 4.046-1.672l5.429-5.429C30.907 9.191 31.5 7.753 31.5 6.22s-.593-2.97-1.671-4.048zM10.584 21.418a.67.67 0 00.952 0l9.883-9.883a.674.674 0 00-.953-.953l-9.883 9.883a.673.673 0 00.001.953z"/></symbol><symbol viewBox="0 0 32 32" id="locked" xmlns="http://www.w3.org/2000/svg"><path d="M25.396 13.297h-1.009V9.225C24.388 4.69 20.625 1 16 1S7.612 4.69 7.612 9.225v4.072H6.604C5.172 13.297 4 14.445 4 15.85v12.597C4 29.851 5.172 31 6.604 31h18.793C26.828 31 28 29.851 28 28.447V15.85c0-1.405-1.172-2.553-2.604-2.553zM8.914 9.225c0-3.831 3.179-6.948 7.086-6.948s7.086 3.117 7.086 6.948v4.072h-1.892V9.225c0-2.808-2.33-5.093-5.193-5.093s-5.194 2.285-5.194 5.093v4.072H8.914V9.225zm10.978 4.072h-7.784V9.225c0-2.104 1.746-3.816 3.892-3.816s3.892 1.712 3.892 3.816v4.072zm6.806 15.15c0 .704-.584 1.277-1.302 1.277H6.604c-.718 0-1.302-.573-1.302-1.277V15.85c0-.704.584-1.277 1.302-1.277h18.793c.718 0 1.302.573 1.302 1.277v12.597z"/></symbol><symbol viewBox="0 0 32 32" id="mint" xmlns="http://www.w3.org/2000/svg"><path d="M32 25.396v4.32a.616.616 0 01-.615.617H7.758a.616.616 0 01-.615-.617v-4.32c0-.341.276-.617.615-.617h2.769c3.454.01 4.16-1.623 5.077-4.691a.613.613 0 01.585-.439c.405 0 .695.39.587.781-.972 3.533-2.223 5.584-6.249 5.584H8.373V29.1h22.396v-3.086h-2.154c-4.03 0-4.78-2.055-5.686-5.594a.615.615 0 01.592-.77c.273 0 .514.183.589.446.868 3.064 1.054 4.695 4.506 4.685h2.769a.614.614 0 01.615.615zm-.615-23.729H10.462a.616.616 0 00-.615.617v.617H.615A.622.622 0 000 3.533c.008 5.106 4.138 9.242 9.231 9.242h.615v1.234c0 .341.276.617.615.617h1.274c2.762-.011 2.968 1.096 3.782 3.449a.633.633 0 001.202-.4c-.862-2.783-1.644-4.283-4.952-4.283h-.689v-1.234a.616.616 0 00-.615-.617H9.231c-4.189.013-7.678-3.217-8-7.405h9.231c.34 0 .615-.276.615-.617v-.618h19.692v9.257h-2.154c-4.021 0-4.749 2.044-5.659 5.572-.1.389.191.772.592.772a.614.614 0 00.589-.445c.872-3.053 1.034-4.675 4.478-4.664h2.769c.34 0 .615-.276.615-.617V2.284a.615.615 0 00-.614-.617z"/></symbol><symbol viewBox="0 0 32 32" id="minus" xmlns="http://www.w3.org/2000/svg"><path d="M22.5 16a.624.624 0 01-.624.624H10.124a.624.624 0 110-1.248h11.751c.346 0 .625.279.625.624z"/></symbol><symbol viewBox="0 0 32 32" id="nft" xmlns="http://www.w3.org/2000/svg"><path d="M8.723 8.109l1.757-.965v18.108l-1.244-.716-2.565-9.622v8.144l-1.461-.84v-11.73l1.461-.825c0 .11 1.42 4.702 2.036 6.69l.016-8.244zm3.249 17.921l1.648 1.089V17.007h6.14v-2.038h-6.14v-7.98l2.383-1.353 4.146 2.411.948-1.478-5.094-2.987-4.03 2.411V26.03zM23.195 9.945v14.67l1.819-1.011V10.94l2.254 1.54v-1.929L21.905 7.16l-.902 1.353 2.192 1.432zm6.672-1.902v15.946L16.021 32 2.133 23.992V8.047L15.998 0l13.869 8.043zm-1.647.871L15.998 1.836 3.78 8.918v14.141l12.242 7.074 12.199-7.078V8.914z"/></symbol><symbol viewBox="0 0 32 32" id="opacity" xmlns="http://www.w3.org/2000/svg"><path d="M9.986 25.043c.773.167 1.572.257 2.39.275.098.003.193.015.291.015a12.983 12.983 0 003.28-.444 12.592 12.592 0 002.856-1.144 12.769 12.769 0 003.271-2.615 12.657 12.657 0 001.673-2.328 12.393 12.393 0 001.144-2.856 12.78 12.78 0 00.444-3.279c0-.098-.012-.193-.015-.291a12.676 12.676 0 00-.412-2.922 12.568 12.568 0 00-.593-1.768A12.663 12.663 0 0012.959.014C12.86.012 12.765 0 12.667 0c-.512 0-1.015.039-1.511.098-.605.072-1.194.192-1.769.346-.485.13-.959.283-1.419.466a12.66 12.66 0 00-1.437.678c-.078.044-.152.094-.229.139C2.537 3.923 0 7.994 0 12.667c0 4.987 2.889 9.288 7.078 11.354.202.1.4.204.608.293a12.48 12.48 0 001.768.592c.177.046.352.098.532.137zM23.293 8.707c.266.71.46 1.453.579 2.222l-2.801-2.801c.769.119 1.511.313 2.222.579zm-4.241-.712l4.953 4.952a11.348 11.348 0 01-.203 1.912L17.14 8.197a11.474 11.474 0 011.912-.202zm-3.392.607l7.738 7.738a11.316 11.316 0 01-.63 1.484l-8.592-8.592c.476-.244.972-.454 1.484-.63zm-2.676 1.324l9.089 9.089c-.282.417-.6.806-.934 1.181l-9.336-9.336a11.59 11.59 0 011.181-.934zm-2.123 1.877l9.336 9.336c-.375.333-.764.652-1.181.934l-9.089-9.089c.282-.417.6-.806.934-1.181zm-1.628 2.372l8.592 8.592c-.476.244-.972.454-1.484.63L8.603 15.66c.175-.513.386-1.008.63-1.485zm-1.035 2.966l6.662 6.661c-.62.122-1.26.187-1.912.202l-4.953-4.952c.016-.652.081-1.292.203-1.911zm-.301 5.813l-.216-2.331.447.447 2.801 2.801a11.283 11.283 0 01-3.032-.917zM32 19.334c0 .512-.039 1.014-.098 1.511a12.631 12.631 0 01-.346 1.769 12.592 12.592 0 01-1.144 2.856 12.824 12.824 0 01-1.673 2.328c-.298.331-.612.645-.943.943a12.777 12.777 0 01-2.327 1.673 12.393 12.393 0 01-2.856 1.144c-.575.154-1.164.274-1.769.346-.496.057-.998.096-1.511.096-.098 0-.193-.012-.291-.015a12.696 12.696 0 01-2.39-.276 12.656 12.656 0 01-7.498-4.887l-.024-.033a.657.657 0 01-.175-.441.66.66 0 01.215-.485.66.66 0 011.068.232l.004.001a11.408 11.408 0 004.323 3.524c.948.441 1.965.753 3.032.918.568.088 1.145.147 1.737.147.095 0 .187-.012.281-.014a11.452 11.452 0 001.912-.202c.507-.1 1-.24 1.481-.405a11.316 11.316 0 001.484-.63 11.35 11.35 0 001.191-.694c.417-.283.806-.6 1.181-.934.333-.296.647-.61.943-.943.334-.375.652-.764.934-1.181.257-.38.484-.781.694-1.191.244-.477.454-.972.63-1.484.165-.481.305-.973.405-1.48.122-.62.187-1.26.203-1.912.002-.094.014-.186.014-.281 0-.592-.059-1.17-.147-1.738a11.343 11.343 0 00-4.44-7.354l-.002-.008a.654.654 0 01-.316-.553.663.663 0 011.122-.483l-.007-.012a12.635 12.635 0 015.09 9.856c.001.098.013.193.013.292z"/></symbol><symbol viewBox="0 0 32 32" id="owner" xmlns="http://www.w3.org/2000/svg"><path d="M23.438 4.075l6.752 6.882L16 27.227 1.81 10.957l6.752-6.882h14.876M24 2.75H8l-8 8.154L16 29.25l16-18.346-8-8.154z"/></symbol><symbol viewBox="0 0 32 32" id="plus" xmlns="http://www.w3.org/2000/svg"><path d="M22.5 16a.624.624 0 01-.624.624h-5.251v5.251a.624.624 0 11-1.248 0v-5.251h-5.252a.624.624 0 11-.001-1.248h5.252v-5.251a.624.624 0 111.248-.001v5.251h5.251c.346.001.625.28.625.625z"/></symbol><symbol viewBox="0 0 32 32" id="polygon" xmlns="http://www.w3.org/2000/svg"><path fill="#8247E5" d="M24.23 10.558a2.135 2.135 0 00-2.006 0L17.546 13.3l-3.175 1.745-4.595 2.742a2.139 2.139 0 01-2.006 0l-3.593-2.16a2.014 2.014 0 01-1.002-1.745V9.727a2.045 2.045 0 011.003-1.745L7.77 5.905a2.138 2.138 0 012.006 0l3.593 2.16a2.014 2.014 0 011.002 1.745v2.742l3.175-1.828V7.899a2.044 2.044 0 00-1.002-1.745L9.859 2.249a2.146 2.146 0 00-2.005 0L1.003 6.238A1.83 1.83 0 000 7.899v7.81a2.055 2.055 0 001.003 1.745l6.768 3.905a2.138 2.138 0 002.006 0l4.595-2.659 3.175-1.828 4.595-2.659a2.139 2.139 0 012.006 0l3.593 2.077a2.014 2.014 0 011.002 1.745v4.154a2.055 2.055 0 01-1.003 1.745l-3.509 2.077a2.136 2.136 0 01-2.006 0l-3.593-2.077a2.027 2.027 0 01-1.002-1.745V19.53l-3.175 1.828V24.1a2.044 2.044 0 001.002 1.745l6.767 3.905a2.139 2.139 0 002.006 0l6.768-3.905A2.027 2.027 0 0032 24.101v-7.893a2.044 2.044 0 00-1.002-1.745l-6.768-3.905z"/></symbol><symbol viewBox="0 0 32 32" id="profile" xmlns="http://www.w3.org/2000/svg"><path d="M16 14.652c3.948 0 7.159-3.175 7.159-7.076S19.948.5 16 .5 8.841 3.675 8.841 7.576s3.211 7.076 7.159 7.076zm0-12.865c3.23 0 5.857 2.597 5.857 5.789s-2.627 5.79-5.857 5.79-5.857-2.597-5.857-5.789S12.77 1.787 16 1.787zM31 31.5h-1.424l-.018-.152c-.941-7.828-6.897-13.958-13.559-13.958-6.663 0-12.618 6.131-13.557 13.958l-.019.152H1l.022-.192c.475-4.167 2.266-8.03 5.041-10.876C8.852 17.575 12.381 16 16.001 16c3.619 0 7.148 1.575 9.936 4.433 2.776 2.847 4.566 6.71 5.041 10.876L31 31.5z"/></symbol><symbol viewBox="0 0 32 32" id="settings" xmlns="http://www.w3.org/2000/svg"><path d="M30.431 13.2l-2.788-.906-.789-1.906 1.331-2.612a2.27 2.27 0 00-.418-2.636l-.907-.907a2.27 2.27 0 00-2.636-.417l-2.612 1.331-1.906-.79-.906-2.788A2.27 2.27 0 0016.641 0h-1.282A2.27 2.27 0 0013.2 1.569l-.906 2.788-1.906.79-2.612-1.331a2.27 2.27 0 00-2.636.417l-.907.906a2.27 2.27 0 00-.417 2.636l1.331 2.612-.79 1.906-2.788.907A2.27 2.27 0 000 15.359v1.282a2.27 2.27 0 001.569 2.16l2.788.906.79 1.906-1.331 2.612a2.27 2.27 0 00.417 2.636l.906.906a2.27 2.27 0 002.636.417l2.612-1.331 1.906.79.906 2.788A2.271 2.271 0 0015.359 32h1.282a2.27 2.27 0 002.16-1.569l.906-2.788 1.906-.79 2.612 1.331a2.27 2.27 0 002.636-.417l.906-.906a2.27 2.27 0 00.418-2.636l-1.331-2.612.789-1.906 2.788-.906A2.272 2.272 0 0032 16.641v-1.282a2.27 2.27 0 00-1.569-2.159zm.178 3.441a.876.876 0 01-.608.836l-2.788.906-.61.198-.246.593-.789 1.906-.246.593.291.572 1.331 2.612a.875.875 0 01-.162 1.021l-.906.906a.875.875 0 01-1.021.162l-2.612-1.331-.571-.291-.593.245-1.906.79-.592.245-.198.61-.906 2.788a.877.877 0 01-.837.608h-1.282a.876.876 0 01-.836-.608l-.906-2.788-.198-.61-.592-.245-1.906-.79-.593-.245-.572.291-2.611 1.331a.875.875 0 01-1.021-.162l-.906-.906a.878.878 0 01-.162-1.021l1.331-2.612.291-.572-.245-.593-.789-1.906-.246-.593-.61-.198-2.788-.906a.878.878 0 01-.608-.836v-1.282c0-.382.244-.718.608-.836l2.788-.906.61-.198.246-.593.789-1.906.245-.593-.291-.571-1.331-2.612a.878.878 0 01.162-1.021l.906-.906a.875.875 0 011.02-.162l2.612 1.331.572.291.593-.245 1.906-.79.592-.245.198-.61.906-2.788a.878.878 0 01.836-.608h1.282c.382 0 .718.244.836.607l.906 2.788.198.61.592.245 1.906.79.593.245.571-.291 2.612-1.331a.87.87 0 011.021.162l.906.906c.27.27.335.681.162 1.021l-1.331 2.612-.291.572.246.593.789 1.906.246.593.61.198 2.788.906a.878.878 0 01.608.836v1.282zM16 8.889a7.111 7.111 0 100 14.223 7.111 7.111 0 000-14.223zm0 12.831A5.727 5.727 0 0110.28 16c0-3.154 2.566-5.72 5.72-5.72s5.72 2.566 5.72 5.72A5.727 5.727 0 0116 21.72z"/></symbol><symbol viewBox="0 0 32 32" id="star" xmlns="http://www.w3.org/2000/svg"><path d="M30.095 10.819L21.732 9.63l-3.74-7.417C17.585 1.404 16.792 1 16 1s-1.585.404-1.992 1.212l-3.74 7.417-8.363 1.189c-1.822.259-2.55 2.451-1.231 3.709L6.725 20.3l-1.429 8.152C5.05 29.858 6.191 31 7.486 31c.342 0 .694-.08 1.034-.255L16 26.896l7.48 3.849c.34.175.693.255 1.034.255 1.295 0 2.436-1.142 2.189-2.547l-1.429-8.152 6.052-5.773c1.319-1.258.592-3.45-1.231-3.709zm.301 2.774l-6.052 5.773c-.314.3-.458.732-.383 1.155l1.429 8.152a.82.82 0 01-.188.7.923.923 0 01-.688.321.893.893 0 01-.414-.105l-7.48-3.849a1.353 1.353 0 00-1.24 0L7.9 29.59a.905.905 0 01-.414.105.925.925 0 01-.688-.321.82.82 0 01-.188-.7l1.429-8.152a1.289 1.289 0 00-.383-1.155l-6.051-5.773a.835.835 0 01-.225-.891.858.858 0 01.717-.592l8.363-1.189c.434-.062.81-.329 1.004-.714l3.74-7.417c.22-.439.63-.486.796-.486s.576.047.797.485l3.74 7.417c.194.385.57.652 1.004.714l8.363 1.189c.493.07.666.437.717.592a.835.835 0 01-.225.891z"/></symbol><symbol viewBox="0 0 32 32" id="start" xmlns="http://www.w3.org/2000/svg"><path d="M7.3 26.809l.912.829c-.192.34-.308.586-.433.854l-.129.272c-.914 1.901-1.742 3.065-7.002 3.065l-.587.014-.01-.62c0-5.131 1.07-5.915 2.963-6.858l.22-.108c.369-.181.748-.366 1.153-.638l.733.936c-.577.401-1.114.669-1.565.894-1.462.729-2.17 1.237-2.274 4.773l-.013.431.431-.016c3.578-.129 4.169-1.002 4.905-2.531l.018-.037c.187-.386.393-.816.678-1.26zm24.378-23.73l-.102.161-1.298 2.04-.817 1.284A60.393 60.393 0 0117.668 20.13c-.055.047-.169.153-.224.2l-.005 7.341a.626.626 0 01-.234.48l-3.72 3.705a.617.617 0 01-.581.116.611.611 0 01-.402-.437s-.87-7.994-2.563-9.687S.471 19.64.471 19.64a.607.607 0 01-.324-.987l3.708-4.021a.604.604 0 01.453-.203h7.469c.278-.332.524-.625.596-.707A60.469 60.469 0 0125.422 2.524l1.236-.787L28.78.386l.126-.08c.982-.623 2.303-.252 2.849.743a1.97 1.97 0 01-.077 2.03zM7.699 19.783a61.15 61.15 0 013.067-4.143H4.588l-2.875 3.04 5.986 1.103zm8.533 1.779v-.241s-2.549 1.971-3.89 2.883l1.135 6.184 2.752-3.025.003-5.801zM30.626 1.669c-.201-.366-.653-.518-1.027-.276l-.291.185-3.193 2.033A59.157 59.157 0 009.124 19.967a4.161 4.161 0 012.901 2.904A59.125 59.125 0 0028.373 5.87l1.995-3.135.222-.349a.672.672 0 00.036-.717z"/></symbol><symbol viewBox="0 0 32 32" id="support" xmlns="http://www.w3.org/2000/svg"><path d="M27.314 4.686C24.19 1.562 20.095 0 16 0S7.811 1.562 4.686 4.686C-.241 9.613-1.283 16.955 1.561 22.903L0 32l9.102-1.558A16.02 16.02 0 0016 32c4.095 0 8.189-1.562 11.314-4.686 6.248-6.249 6.248-16.379 0-22.628zm-1.029 21.599A14.45 14.45 0 0116 30.545c-2.162 0-4.331-.49-6.271-1.416l-.417-.199-.455.078-7.075 1.211 1.213-7.07.078-.456-.2-.417A14.57 14.57 0 015.715 5.715c2.747-2.747 6.4-4.26 10.285-4.26s7.538 1.513 10.285 4.26 4.26 6.4 4.26 10.285-1.513 7.538-4.26 10.285z"/></symbol><symbol viewBox="0 0 32 32" id="text-block" xmlns="http://www.w3.org/2000/svg"><path d="M3.782 14.125L1.658 16l2.124 1.875c.272.241.292.65.044.914a.682.682 0 01-.941.043L.218 16.478a.638.638 0 010-.957l2.667-2.353A.677.677 0 013.333 13c.181 0 .361.071.493.211a.634.634 0 01-.044.914zm28 1.397l-2.667-2.354a.682.682 0 00-.941.043.634.634 0 00.044.914L30.342 16l-2.124 1.874a.634.634 0 00-.044.914.681.681 0 00.942.044l2.667-2.353a.638.638 0 00-.001-.957zM26.757 3.333v25.333a3.336 3.336 0 01-3.333 3.333H8.667a3.337 3.337 0 01-3.333-3.333V3.333A3.336 3.336 0 018.667 0h14.757a3.337 3.337 0 013.333 3.333zM11.694 21.756c0 .369.281.668.628.668H18.4c.347 0 .628-.299.628-.668 0-.369-.281-.668-.628-.668h-6.078c-.347 0-.628.299-.628.668zm.657-3.33h7.353a.662.662 0 00.657-.668.663.663 0 00-.657-.669h-7.353a.663.663 0 00-.657.669c0 .369.294.668.657.668zm-.657 7.329c0 .37.298.669.666.669h6.001a.667.667 0 00.666-.669.667.667 0 00-.666-.668H12.36a.667.667 0 00-.666.668zm8.667-18.663a.682.682 0 00-.696-.668h-7.274c-.385 0-.696.299-.696.668s.311.668.696.668h7.274a.68.68 0 00.696-.668z"/></symbol><symbol viewBox="0 0 32 32" id="text-block-padding" xmlns="http://www.w3.org/2000/svg"><path d="M24.679 0H7.321A3.33 3.33 0 004 3.333v25.333A3.331 3.331 0 007.321 32h17.357A3.331 3.331 0 0028 28.667V3.333A3.33 3.33 0 0024.679 0zm1.992 28.667c0 1.103-.894 2-1.993 2H7.321a1.999 1.999 0 01-1.993-2V3.333c0-1.103.894-2 1.993-2h17.357c1.099 0 1.993.897 1.993 2v25.334zM10.449 14.125l-2.125 1.874 2.125 1.875c.272.241.292.65.044.914a.682.682 0 01-.941.043l-2.667-2.354a.64.64 0 01-.218-.479.64.64 0 01.218-.479l2.667-2.353a.685.685 0 01.941.045.634.634 0 01-.044.914zm14.666 1.397a.638.638 0 010 .958l-2.667 2.353a.681.681 0 01-.941-.044.634.634 0 01.044-.914L23.676 16l-2.125-1.875a.634.634 0 01-.044-.914.682.682 0 01.941-.043l2.667 2.354z"/></symbol><symbol viewBox="0 0 32 32" id="text-block-width" xmlns="http://www.w3.org/2000/svg"><path d="M23.424 0H8.667a3.337 3.337 0 00-3.334 3.333v25.333A3.338 3.338 0 008.667 32h14.757a3.337 3.337 0 003.333-3.333V3.333A3.337 3.337 0 0023.424 0zm2 28.667c0 1.103-.897 2-2 2H8.667c-1.103 0-2-.897-2-2V3.333c0-1.103.897-2 2-2h14.757c1.103 0 2 .897 2 2v25.334zM3.782 14.125l-2.124 1.874 2.124 1.875c.272.241.292.65.044.914a.682.682 0 01-.941.043L.218 16.477a.635.635 0 010-.957l2.667-2.353a.683.683 0 01.941.044.634.634 0 01-.044.914zM32 16a.64.64 0 01-.218.479l-2.667 2.353a.677.677 0 01-.448.168.675.675 0 01-.493-.211.634.634 0 01.044-.914L30.342 16l-2.124-1.875a.634.634 0 01-.044-.914.682.682 0 01.941-.043l2.667 2.354A.638.638 0 0132 16z"/></symbol><symbol viewBox="0 0 32 32" id="trash" xmlns="http://www.w3.org/2000/svg"><path d="M29.8 4.381h-8.5v-.916C21.3 1.554 19.668 0 17.662 0h-3.324C12.332 0 10.7 1.554 10.7 3.465v.916H2.2c-.387 0-.7.298-.7.667 0 .369.313.667.7.667h1.572L5.7 29.104C5.993 30.782 7.503 32 9.29 32h13.42c1.787 0 3.296-1.218 3.597-2.954l1.92-23.332H29.8c.387 0 .7-.298.7-.667 0-.368-.313-.666-.7-.666zm-17.7-.916c0-1.175 1.004-2.132 2.238-2.132h3.324c1.234 0 2.238.956 2.238 2.132v.916h-7.8v-.916zm12.819 25.42c-.18 1.033-1.109 1.782-2.209 1.782H9.29c-1.1 0-2.029-.749-2.202-1.725L5.177 5.714H26.823l-1.904 23.171zM21.646 8.559c.386.014.687.324.672.692l-.732 17.78c-.014.359-.325.641-.699.641l-.028-.001c-.386-.014-.687-.324-.672-.692l.732-17.78c.015-.368.354-.655.727-.64zm-4.946.666v17.78c0 .368-.313.667-.7.667s-.7-.298-.7-.667V9.225c0-.368.313-.667.7-.667s.7.299.7.667zm-5.619-.026l.732 17.78c.015.368-.286.678-.672.692l-.028.001c-.374 0-.684-.281-.699-.641l-.731-17.78c-.015-.368.286-.678.672-.692.399-.016.712.272.726.64z"/></symbol><symbol viewBox="0 0 32 32" id="unlink" xmlns="http://www.w3.org/2000/svg"><path d="M6.976 8.047a.674.674 0 01.953-.953l4.492 4.493a.67.67 0 010 .952.674.674 0 01-.953 0L6.976 8.047zm13.539 11.556a.674.674 0 00-.953.953l4.492 4.493a.674.674 0 00.953-.952l-4.492-4.494zm7.407.206l-6.136-1.645a.673.673 0 10-.349 1.301l6.136 1.645a.673.673 0 10.349-1.301zM4.078 12.437l6.136 1.645a.673.673 0 10.349-1.301l-6.136-1.645a.673.673 0 10-.349 1.301zm8.499-1.772a.672.672 0 101.301-.349l-1.644-6.137a.672.672 0 10-1.301.349l1.644 6.137zm6.846 10.757a.672.672 0 10-1.301.349l1.644 6.137a.672.672 0 101.301-.349l-1.644-6.137zm-4.316-1.416a.674.674 0 00-.524.796 4.37 4.37 0 01-1.185 3.992l-4.081 4.081c-1.644 1.644-4.544 1.647-6.191 0a4.384 4.384 0 010-6.191l4.082-4.081a4.382 4.382 0 013.935-1.196.673.673 0 10.254-1.324 5.73 5.73 0 00-5.141 1.568l-4.082 4.081a5.734 5.734 0 000 8.097C3.251 30.906 4.689 31.5 6.222 31.5s2.971-.594 4.048-1.672l4.081-4.081a5.718 5.718 0 001.552-5.219.667.667 0 00-.796-.522zM29.829 2.172A5.682 5.682 0 0025.781.5a5.682 5.682 0 00-4.048 1.672l-4.082 4.081a5.72 5.72 0 00-1.552 5.219.674.674 0 001.32-.273 4.373 4.373 0 011.185-3.992l4.082-4.081c1.645-1.644 4.545-1.647 6.19 0a4.382 4.382 0 010 6.191l-4.081 4.081a4.374 4.374 0 01-3.935 1.196.68.68 0 00-.789.534.675.675 0 00.535.79c.365.07.732.104 1.096.104 1.507 0 2.965-.59 4.046-1.672l4.081-4.081C30.907 9.191 31.5 7.753 31.5 6.22s-.593-2.97-1.671-4.048z"/></symbol><symbol viewBox="0 0 32 32" id="unlocked" xmlns="http://www.w3.org/2000/svg"><path d="M25.396 13.297H12.108V9.225c0-2.104 1.746-3.816 3.892-3.816s3.892 1.712 3.892 3.816v1.062c0 .353.291.638.651.638h3.194c.36 0 .651-.285.651-.638V9.225C24.388 4.69 20.625 1 16 1S7.612 4.69 7.612 9.225v4.072H6.604C5.172 13.297 4 14.445 4 15.85v12.597C4 29.851 5.172 31 6.604 31h18.793C26.828 31 28 29.851 28 28.447V15.85c0-1.405-1.172-2.553-2.604-2.553zM8.914 9.225c0-3.831 3.179-6.948 7.086-6.948s7.086 3.117 7.086 6.948v.424h-1.892v-.424c0-2.808-2.33-5.093-5.193-5.093s-5.194 2.285-5.194 5.093v4.072H8.914V9.225zm17.784 19.222c0 .704-.584 1.277-1.302 1.277H6.604c-.718 0-1.302-.573-1.302-1.277V15.85c0-.704.584-1.277 1.302-1.277h18.793c.718 0 1.302.573 1.302 1.277v12.597z"/></symbol><symbol viewBox="0 0 32 32" id="venly" xmlns="http://www.w3.org/2000/svg"><path fill-rule="evenodd" clip-rule="evenodd" fill="#7927FF" d="M31.97 11.312l-11.63 18.89a.63.63 0 01-.232.218.66.66 0 01-.31.081h-7.612a.664.664 0 01-.311-.084.639.639 0 01-.232-.221L.033 11.312a.218.218 0 01.135-.325.234.234 0 01.136.008l3.902 1.47a.204.204 0 00.22-.044.194.194 0 00.039-.217L.091 1.778a.195.195 0 01.137-.268.2.2 0 01.114.006l8.309 2.858a.569.569 0 01.356.328l5.653 13.964a.216.216 0 01-.047.234.23.23 0 01-.11.061.235.235 0 01-.126-.008l-3.521-1.267c-.043-.016-.09-.018-.135-.006a.22.22 0 00-.136.323l5.169 8.626a.283.283 0 00.249.142.29.29 0 00.249-.142l5.169-8.626a.216.216 0 00-.024-.251.227.227 0 00-.247-.066l-3.521 1.269a.23.23 0 01-.127.01.218.218 0 01-.157-.296l5.64-13.97a.592.592 0 01.355-.327l8.309-2.859a.201.201 0 01.265.15.195.195 0 01-.013.112l-4.374 10.429a.195.195 0 00.141.272c.039.008.08.005.117-.01L31.707 11a.224.224 0 01.244.066.214.214 0 01.05.121.224.224 0 01-.031.125z"/></symbol><symbol viewBox="0 0 32 32" id="video" xmlns="http://www.w3.org/2000/svg"><path d="M28.522 0H3.478A3.482 3.482 0 000 3.478v25.043A3.482 3.482 0 003.478 32h25.043A3.482 3.482 0 0032 28.522V3.478A3.482 3.482 0 0028.522 0zM5.478 30.609h-2a2.09 2.09 0 01-2.087-2.087v-3.826h4.087v5.913zm0-7.305H1.391v-6.609h4.087v6.609zm0-8H1.391V8.696h4.087v6.608zm0-8H1.391V3.478a2.09 2.09 0 012.087-2.087h2v5.913zM25.13 30.609H6.87V1.391h18.26v29.218zm5.479-2.087a2.09 2.09 0 01-2.087 2.087h-2v-5.913h4.087v3.826zm0-5.218h-4.087v-6.609h4.087v6.609zm0-8h-4.087V8.696h4.087v6.608zm0-8h-4.087V1.391h2a2.09 2.09 0 012.087 2.087v3.826zM11.478 21.421a.697.697 0 00.696 0l8.348-4.819a.695.695 0 000-1.204l-8.348-4.819a.695.695 0 00-1.044.602v9.639c0 .248.133.478.348.601zm1.044-9.035L18.783 16l-6.261 3.614v-7.228z"/></symbol><symbol viewBox="0 0 32 32" id="wallet" xmlns="http://www.w3.org/2000/svg"><path d="M28.4 4.5H3.6A3.099 3.099 0 00.5 7.591v16.817a3.099 3.099 0 003.1 3.091h24.8c1.709 0 3.1-1.386 3.1-3.091V7.591A3.099 3.099 0 0028.4 4.5zM1.74 19.669h28.52v2.555H1.74v-2.555zM3.6 5.737h24.8a1.86 1.86 0 011.86 1.855v10.841H1.74V7.591A1.86 1.86 0 013.6 5.737zm24.8 20.526H3.6a1.86 1.86 0 01-1.86-1.855v-.948h28.52v.948a1.86 1.86 0 01-1.86 1.855z"/></symbol></svg>